<svg width="645" height="708" viewBox="0 0 645 708" fill="none" xmlns="http://www.w3.org/2000/svg">
<path d="M180.379 295.334H102.558C95.9495 295.334 90.6003 300.683 90.6003 307.292V385.113C90.6003 391.714 95.9495 397.071 102.558 397.071H180.379C186.988 397.071 192.337 391.714 192.337 385.113V307.292C192.337 300.691 186.988 295.334 180.379 295.334ZM168.422 373.155H114.516V319.25H168.422V373.155Z" fill="#04C269"/>
<path d="M361.883 295.334H284.061C277.453 295.334 272.104 300.683 272.104 307.292V385.113C272.104 391.714 277.453 397.071 284.061 397.071H361.883C368.483 397.071 373.84 391.714 373.84 385.113V307.292C373.84 300.691 368.483 295.334 361.883 295.334ZM349.925 373.155H296.019V319.25H349.925V373.155Z" fill="#04C269"/>
<path d="M537.79 295.334H459.969C453.368 295.334 448.011 300.683 448.011 307.292V385.113C448.011 391.714 453.368 397.071 459.969 397.071H537.79C544.391 397.071 549.748 391.714 549.748 385.113V307.292C549.748 300.691 544.391 295.334 537.79 295.334ZM525.832 373.155H471.926V319.25H525.832V373.155Z" fill="#04C269"/>
<path d="M180.379 472.596H102.558C95.9495 472.596 90.6003 477.953 90.6003 484.553V562.375C90.6003 568.975 95.9495 574.333 102.558 574.333H180.379C186.988 574.333 192.337 568.975 192.337 562.375V484.553C192.337 477.953 186.988 472.596 180.379 472.596ZM168.422 550.417H114.516V496.511H168.422V550.417Z" fill="#04C269"/>
<path d="M361.883 472.596H284.061C277.453 472.596 272.104 477.953 272.104 484.553V562.375C272.104 568.975 277.453 574.333 284.061 574.333H361.883C368.483 574.333 373.84 568.975 373.84 562.375V484.553C373.84 477.953 368.483 472.596 361.883 472.596ZM349.925 550.417H296.019V496.511H349.925V550.417Z" fill="#04C269"/>
<path d="M537.79 472.596H459.969C453.368 472.596 448.011 477.953 448.011 484.553V562.375C448.011 568.975 453.368 574.333 459.969 574.333H537.79C544.391 574.333 549.748 568.975 549.748 562.375V484.553C549.748 477.953 544.391 472.596 537.79 472.596ZM525.832 550.417H471.926V496.511H525.832V550.417Z" fill="#04C269"/>
<path d="M632.495 63.7753H553.518C553.415 63.7753 553.327 63.7992 553.223 63.8072V47.8794C553.223 21.8274 532.034 0.638184 505.982 0.638184C479.93 0.638184 458.741 21.8354 458.741 47.8794V63.7753H369.751V47.8794C369.751 21.8274 348.562 0.638184 322.51 0.638184C296.458 0.638184 275.268 21.8354 275.268 47.8794V63.7753H186.271V47.8794C186.271 21.8274 165.081 0.638184 139.029 0.638184C112.977 0.638184 91.7881 21.8354 91.7881 47.8794V63.7833C91.7483 63.7833 91.7084 63.7753 91.6686 63.7753H12.7073C6.09863 63.7753 0.749512 69.1244 0.749512 75.7331V695.513C0.749512 702.114 6.09863 707.471 12.7073 707.471H632.495C639.096 707.471 644.453 702.114 644.453 695.513V75.7331C644.453 69.1244 639.096 63.7753 632.495 63.7753ZM482.656 47.8794C482.656 35.0128 493.115 24.5538 505.982 24.5538C518.849 24.5538 529.308 35.0128 529.308 47.8794V113.863C529.308 126.721 518.849 137.188 505.982 137.188C493.115 137.188 482.656 126.729 482.656 113.863V47.8794ZM322.51 24.5538C335.368 24.5538 345.835 35.0128 345.835 47.8794V113.863C345.835 126.721 335.376 137.188 322.51 137.188C309.643 137.188 299.184 126.729 299.184 113.863V76.8492C299.216 76.4745 299.296 76.1157 299.296 75.7251C299.296 75.3345 299.216 74.9758 299.184 74.6011V47.8794C299.184 35.0128 309.643 24.5538 322.51 24.5538ZM115.704 47.8794C115.704 35.0128 126.163 24.5538 139.029 24.5538C151.888 24.5538 162.355 35.0128 162.355 47.8794V113.863C162.355 126.721 151.896 137.188 139.029 137.188C126.163 137.188 115.704 126.729 115.704 113.863V47.8794ZM620.538 683.555H24.6651V87.6909H91.6686C91.7084 87.6909 91.7483 87.6829 91.7881 87.6829V113.87C91.7881 139.923 112.985 161.112 139.029 161.112C165.073 161.112 186.271 139.923 186.271 113.87V87.6989H275.268V113.87C275.268 139.923 296.466 161.112 322.51 161.112C348.554 161.112 369.751 139.923 369.751 113.87V87.6989H458.741V113.87C458.741 139.923 479.93 161.112 505.982 161.112C532.034 161.112 553.223 139.923 553.223 113.87V87.659C553.327 87.659 553.415 87.6909 553.518 87.6909H620.538V683.555Z" fill="#04C269"/>
</svg>
