<svg width="800" height="482" viewBox="0 0 800 482" fill="none" xmlns="http://www.w3.org/2000/svg">
<path fill-rule="evenodd" clip-rule="evenodd" d="M633.529 240.935C633.529 305.518 610.807 360.661 565.299 406.169C519.727 451.742 464.648 474.528 400.065 474.528C335.742 474.528 280.664 451.807 235.026 406.169C189.453 360.661 166.536 305.518 166.536 240.935C166.536 176.547 189.388 121.664 235.026 75.9608C280.794 30.3878 335.807 7.47118 400.065 7.47118C464.648 7.47118 519.727 30.3227 565.299 75.9608C610.742 121.664 633.529 176.547 633.529 240.935ZM106.576 197.901C127.083 183.903 137.37 165.609 135.612 123.747V16.13C135.417 1.09097 108.138 -0.731944 106.771 16.13L105.729 103.435C105.664 119.776 81.1198 120.297 81.1849 103.435L82.2266 13.1352C81.901 -3.01059 55.8594 -4.63819 55.5339 13.1352C55.5339 38.2003 54.4922 78.3696 54.4922 103.435C55.7943 119.255 33.0078 121.338 33.5937 103.435L34.6354 13.7212C34.0495 1.5467 20.638 -2.81528 11.5234 2.91389C1.82292 9.09878 3.77604 21.5337 3.38542 32.0155L0 135.01C0.520833 164.958 8.39844 189.307 31.8359 199.659C35.4167 201.221 40.3646 202.458 46.0937 203.305L38.0208 454.476C37.5651 469.385 49.7396 481.56 63.9974 481.56H67.2526C83.3333 481.56 96.9401 467.823 96.4844 451.091L89.388 203.239C96.875 202.068 103.06 200.31 106.576 197.901ZM694.922 446.924L694.531 221.338C615.43 175.635 640.625 -0.471528 719.792 0.505035C816.016 1.61181 827.409 198.943 744.661 220.622L750.781 447.836C751.953 490.805 694.987 494.776 694.922 446.924ZM536.003 240.739C536.003 278.37 522.786 310.466 496.159 337.094C469.596 363.591 437.5 376.937 399.87 376.937C362.5 376.937 330.404 363.591 303.841 337.094C277.279 310.466 263.997 278.37 263.997 240.739C263.997 203.37 277.279 171.273 303.841 144.776C330.469 118.278 362.5 104.932 399.87 104.932C475.456 104.997 536.003 165.088 536.003 240.739ZM567.839 240.739C567.839 194.515 551.563 154.997 518.815 122.25C486.068 89.5024 446.419 73.2264 399.87 73.2264C353.45 73.2264 313.932 89.5024 281.38 122.25C248.633 154.997 232.161 194.515 232.161 240.739C232.161 287.094 248.633 326.612 281.38 359.489C313.932 392.302 353.45 408.773 399.87 408.773C446.354 408.773 486.003 392.302 518.815 359.489C551.497 326.547 567.839 287.028 567.839 240.739Z" fill="#04C269"/>
</svg>
