<svg width="788" height="692" viewBox="0 0 788 692" fill="none" xmlns="http://www.w3.org/2000/svg">
<path d="M750.775 168.663C726.291 144.178 696.95 132.131 662.366 132.131C627.781 132.131 598.631 143.206 574.538 168.466H573.759C549.666 143.206 520.906 132.131 486.322 132.131C451.928 132.131 422.394 144.178 397.913 168.663C373.625 193.147 361.381 222.681 361.381 257.072C361.381 301.956 374.206 331.491 392.666 367.634C425.503 423.013 446.878 455.462 456.4 464.984L458.731 467.316C474.859 482.472 492.347 490.631 511.584 490.631C538.009 490.631 558.606 479.363 573.956 459.931H574.734C589.891 479.363 610.875 490.631 637.303 490.631C656.541 490.631 674.222 482.666 690.156 467.509L692.487 464.984C702.203 455.462 723.381 422.819 756.222 367.634C774.675 331.494 787.5 301.959 787.5 257.075C787.5 222.488 775.259 193.147 750.775 168.663ZM738.341 331.494C736.203 335.769 732.122 338.1 727.653 338.1C725.903 338.1 724.156 337.713 722.406 336.934C716.578 334.019 714.05 327.025 716.966 321.197C727.459 300.019 733.094 280.975 733.872 264.847C734.844 246.581 728.237 229.094 715.025 215.297C700.841 200.334 680.828 191.784 660.231 191.784C653.625 191.784 648.378 186.537 648.378 179.931C648.378 173.325 653.625 168.078 660.231 168.078C687.434 168.078 713.666 179.347 732.319 198.972C749.806 217.431 758.744 241.331 757.578 266.009C756.606 285.25 750.194 307.4 738.341 331.494ZM646.238 106.872C631.666 117.169 574.344 153.119 574.344 153.119L543.837 29.7312L569.291 11.6594L586 84.9125C589.888 42.1656 616.313 21.5687 680.047 0C687.625 53.6313 681.019 81.4187 646.238 106.872ZM690.481 534.6L509.372 576.103C508.116 584.906 504.341 594.341 498.681 601.888C487.991 618.238 471.641 630.184 452.775 635.216C433.909 639.619 413.787 636.472 397.437 625.153L241.481 525.794C233.934 521.391 232.678 512.588 237.078 505.672C241.481 498.753 250.284 496.869 256.572 501.269L413.156 600.628C433.909 613.206 460.95 607.547 474.156 587.422C487.362 567.297 481.075 539.628 460.95 526.422L266.006 403.166C233.934 383.044 196.831 367.322 161.616 384.928L0 476.747L0.628125 655.341L115.709 575.475C133.947 571.072 154.069 574.847 171.047 585.538L306.878 671.063C340.206 691.816 381.081 696.847 416.3 687.413L710.603 620.125C733.872 615.094 749.591 591.828 743.931 566.672C737.644 544.034 714.378 529.572 690.481 534.6Z" fill="#04C269"/>
</svg>
