<svg width="100" height="93" viewBox="0 0 100 93" fill="none" xmlns="http://www.w3.org/2000/svg">
<path fill-rule="evenodd" clip-rule="evenodd" d="M46.6648 1.25145C48.3324 -0.41715 50.9518 -0.41715 52.6193 1.25145L87.1529 35.8159L97.9447 46.6175C99.6709 48.345 99.7374 51.2167 98.0932 53.0313C96.4494 54.8455 93.7169 54.9154 91.9902 53.1874L88.4924 49.6865V83.9268C88.4924 88.9379 84.6272 93 79.859 93H58.2755H41.0087H19.4252C14.6571 93 10.7918 88.9379 10.7918 83.9268V49.6865L7.29377 53.1874C5.56734 54.9154 2.835 54.8455 1.19082 53.0313C-0.453348 51.2167 -0.386707 48.345 1.33968 46.6175L12.1314 35.8159L46.6648 1.25145ZM19.4252 41.0452V83.9268H36.692V61.2439C36.692 53.7272 42.4897 47.6341 49.6421 47.6341C56.7944 47.6341 62.5922 53.7272 62.5922 61.2439V83.9268H79.859V41.0452L49.6421 10.8014L19.4252 41.0452ZM53.9588 83.9268V61.2439C53.9588 58.7383 52.0262 56.7073 49.6421 56.7073C47.258 56.7073 45.3254 58.7383 45.3254 61.2439V83.9268H53.9588Z" fill="#04C269"/>
</svg>
