<svg width="88" height="98" viewBox="0 0 88 98" fill="none" xmlns="http://www.w3.org/2000/svg">
<g filter="url(#filter0_d_446_11)">
<path d="M29.1426 39.1304H20.3975V48.075H29.1426V39.1304Z" fill="#04C269"/>
<path d="M67.4034 39.1304H58.6582V48.075H67.4034V39.1304Z" fill="#04C269"/>
<path d="M54.6495 39.1304H45.9043V48.075H54.6495V39.1304Z" fill="#04C269"/>
<path d="M29.1426 53.1055H20.3975V62.0501H29.1426V53.1055Z" fill="#04C269"/>
<path d="M54.6495 53.1055H45.9043V62.0501H54.6495V53.1055Z" fill="#04C269"/>
<path d="M41.8965 53.1055H33.1514V62.0501H41.8965V53.1055Z" fill="#04C269"/>
<path d="M67.4034 67.0801H58.6582V76.0247H67.4034V67.0801Z" fill="#04C269"/>
<path d="M54.6495 67.0801H45.9043V76.0247H54.6495V67.0801Z" fill="#04C269"/>
<path d="M41.8965 67.0801H33.1514V76.0247H41.8965V67.0801Z" fill="#04C269"/>
<path d="M75.401 9.67627H68.2895V16.6495C68.2895 19.2514 66.1935 21.3675 63.6174 21.3675H54.3319C51.7558 21.3675 49.66 19.2514 49.66 16.6495V9.67627H38.1282V16.5839C38.1282 19.2221 36.0091 21.3675 33.4044 21.3675H24.2221C21.6174 21.3675 19.4983 19.2221 19.4983 16.5839V9.67627H12.3868C7.76234 9.67627 4 13.4893 4 18.176V81.5005C4 86.187 7.76234 90.0002 12.3868 90.0002H75.401C80.0325 90.0002 83.8005 86.1872 83.8005 81.5005V18.176C83.8005 13.4895 80.0325 9.67627 75.401 9.67627ZM77.7883 81.3354C77.7883 82.8401 76.7999 83.8507 75.3286 83.8507H12.4719C11.0006 83.8507 10.0122 82.8401 10.0122 81.3354V31.3049H77.7883V81.3354Z" fill="#04C269"/>
<path d="M24.2251 18.0188H33.4019C34.1789 18.0188 34.8111 17.3767 34.8111 16.5872V3.60229C34.8111 1.61596 33.2178 0 31.2591 0L26.3677 0C24.4092 0 22.8154 1.61578 22.8154 3.60229V16.5872C22.8156 17.3767 23.4478 18.0188 24.2251 18.0188Z" fill="#04C269"/>
<path d="M54.3323 18.0188H63.6178C64.3651 18.0188 64.9729 17.4013 64.9729 16.6431V3.54691C64.9729 1.59135 63.404 0 61.475 0L56.475 0C54.5464 0 52.9775 1.59135 52.9775 3.54691V16.6431C52.9774 17.4013 53.5853 18.0188 54.3323 18.0188Z" fill="#04C269"/>
</g>
<defs>
<filter id="filter0_d_446_11" x="0" y="0" width="87.8008" height="98" filterUnits="userSpaceOnUse" color-interpolation-filters="sRGB">
<feFlood flood-opacity="0" result="BackgroundImageFix"/>
<feColorMatrix in="SourceAlpha" type="matrix" values="0 0 0 0 0 0 0 0 0 0 0 0 0 0 0 0 0 0 127 0" result="hardAlpha"/>
<feOffset dy="4"/>
<feGaussianBlur stdDeviation="2"/>
<feComposite in2="hardAlpha" operator="out"/>
<feColorMatrix type="matrix" values="0 0 0 0 0 0 0 0 0 0 0 0 0 0 0 0 0 0 0.25 0"/>
<feBlend mode="normal" in2="BackgroundImageFix" result="effect1_dropShadow_446_11"/>
<feBlend mode="normal" in="SourceGraphic" in2="effect1_dropShadow_446_11" result="shape"/>
</filter>
</defs>
</svg>
