<svg width="103" height="109" viewBox="0 0 103 109" fill="none" xmlns="http://www.w3.org/2000/svg">
<path d="M24.7204 85.0199H90.6403V4.35986H24.7204C17.9038 4.35986 12.3604 10.2262 12.3604 17.4399V92.4689C12.3604 99.1811 17.9038 104.64 24.7204 104.64H90.6403V100.28H24.7204C20.2543 100.28 16.4804 96.7025 16.4804 92.4689C16.4804 88.292 20.0998 85.0199 24.7204 85.0199ZM75.6209 69.1189C75.2192 69.5462 74.6898 69.7599 74.1603 69.7599C73.635 69.7599 73.1077 69.5484 72.708 69.1233L59.2707 54.9664L55.6451 58.8032L51.8423 54.707L58.3375 47.8334L75.6147 66.0342C76.4202 66.8844 76.4243 68.2644 75.6209 69.1189ZM33.5495 21.8151L49.4795 38.7777L43.2088 45.4136L33.4341 34.8799C30.0104 31.2567 30.064 25.3685 33.5495 21.8151ZM29.5181 66.0386L56.3475 37.6463C56.2775 37.461 56.1765 37.2909 56.1271 37.0969C55.3052 33.8073 55.4638 29.6282 58.2798 26.6831C62.4637 22.1181 69.6036 20.167 72.6957 23.4022C75.7877 26.8269 73.9234 34.1038 69.7396 38.479C66.7649 41.5921 62.9457 41.8471 59.8516 41.0078C59.6373 40.949 59.4478 40.8313 59.2459 40.7419L30.3709 69.1211C29.9692 69.5462 31.5019 69.7599 30.9745 69.7599C30.4472 69.7599 29.9198 69.5462 29.5181 69.1211C28.7126 68.2687 28.7126 66.891 29.5181 66.0386Z" fill="#04C269"/>
</svg>
