<svg width="36" height="48" viewBox="0 0 36 48" fill="none" xmlns="http://www.w3.org/2000/svg">
<path fill-rule="evenodd" clip-rule="evenodd" d="M11.25 0C12.47 14.3779 0 19.3279 0 31.9918C0 40.5937 6.138 47.9357 18 47.9997C29.862 48.0637 36 39.1717 36 30.0878C36 21.8059 31.876 13.9959 24.096 9.13993C25.944 14.3539 23.484 19.1159 21.094 20.7559C21.234 14.0819 18.844 4.17796 11.25 0ZM20.672 25.9998C28.182 33.9777 23.57 43.9997 17.538 43.9997C13.868 43.9997 11.98 41.4697 12 38.8457C12.038 33.9798 17.474 33.9757 20.672 25.9998Z" fill="black"/>
</svg>
