<svg width="866" height="858" viewBox="0 0 866 858" fill="none" xmlns="http://www.w3.org/2000/svg">
<path d="M328.565 483.251C319.339 483.251 309.7 478.713 309.011 468.683C308.46 460.564 314.588 449.4 320.441 444.445C320.647 444.266 320.991 444.206 321.267 444.385C321.542 444.505 321.68 444.803 321.542 445.101C321.542 445.161 320.027 449.221 322.437 452.086C322.712 444.803 330.286 437.758 335.725 436.683C336.001 436.624 336.208 436.683 336.414 436.863C336.552 437.042 336.621 437.281 336.552 437.46C334.693 442.057 335.863 446.594 340.201 451.251L340.545 451.609C343.713 455.072 349.565 461.459 348.807 469.161C347.843 478.415 337.86 483.251 328.565 483.251L328.565 483.251Z" fill="#050505"/>
</svg>
