<svg width="331" height="348" viewBox="0 0 331 348" fill="none" xmlns="http://www.w3.org/2000/svg">
<path d="M165.5 311.279C238.505 311.279 297.688 307.15 297.688 302.057C297.688 296.964 238.505 292.835 165.5 292.835C92.4944 292.835 33.3118 296.964 33.3118 302.057C33.3118 307.15 92.4944 311.279 165.5 311.279Z" fill="#EBEBEB"/>
<path d="M165.023 281.574L163.865 280.912L167.38 274.105H221.863L225.385 280.912L224.219 281.574L221.075 275.497H168.168L165.023 281.574Z" fill="#263238"/>
<path d="M174.629 281.49L173.384 281.003L175.821 274.105H213.422L215.858 281.003L214.62 281.49L212.502 275.497H176.741L174.629 281.49Z" fill="#263238"/>
<path d="M288.089 281.574L284.945 275.497H232.038L228.893 281.574L227.735 280.912L231.25 274.105H285.732L289.254 280.912L288.089 281.574Z" fill="#263238"/>
<path d="M278.49 281.49L276.372 275.497H240.611L238.499 281.49L237.254 281.003L239.69 274.105H277.292L279.728 281.003L278.49 281.49Z" fill="#263238"/>
<path d="M292.253 279.75H161.197V283.341H292.253V279.75Z" fill="#455A64"/>
<path d="M29.2671 283.23L63.327 283.063L97.3803 283L165.5 282.882L233.613 283L267.673 283.063L301.733 283.23L267.673 283.404L233.613 283.46L165.5 283.578L97.3803 283.46L63.327 283.397L29.2671 283.23Z" fill="#263238"/>
<path d="M281.469 85.7471H175.549V94.3148H281.469V85.7471Z" fill="#04C269"/>
<path d="M230.078 109.808H226.934V151.595H230.078V109.808Z" fill="#C7C7C7"/>
<path d="M236.996 149.772H219.996L219.122 174.752H237.89L236.996 149.772ZM224.915 171.822H223.147V153.343H224.915V171.822ZM229.363 171.822H227.602V153.343H229.363V171.822ZM233.812 171.822H232.051V153.343H233.812V171.822Z" fill="#C7C7C7"/>
<path d="M231.905 113.921H225.305L224.643 88.0371H232.567L231.905 113.921Z" fill="#263238"/>
<path d="M228.608 92.5402C229.201 92.5402 229.681 92.0354 229.681 91.4127C229.681 90.79 229.201 90.2852 228.608 90.2852C228.016 90.2852 227.536 90.79 227.536 91.4127C227.536 92.0354 228.016 92.5402 228.608 92.5402Z" fill="#04C269"/>
<path d="M263.357 109.808H260.212V143.438H263.357V109.808Z" fill="#C7C7C7"/>
<path d="M270.791 153.161C270.791 160.177 266.442 166.629 261.788 166.629C257.134 166.629 252.778 160.177 252.778 153.161C252.778 146.146 258.107 142.68 261.788 142.68C265.469 142.68 270.791 146.16 270.791 153.161Z" fill="#C7C7C7"/>
<path d="M265.184 113.921H258.584L257.922 88.0371H265.846L265.184 113.921Z" fill="#263238"/>
<path d="M261.887 92.5402C262.48 92.5402 262.96 92.0354 262.96 91.4127C262.96 90.79 262.48 90.2852 261.887 90.2852C261.295 90.2852 260.815 90.79 260.815 91.4127C260.815 92.0354 261.295 92.5402 261.887 92.5402Z" fill="#04C269"/>
<path d="M175.49 124.153V165.217H199.375V109.704H194.423V124.153H175.49ZM178.866 129.86C178.865 129.564 178.947 129.274 179.102 129.027C179.258 128.78 179.48 128.587 179.74 128.473C180 128.358 180.286 128.328 180.563 128.385C180.839 128.442 181.093 128.584 181.293 128.793C181.493 129.002 181.629 129.268 181.685 129.559C181.74 129.849 181.712 130.15 181.605 130.424C181.497 130.698 181.315 130.932 181.081 131.097C180.846 131.262 180.571 131.35 180.289 131.35C179.913 131.35 179.552 131.193 179.285 130.914C179.018 130.635 178.868 130.256 178.866 129.86Z" fill="#C7C7C7"/>
<path d="M193.602 113.921H200.202L200.864 88.0371H192.94L193.602 113.921Z" fill="#263238"/>
<path d="M196.905 92.5402C197.498 92.5402 197.978 92.0354 197.978 91.4127C197.978 90.79 197.498 90.2852 196.905 90.2852C196.313 90.2852 195.833 90.79 195.833 91.4127C195.833 92.0354 196.313 92.5402 196.905 92.5402Z" fill="#04C269"/>
<path d="M209.629 51.1628V85.7471H261.053V51.1628H209.629Z" fill="#04C269"/>
<path opacity="0.2" d="M209.629 51.1628V85.7471H261.053V51.1628H209.629Z" fill="black"/>
<path d="M274.684 63.8369C272.122 63.8369 269.752 66.1407 267.355 66.1407H261.053V70.7691H267.355C269.752 70.7691 272.122 73.0868 274.684 73.0868C277.716 73.0868 279.98 71.305 279.98 68.4584C279.98 65.6117 277.716 63.8369 274.684 63.8369ZM275.379 70.1914C275.051 70.1928 274.73 70.0917 274.457 69.9011C274.184 69.7104 273.971 69.4387 273.844 69.1205C273.718 68.8023 273.685 68.4518 273.749 68.1137C273.812 67.7755 273.97 67.4648 274.202 67.221C274.434 66.9773 274.729 66.8114 275.051 66.7445C275.373 66.6776 275.706 66.7126 276.009 66.8452C276.311 66.9777 276.57 67.2018 276.751 67.4891C276.932 67.7763 277.028 68.1136 277.027 68.4584C277.024 68.9145 276.851 69.3511 276.545 69.675C276.24 69.9988 275.826 70.1841 275.392 70.1914H275.379Z" fill="#04C269"/>
<g opacity="0.2">
<path d="M274.684 63.8369C272.122 63.8369 269.752 66.1407 267.355 66.1407H261.053V70.7691H267.355C269.752 70.7691 272.122 73.0868 274.684 73.0868C277.716 73.0868 279.98 71.305 279.98 68.4584C279.98 65.6117 277.716 63.8369 274.684 63.8369ZM275.379 70.1914C275.051 70.1928 274.73 70.0917 274.457 69.9011C274.184 69.7104 273.971 69.4387 273.844 69.1205C273.718 68.8023 273.685 68.4518 273.749 68.1137C273.812 67.7755 273.97 67.4648 274.202 67.221C274.434 66.9773 274.729 66.8114 275.051 66.7445C275.373 66.6776 275.706 66.7126 276.009 66.8452C276.311 66.9777 276.57 67.2018 276.751 67.4891C276.932 67.7763 277.028 68.1136 277.027 68.4584C277.024 68.9145 276.851 69.3511 276.545 69.675C276.24 69.9988 275.826 70.1841 275.392 70.1914H275.379Z" fill="black"/>
</g>
<path d="M223.498 68.96C223.498 68.96 216.726 82.2744 215.408 84.084C214.091 85.8936 210.893 85.7475 208.914 85.7475H192.735C190.749 85.7475 187.558 85.9006 186.241 84.084C184.923 82.2675 178.151 68.96 178.151 68.96H223.498Z" fill="#455A64"/>
<path d="M96.3408 141.037C91.7068 136.36 76.1234 136.694 69.4438 144.517C60.2354 155.27 72.3499 176.464 86.9868 171.174C101.624 165.884 99.8958 144.643 96.3408 141.037Z" fill="#263238"/>
<path d="M70.4102 165.488C67.8085 161.527 65.8623 157.045 65.3989 152.486C65.1137 150.283 65.482 148.04 66.4534 146.065C67.4249 144.09 68.9523 142.477 70.8273 141.448C72.7353 140.311 74.779 139.448 76.9044 138.88C79.0256 138.242 81.2087 137.859 83.4119 137.738C87.929 137.465 92.4211 138.613 96.3143 141.037C92.9116 137.724 88.1386 135.991 83.4053 135.901C81.0263 135.848 78.6512 136.127 76.3417 136.729C74.0047 137.298 71.7559 138.212 69.6622 139.443C67.4721 140.748 65.6984 142.704 64.5647 145.067C63.5161 147.459 63.2015 150.135 63.6644 152.723C64.5316 157.748 67.1598 162.084 70.4102 165.488Z" fill="#263238"/>
<path d="M114.46 172.837C125.667 186.987 134.942 205.027 139.914 209.398C142.509 211.681 180.296 215.196 184.579 216.087C191.113 217.437 181.871 252.627 177.469 251.325C174.596 250.483 131.182 244.17 123.185 234.663C117.042 227.348 107.337 195.819 104.755 181.969C101.895 166.566 109.991 167.193 114.46 172.837Z" fill="#EB9481"/>
<path d="M193.655 253.003C186.162 252.916 178.707 251.862 171.458 249.864C167.486 248.674 169.472 215.885 173.55 214.66C186.128 210.853 203.413 213.568 209.185 218.419C214.958 223.27 201.155 252.996 193.655 253.003Z" fill="#EB9481"/>
<path d="M286.785 196.439C279.741 200.845 270.976 202.793 263.152 205.118C258.862 206.385 254.552 207.573 250.223 208.682C248.237 209.197 246.251 209.677 244.265 210.15C243.06 210.442 241.18 211.257 239.909 210.888C239.764 210.852 239.634 210.771 239.534 210.656C239.435 210.54 239.372 210.395 239.353 210.241C239.346 210.153 239.346 210.064 239.353 209.976C239.306 209.204 259.875 202.87 265.833 194.943C268.845 190.913 271.486 184.28 268.587 179.422C266.852 176.526 263.344 176.074 260.437 176.93C257.405 177.828 254.201 181.482 257.061 182.957C257.339 182.428 258.273 182.651 258.081 183.312C257.498 184.885 254.281 185.832 252.586 183.751C249.865 180.431 251.812 175.12 253.983 172.545C260.053 165.307 274.809 165.418 279.735 174.995C282.608 172.74 286.408 173.708 287.811 177.174C290.512 174.564 294.431 177.536 295.093 181.162C296.311 187.565 291.684 193.39 286.785 196.439Z" fill="#04C269"/>
<path d="M250.494 172.748C249.832 171.926 243.821 173.402 245.258 176.374C246.694 179.346 251.494 173.938 250.494 172.748Z" fill="#04C269"/>
<path d="M247.151 180.626C246.35 180.326 243.642 184.015 245.476 185.101C247.31 186.187 247.82 180.876 247.151 180.626Z" fill="#04C269"/>
<path d="M280.476 172.608C281.251 172.246 280.794 167.604 278.755 168.147C276.716 168.69 279.821 172.893 280.476 172.608Z" fill="#04C269"/>
<path d="M245.225 178.872C244.914 178.44 243.345 178.983 243.94 179.923C244.536 180.863 245.602 179.401 245.225 178.872Z" fill="#04C269"/>
<path d="M279.721 166.455C280.218 166.323 280.383 164.597 279.304 164.806C278.225 165.014 279.146 166.608 279.721 166.455Z" fill="#04C269"/>
<path d="M225.947 217.514L168.227 237.447L166.129 229.701L224.451 211.967L225.947 217.514Z" fill="#A6A6A6"/>
<path d="M293.008 191.456C293.008 191.456 294.53 207.749 289.129 209.371L260.279 218.002L231.429 226.632C226.027 228.247 219.162 213.554 219.162 213.554L293.008 191.456Z" fill="#455A64"/>
<path d="M176.986 213.859C176.986 213.859 207.868 200.712 207.206 214.743C207.007 218.919 201.46 235.79 198.216 234.684C194.026 233.257 195.091 225.761 196.468 221.161C196.468 221.161 187.452 226.916 181.765 221.509C179.594 219.415 177.951 216.786 176.986 213.859Z" fill="#EB9481"/>
<path d="M207.206 213.574C207.313 215.22 207.19 216.873 206.842 218.481C206.531 220.097 206.12 221.689 205.611 223.249C204.629 226.391 203.389 229.437 201.903 232.352C201.504 233.118 201.005 233.821 200.42 234.44C200.076 234.804 199.657 235.081 199.196 235.248C198.948 235.346 198.686 235.398 198.421 235.401C198.16 235.402 197.9 235.357 197.653 235.269C196.763 234.947 196.009 234.303 195.528 233.452C195.106 232.663 194.815 231.804 194.668 230.912C194.427 229.217 194.463 227.492 194.774 225.81C195.045 224.158 195.435 222.529 195.939 220.938L196.746 221.592C195.691 222.209 194.583 222.72 193.436 223.116C192.303 223.519 191.134 223.801 189.948 223.959C188.761 224.1 187.562 224.06 186.386 223.84C185.212 223.622 184.088 223.168 183.076 222.504C184.122 223.007 185.241 223.325 186.386 223.444C187.526 223.54 188.673 223.472 189.795 223.242C190.929 223.029 192.038 222.693 193.105 222.239C194.157 221.801 195.168 221.26 196.124 220.625L197.296 219.831L196.932 221.279C196.507 222.818 196.182 224.385 195.959 225.97C195.702 227.511 195.686 229.086 195.912 230.633C196.157 232.081 196.852 233.556 197.998 233.932C198.977 234.357 200.03 232.944 200.778 231.628C201.555 230.242 202.262 228.813 202.896 227.348C203.558 225.88 204.22 224.404 204.776 222.894C205.882 219.936 207.027 216.845 207.206 213.574Z" fill="#263238"/>
<path d="M198.878 212.858C195.601 214.946 199.818 217.813 199.818 217.813C199.818 217.813 192.801 215.224 190.213 218.753C187.723 222.163 192.94 225.441 193.311 225.678C192.933 225.546 186.426 223.346 184.175 227.174C181.832 231.156 187.604 233.494 187.982 233.647C187.591 233.647 182.441 233.599 181.362 236.918C179.501 242.619 192.669 243.099 195.694 246.809C195.694 246.809 193.238 252.815 193.119 253.024C193.119 253.024 202.704 253.845 207.226 249.286C207.9 248.637 208.341 247.764 208.473 246.813C208.606 245.862 208.423 244.892 207.954 244.066C207.954 244.066 211.966 244.762 213.826 241.811C214.779 240.294 213.316 237.336 213.316 237.336C213.316 237.336 216.554 237.761 218.056 235.025C219.261 232.84 217.606 230.216 217.606 230.216C217.606 230.216 220.916 229.109 221.432 226.458C222.531 221.119 205.882 208.389 198.878 212.858Z" fill="#EB9481"/>
<path d="M217.394 229.756C217.404 229.767 217.417 229.774 217.432 229.775C217.446 229.775 217.46 229.77 217.47 229.76C217.481 229.75 217.487 229.735 217.488 229.72C217.488 229.705 217.483 229.691 217.474 229.68C212.979 224.112 206.412 219.4 199.6 217.632C199.375 217.576 199.189 217.931 199.427 218.042C206.114 221.272 211.794 224.696 217.394 229.756Z" fill="#263238"/>
<path d="M213.416 237.336C213.482 237.392 213.568 237.287 213.508 237.218C208.874 231.483 201.308 226.416 193.238 225.351C192.966 225.316 192.682 225.574 192.999 225.636C198.309 226.799 208.398 232.784 213.416 237.336Z" fill="#263238"/>
<path d="M187.392 233.779C195.091 235.109 201.606 238.902 207.769 243.816C207.848 243.878 207.928 243.753 207.875 243.676C205.478 240.412 201.255 237.719 197.779 235.909C194.593 234.167 191.027 233.334 187.439 233.494C187.293 233.501 187.227 233.745 187.392 233.779Z" fill="#263238"/>
<path d="M199.818 217.848C198.429 217.482 197.011 217.249 195.581 217.152C194.198 217 192.801 217.241 191.536 217.848C190.97 218.155 190.533 218.674 190.312 219.303C190.094 219.942 190.035 220.63 190.14 221.3C190.3 221.955 190.588 222.567 190.988 223.097C191.387 223.627 191.887 224.063 192.457 224.377L195.177 226.04L192.073 225.476C190.696 225.211 189.287 225.185 187.902 225.4C187.258 225.464 186.633 225.669 186.069 226.002C185.504 226.335 185.013 226.789 184.625 227.335C184.273 227.849 184.098 228.474 184.129 229.106C184.161 229.739 184.396 230.342 184.797 230.815C185.721 231.851 186.881 232.622 188.167 233.056L191.669 234.378L187.962 234.336C186.929 234.32 185.899 234.444 184.897 234.705C183.938 234.915 183.059 235.416 182.368 236.146C182.072 236.49 181.874 236.914 181.794 237.37C181.715 237.826 181.757 238.296 181.918 238.728C182.423 239.62 183.157 240.344 184.036 240.816C185.928 241.909 187.9 242.84 189.934 243.6C190.947 244.025 191.967 244.449 192.96 244.923C193.991 245.337 194.926 245.981 195.7 246.809C194.858 246.088 193.888 245.549 192.847 245.222C191.828 244.832 190.788 244.491 189.749 244.15C187.624 243.521 185.561 242.682 183.586 241.644C182.505 241.105 181.598 240.243 180.978 239.167C180.702 238.542 180.605 237.847 180.699 237.166C180.793 236.485 181.074 235.848 181.507 235.332C182.338 234.399 183.414 233.747 184.599 233.459C185.711 233.151 186.857 232.994 188.008 232.993L187.803 234.274C186.286 233.781 184.917 232.882 183.831 231.664C183.242 230.969 182.901 230.081 182.864 229.151C182.863 228.239 183.121 227.347 183.606 226.59C184.093 225.895 184.715 225.317 185.43 224.893C186.146 224.47 186.939 224.211 187.756 224.133C189.284 223.921 190.834 223.975 192.344 224.293L191.96 225.386C191.27 224.968 190.675 224.397 190.217 223.711C189.76 223.026 189.451 222.243 189.312 221.419C189.215 220.586 189.327 219.742 189.636 218.969C189.958 218.18 190.542 217.542 191.278 217.173C192.675 216.596 194.198 216.442 195.674 216.728C197.091 216.935 198.481 217.311 199.818 217.848Z" fill="#263238"/>
<path d="M170.306 211.716L164.904 250.059C164.904 250.059 126.118 243.099 119.782 235.443C113.447 227.787 106.999 197.358 103.894 182.025C100.79 166.692 108.886 161.89 117.836 174.633C126.786 187.377 136.974 206.796 139.344 207.937C141.714 209.078 170.306 211.716 170.306 211.716Z" fill="#04C269"/>
<path opacity="0.1" d="M154.723 247.999C142.767 245.375 124.019 240.572 119.782 235.471C113.44 227.815 107.006 197.386 103.894 182.06C102.319 174.244 103.649 169.163 106.542 167.757C113.262 178.691 140.748 223.465 154.723 247.999Z" fill="black"/>
<path d="M174.854 211.361C174.761 211.152 163.752 209.141 163.752 209.141C163.752 209.141 153.822 227.592 153.822 229.805C153.822 232.018 153.604 248.827 153.769 249.035C153.935 249.244 167.162 252.891 167.433 252.515C167.704 252.14 168.598 234.016 168.644 232.631C168.691 231.246 174.854 211.361 174.854 211.361Z" fill="#04C269"/>
<path opacity="0.2" d="M174.854 211.361C174.761 211.152 163.752 209.141 163.752 209.141C163.752 209.141 153.822 227.592 153.822 229.805C153.822 232.018 153.604 248.827 153.769 249.035C153.935 249.244 167.162 252.891 167.433 252.515C167.704 252.14 168.598 234.016 168.644 232.631C168.691 231.246 174.854 211.361 174.854 211.361Z" fill="black"/>
<path d="M133.492 283.342L125.548 237.691C125.548 237.691 133.492 230.035 132.672 216.366C132.235 209.002 119.537 182.645 112.732 173.416C106.344 164.764 92.5411 165.231 84.0277 176.088C56.5349 211.153 48.0414 257.687 44.5063 283.342H133.492Z" fill="#04C269"/>
<path d="M93.0574 175.351C95.2916 178.084 97.9843 180.363 101.001 182.074C103.976 183.82 107.286 184.838 110.686 185.053C112.378 185.13 114.073 185.004 115.737 184.677L116.975 184.392H117.108C117.167 184.395 117.223 184.414 117.273 184.447C117.306 184.468 117.335 184.494 117.359 184.524L117.399 184.58C117.437 184.633 117.473 184.689 117.505 184.747L117.671 185.053C117.776 185.262 117.869 185.463 117.962 185.672C118.326 186.5 118.657 187.336 118.975 188.171C120.228 191.534 121.308 194.966 122.212 198.451C123.131 201.932 123.856 205.467 124.383 209.037C124.915 212.614 125.136 216.234 125.045 219.853C124.993 223.495 124.373 227.104 123.211 230.536C122.039 233.996 119.943 237.026 117.174 239.264L117.293 238.986L119.663 261.105L121.94 283.238L119.292 261.153L116.73 239.055V238.881L116.863 238.777C119.547 236.6 121.574 233.654 122.702 230.293C123.832 226.926 124.429 223.388 124.469 219.818C124.622 212.663 123.437 205.522 121.669 198.604C120.779 195.141 119.714 191.73 118.478 188.387C118.167 187.551 117.816 186.723 117.485 185.916C117.392 185.714 117.306 185.512 117.207 185.317C117.161 185.227 117.114 185.129 117.061 185.039C117.009 184.948 117.009 184.955 116.995 184.928C117.036 184.952 117.081 184.967 117.128 184.969L115.857 185.255C114.149 185.572 112.411 185.675 110.68 185.561C107.208 185.297 103.84 184.2 100.836 182.352C97.8564 180.54 95.2196 178.167 93.0574 175.351Z" fill="#263238"/>
<path d="M101.286 203.454C101.286 203.867 101.169 204.271 100.951 204.614C100.733 204.958 100.423 205.225 100.06 205.383C99.6971 205.541 99.2978 205.583 98.9125 205.502C98.5273 205.422 98.1734 205.223 97.8956 204.931C97.6179 204.639 97.4288 204.267 97.3521 203.862C97.2755 203.457 97.3148 203.037 97.4651 202.655C97.6155 202.274 97.87 201.948 98.1966 201.718C98.5232 201.489 98.9072 201.366 99.3 201.366C99.8267 201.366 100.332 201.586 100.704 201.978C101.077 202.369 101.286 202.9 101.286 203.454Z" fill="#263238"/>
<path d="M120.014 204.54C120.014 204.953 119.898 205.357 119.679 205.7C119.461 206.044 119.151 206.311 118.788 206.469C118.425 206.627 118.026 206.669 117.641 206.588C117.255 206.507 116.901 206.309 116.624 206.017C116.346 205.725 116.157 205.353 116.08 204.947C116.004 204.542 116.043 204.123 116.193 203.741C116.343 203.36 116.598 203.033 116.925 202.804C117.251 202.575 117.635 202.452 118.028 202.452C118.555 202.452 119.06 202.672 119.432 203.064C119.805 203.455 120.014 203.986 120.014 204.54Z" fill="#263238"/>
<path d="M98.638 219.059C98.638 219.472 98.5215 219.875 98.3033 220.219C98.0851 220.562 97.7749 220.83 97.412 220.988C97.0491 221.146 96.6498 221.187 96.2646 221.107C95.8793 221.026 95.5254 220.827 95.2477 220.535C94.97 220.243 94.7808 219.871 94.7042 219.466C94.6275 219.061 94.6669 218.641 94.8172 218.26C94.9675 217.878 95.2221 217.552 95.5486 217.323C95.8752 217.093 96.2592 216.971 96.652 216.971C97.1787 216.971 97.6839 217.191 98.0563 217.582C98.4288 217.974 98.638 218.505 98.638 219.059Z" fill="#263238"/>
<path d="M92.4085 237.691C92.4085 238.104 92.292 238.507 92.0738 238.851C91.8556 239.194 91.5454 239.462 91.1825 239.62C90.8196 239.778 90.4203 239.819 90.0351 239.738C89.6498 239.658 89.296 239.459 89.0182 239.167C88.7405 238.875 88.5513 238.503 88.4747 238.098C88.3981 237.693 88.4374 237.273 88.5877 236.891C88.738 236.51 88.9926 236.184 89.3192 235.954C89.6458 235.725 90.0297 235.603 90.4225 235.603C90.9492 235.603 91.4544 235.823 91.8268 236.214C92.1993 236.606 92.4085 237.137 92.4085 237.691Z" fill="#263238"/>
<path d="M91.773 256.037C91.773 256.45 91.6565 256.854 91.4383 257.197C91.2201 257.541 90.9099 257.808 90.547 257.966C90.1841 258.124 89.7848 258.166 89.3996 258.085C89.0143 258.005 88.6605 257.806 88.3827 257.514C88.105 257.222 87.9158 256.85 87.8392 256.445C87.7626 256.04 87.8019 255.62 87.9522 255.238C88.1025 254.857 88.3571 254.531 88.6837 254.301C89.0103 254.072 89.3942 253.949 89.787 253.949C90.3138 253.949 90.8189 254.169 91.1913 254.561C91.5638 254.952 91.773 255.483 91.773 256.037Z" fill="#263238"/>
<path d="M118.855 220.632C118.855 221.045 118.739 221.449 118.521 221.792C118.303 222.135 117.992 222.403 117.629 222.561C117.267 222.719 116.867 222.76 116.482 222.68C116.097 222.599 115.743 222.4 115.465 222.108C115.187 221.816 114.998 221.444 114.922 221.039C114.845 220.634 114.884 220.214 115.035 219.833C115.185 219.451 115.439 219.125 115.766 218.896C116.093 218.666 116.477 218.544 116.869 218.544C117.396 218.544 117.901 218.764 118.274 219.156C118.646 219.547 118.855 220.078 118.855 220.632Z" fill="#263238"/>
<path d="M112.5 255.648C112.5 256.061 112.384 256.464 112.166 256.808C111.947 257.151 111.637 257.419 111.274 257.577C110.911 257.735 110.512 257.776 110.127 257.695C109.742 257.615 109.388 257.416 109.11 257.124C108.832 256.832 108.643 256.46 108.566 256.055C108.49 255.65 108.529 255.23 108.679 254.849C108.83 254.467 109.084 254.141 109.411 253.911C109.738 253.682 110.122 253.56 110.514 253.56C111.041 253.56 111.546 253.78 111.919 254.171C112.291 254.563 112.5 255.094 112.5 255.648Z" fill="#263238"/>
<path d="M90.866 276.319C91.9519 276.319 92.8322 275.393 92.8322 274.252C92.8322 273.11 91.9519 272.185 90.866 272.185C89.7802 272.185 88.8999 273.11 88.8999 274.252C88.8999 275.393 89.7802 276.319 90.866 276.319Z" fill="#263238"/>
<path d="M113.559 273.862C113.559 274.275 113.443 274.679 113.225 275.022C113.006 275.366 112.696 275.633 112.333 275.791C111.971 275.95 111.571 275.991 111.186 275.91C110.801 275.83 110.447 275.631 110.169 275.339C109.891 275.047 109.702 274.675 109.626 274.27C109.549 273.865 109.588 273.445 109.739 273.063C109.889 272.682 110.143 272.356 110.47 272.126C110.797 271.897 111.181 271.774 111.573 271.774C112.1 271.774 112.605 271.994 112.978 272.386C113.35 272.778 113.559 273.309 113.559 273.862Z" fill="#263238"/>
<path d="M112.964 238.394C112.964 238.807 112.847 239.21 112.629 239.554C112.411 239.897 112.101 240.165 111.738 240.323C111.375 240.481 110.975 240.522 110.59 240.442C110.205 240.361 109.851 240.162 109.573 239.87C109.296 239.578 109.106 239.206 109.03 238.801C108.953 238.396 108.993 237.976 109.143 237.595C109.293 237.213 109.548 236.887 109.874 236.658C110.201 236.428 110.585 236.306 110.978 236.306C111.504 236.306 112.01 236.526 112.382 236.917C112.754 237.309 112.964 237.84 112.964 238.394Z" fill="#263238"/>
<path d="M114.049 167.263C114.049 167.263 116.697 179.93 114.493 180.529C107.793 182.387 98.6711 173.868 98.0091 172.385C97.8436 172.003 96.8241 161.994 96.0231 154.206C95.52 149.202 95.1294 145.116 95.1294 145.116L114.162 152.549L114.036 166.282L114.049 167.263Z" fill="#EB9481"/>
<path d="M114.188 152.549L114.062 166.282C110.422 165.712 106.936 164.342 103.832 162.262C100.729 160.181 98.0767 157.436 96.0495 154.206C95.5463 149.202 95.1558 145.116 95.1558 145.116L97.539 145.951L114.188 152.549Z" fill="#263238"/>
<path d="M129.712 132.107C132.36 156.057 119.014 160.421 114.102 161.012C109.64 161.555 94.3946 162.794 89.4097 139.262C84.4249 115.731 94.1828 106.864 104.325 105.068C114.466 103.272 127.104 108.158 129.712 132.107Z" fill="#EB9481"/>
<path d="M125.595 130.25C125.07 130.188 124.548 130.097 124.032 129.978C123.471 129.963 122.929 129.756 122.49 129.387C122.374 129.241 122.307 129.059 122.298 128.869C122.29 128.68 122.341 128.492 122.444 128.336C122.695 128.061 123.011 127.861 123.36 127.757C123.709 127.653 124.078 127.649 124.43 127.744C125.163 127.823 125.842 128.185 126.336 128.76C126.445 128.899 126.512 129.068 126.53 129.246C126.548 129.425 126.515 129.605 126.436 129.764C126.357 129.923 126.235 130.054 126.085 130.14C125.935 130.227 125.765 130.265 125.595 130.25Z" fill="#263238"/>
<path d="M109.965 131.307C110.476 131.171 110.98 131.006 111.474 130.813C112.032 130.717 112.543 130.431 112.931 129.999C113.026 129.838 113.067 129.648 113.049 129.459C113.031 129.271 112.955 129.093 112.831 128.955C112.549 128.721 112.213 128.57 111.857 128.518C111.501 128.465 111.138 128.513 110.806 128.656C110.088 128.838 109.46 129.295 109.045 129.936C108.958 130.089 108.916 130.264 108.923 130.442C108.929 130.619 108.984 130.791 109.082 130.936C109.179 131.081 109.314 131.193 109.471 131.259C109.628 131.325 109.799 131.342 109.965 131.307Z" fill="#263238"/>
<path d="M113.679 135.81C113.679 135.748 113.56 135.894 113.566 135.963C113.725 137.592 113.639 139.492 112.242 140.139C112.196 140.139 112.209 140.244 112.242 140.23C113.99 139.854 114.076 137.327 113.679 135.81Z" fill="#263238"/>
<path d="M112.176 134.195C109.654 134.195 109.806 139.478 112.136 139.492C114.466 139.506 114.281 134.216 112.176 134.195Z" fill="#263238"/>
<path d="M111.216 134.509C110.786 134.822 110.369 135.365 109.846 135.435C109.323 135.504 108.753 134.982 108.336 134.46C108.29 134.405 108.25 134.46 108.25 134.523C108.25 135.539 108.667 136.569 109.707 136.688C110.746 136.806 111.302 135.873 111.514 134.85C111.527 134.655 111.368 134.384 111.216 134.509Z" fill="#263238"/>
<path d="M122.351 135.121C122.351 135.059 122.477 135.198 122.477 135.267C122.477 136.91 122.702 138.789 124.125 139.304C124.171 139.304 124.171 139.402 124.125 139.395C122.39 139.2 122.086 136.673 122.351 135.121Z" fill="#263238"/>
<path d="M123.708 133.374C126.217 133.117 126.521 138.406 124.198 138.643C121.874 138.88 121.609 133.59 123.708 133.374Z" fill="#263238"/>
<path d="M124.78 133.632C125.191 133.883 125.615 134.37 126.104 134.37C126.594 134.37 127.031 133.772 127.349 133.201C127.382 133.145 127.428 133.201 127.428 133.256C127.514 134.266 127.263 135.344 126.349 135.595C125.436 135.846 124.847 134.996 124.555 134.001C124.489 133.848 124.608 133.556 124.78 133.632Z" fill="#263238"/>
<path d="M113.718 148.742C114.089 149.132 114.453 149.668 115.042 149.724C115.622 149.721 116.195 149.591 116.724 149.341C116.735 149.335 116.747 149.333 116.759 149.336C116.77 149.338 116.781 149.345 116.789 149.355C116.797 149.364 116.801 149.377 116.801 149.389C116.801 149.402 116.797 149.414 116.79 149.424C116.563 149.742 116.259 149.99 115.909 150.141C115.56 150.291 115.178 150.34 114.804 150.28C114.487 150.19 114.203 150.002 113.988 149.74C113.773 149.478 113.638 149.155 113.599 148.812C113.546 148.714 113.665 148.687 113.718 148.742Z" fill="#263238"/>
<path d="M120.007 142.527C120.007 142.527 120.424 144.963 120.471 146.118C120.471 146.223 120.213 146.285 119.842 146.327C119.842 146.327 119.842 146.327 119.796 146.327C118.86 146.548 117.885 146.494 116.976 146.171C116.068 145.848 115.262 145.269 114.645 144.497C114.631 144.474 114.624 144.447 114.626 144.42C114.628 144.393 114.639 144.368 114.657 144.349C114.675 144.329 114.699 144.317 114.724 144.313C114.75 144.31 114.776 144.316 114.797 144.33C116.241 145.275 117.936 145.704 119.63 145.555C119.69 145.235 118.776 141.413 118.968 141.379C119.826 141.423 120.674 141.587 121.49 141.866C120.755 136.764 119.253 131.83 118.597 126.742C118.596 126.706 118.607 126.671 118.627 126.642C118.647 126.614 118.676 126.593 118.709 126.583C118.741 126.573 118.776 126.576 118.808 126.589C118.839 126.603 118.865 126.627 118.882 126.658C120.802 131.711 121.768 137.558 122.655 142.805C122.755 143.474 120.484 142.68 120.007 142.527Z" fill="#263238"/>
<path d="M119.266 145.819C118.754 146.723 118.029 147.473 117.161 147.997C116.679 148.264 116.132 148.368 115.592 148.296C114.407 148.122 114.268 147.023 114.361 146.055C114.418 145.539 114.533 145.032 114.705 144.545C116.058 145.469 117.655 145.915 119.266 145.819Z" fill="#263238"/>
<path d="M117.174 147.997C116.693 148.264 116.145 148.368 115.605 148.296C114.42 148.122 114.281 147.023 114.374 146.055C115.598 146.034 116.916 146.751 117.174 147.997Z" fill="#FF9CBD"/>
<path d="M89.1449 139.485C93.0044 139.798 93.8848 131.3 93.8848 131.3C93.8848 131.3 101.716 131.3 104.305 119.468C104.305 119.468 104.133 124.98 100.836 129.261C100.836 129.261 114.645 127.722 120.464 115.57C120.464 115.57 118.141 121.758 115.969 123.964C115.969 123.964 121.762 122.259 124.575 117.317C124.575 117.317 126.998 124.333 128.858 126.268C128.858 126.268 128.289 100.864 105.9 103.564C105.9 103.564 91.879 104.539 86.8478 116.211C81.8166 127.883 89.1449 139.485 89.1449 139.485Z" fill="#263238"/>
<path d="M93.2361 140.655C93.2361 140.655 88.0261 133.291 84.8287 135.261C81.6312 137.23 85.6959 148.025 89.5487 149.403C90.0314 149.615 90.5496 149.721 91.0724 149.717C91.5952 149.712 92.1117 149.596 92.5909 149.377C93.0701 149.157 93.5021 148.838 93.8609 148.438C94.2198 148.038 94.4982 147.566 94.6792 147.051L93.2361 140.655Z" fill="#EB9481"/>
<path d="M86.06 138.323C86.046 138.323 86.0325 138.329 86.0226 138.34C86.0127 138.35 86.0071 138.364 86.0071 138.379C86.0071 138.394 86.0127 138.408 86.0226 138.418C86.0325 138.429 86.046 138.435 86.06 138.435C88.7676 139.486 90.2439 142.054 91.3031 144.699C90.4822 143.689 89.3833 143.147 88.0858 144.184C88.0196 144.239 88.0858 144.351 88.1652 144.33C88.6311 144.158 89.136 144.143 89.6104 144.287C90.0847 144.43 90.505 144.725 90.8132 145.13C91.327 145.81 91.7708 146.545 92.1372 147.323C92.2696 147.566 92.6933 147.42 92.594 147.135V147.072C92.5212 143.508 89.7341 138.574 86.06 138.323Z" fill="#263238"/>
<path d="M91.6672 148.248C91.669 148.359 91.6497 148.469 91.6106 148.572C91.5714 148.675 91.5132 148.769 91.4393 148.848C91.3653 148.927 91.2771 148.99 91.1799 149.033C91.0826 149.075 90.9782 149.097 90.8728 149.097C90.7676 149.097 90.6634 149.076 90.5663 149.033C90.4691 148.991 90.3808 148.929 90.3064 148.851C90.232 148.773 90.173 148.68 90.1327 148.578C90.0925 148.475 90.0718 148.366 90.0718 148.255C90.0718 148.145 90.0925 148.035 90.1327 147.933C90.173 147.831 90.232 147.738 90.3064 147.66C90.3808 147.582 90.4691 147.52 90.5663 147.477C90.6634 147.435 90.7676 147.413 90.8728 147.413C91.0835 147.413 91.2855 147.501 91.4345 147.658C91.5835 147.814 91.6672 148.027 91.6672 148.248Z" fill="white"/>
<path d="M89.4164 146.814C89.4177 146.921 89.3888 147.025 89.3333 147.114C89.2778 147.204 89.1982 147.273 89.1048 147.315C89.0114 147.356 88.9084 147.367 88.8089 147.347C88.7094 147.327 88.618 147.275 88.5463 147.2C88.4746 147.125 88.4259 147.029 88.4064 146.924C88.387 146.819 88.3976 146.711 88.437 146.613C88.4764 146.515 88.5428 146.431 88.6276 146.373C88.7125 146.314 88.8119 146.284 88.9133 146.285C89.0467 146.285 89.1747 146.341 89.2691 146.44C89.3634 146.539 89.4164 146.674 89.4164 146.814Z" fill="white"/>
<path d="M86.2785 130.242C86.007 130.055 61.2549 94.2245 59.1365 90.9185C58.1898 89.4499 65.7565 66.5584 78.2881 60.2944C87.331 55.7356 103.768 59.4871 106.8 60.893C110.408 62.5773 124.204 108.806 124.204 108.806L102.65 118.16L86.2785 130.242Z" fill="#04C269"/>
<g opacity="0.1">
<path d="M87.8276 123.478C87.3522 123.051 86.9493 122.543 86.636 121.974C86.2719 121.418 85.9012 120.861 85.5172 120.325C84.7341 119.25 83.8755 118.238 82.9487 117.297C82.2684 116.439 81.3374 115.842 80.3007 115.599C79.8434 115.547 79.3818 115.641 78.9767 115.87C78.7067 115.995 78.4601 116.17 78.2485 116.385C78.1028 116.58 78.0168 116.894 77.8844 117.081C77.8446 117.151 77.9572 117.214 77.9903 117.144C78.0874 116.807 78.3027 116.521 78.5927 116.344C78.8278 116.215 79.0768 116.117 79.3341 116.051C79.8876 115.932 80.4635 116.034 80.9494 116.337C81.8503 116.96 82.6448 117.739 83.2995 118.64C84.0343 119.51 84.7824 120.38 85.5238 121.25C86.2653 122.12 86.8015 123.109 87.7349 123.582C87.8144 123.652 87.907 123.533 87.8276 123.478Z" fill="black"/>
<path d="M90.3829 123.192C88.8471 120.932 87.3024 118.677 85.7489 116.427C84.1055 114.217 82.7084 111.816 81.585 109.272C81.585 109.196 81.4393 109.272 81.4724 109.307C82.4003 111.948 83.6107 114.47 85.0803 116.824C86.6438 119.13 88.3793 121.301 90.2704 123.317C90.2862 123.333 90.3073 123.342 90.329 123.341C90.3507 123.34 90.3713 123.331 90.3863 123.314C90.4012 123.297 90.4092 123.275 90.4086 123.252C90.408 123.229 90.3987 123.208 90.3829 123.192Z" fill="black"/>
<path d="M96.7976 116.233C95.4207 114.34 93.865 112.593 92.3291 110.846C90.9835 109.305 89.4524 107.955 87.7745 106.83C87.7083 106.788 87.6488 106.893 87.7084 106.941C89.3501 108.194 90.5682 109.934 91.9187 111.507C93.3883 113.226 94.8712 114.987 96.4931 116.539C96.533 116.575 96.5841 116.594 96.6365 116.592C96.6888 116.59 96.7387 116.568 96.7766 116.53C96.8145 116.492 96.8376 116.441 96.8414 116.386C96.8453 116.331 96.8297 116.276 96.7976 116.233Z" fill="black"/>
<path d="M102.14 94.3921C101.828 94.2504 101.489 94.183 101.149 94.1947C100.809 94.2064 100.476 94.2969 100.173 94.4598C99.8698 94.6227 99.6048 94.854 99.3967 95.137C99.1887 95.4201 99.0426 95.748 98.9691 96.0973C98.5652 97.8512 99.267 99.8487 99.8297 101.484C100.451 103.259 101.273 104.949 102.279 106.516C103.425 108.281 104.79 109.877 106.337 111.263C106.39 111.319 106.476 111.263 106.423 111.18C104.272 108.706 102.557 105.85 101.359 102.744C100.753 101.225 100.283 99.6498 99.9554 98.0391C99.684 96.6958 99.9554 94.3364 101.763 94.5591C103.477 94.7958 104.345 96.8768 105.622 97.8651C105.622 97.8651 105.682 97.8651 105.622 97.8164C104.358 96.7863 103.722 95.0811 102.14 94.3921Z" fill="black"/>
<path d="M114.784 93.1392C113.983 95.7954 114.05 98.6573 114.976 101.268C115.461 102.724 116.087 104.123 116.843 105.444C117.555 106.855 118.398 108.189 119.359 109.426C119.368 109.436 119.38 109.442 119.394 109.444C119.407 109.445 119.42 109.443 119.432 109.435C119.443 109.428 119.452 109.417 119.457 109.404C119.462 109.391 119.462 109.376 119.458 109.363C118.902 107.971 118.048 106.739 117.472 105.375C116.864 104.008 116.353 102.596 115.943 101.15C115.605 99.8668 115.355 98.5596 115.195 97.2386C115.033 95.9021 115.006 94.5512 115.115 93.2087C115.115 93.0278 114.844 92.9443 114.784 93.1392Z" fill="black"/>
<path d="M111.646 103.495C110.753 101.288 109.711 99.1503 108.528 97.099C108.503 97.0609 108.465 97.034 108.422 97.0234C108.379 97.0129 108.334 97.0195 108.295 97.042C108.256 97.0645 108.227 97.1013 108.213 97.1453C108.198 97.1892 108.2 97.2372 108.217 97.28C109.204 99.4167 110.064 101.616 110.925 103.808C111.785 106.001 112.494 108.235 113.473 110.337C113.507 110.407 113.593 110.337 113.586 110.288C113.222 107.945 112.57 105.662 111.646 103.495Z" fill="black"/>
</g>
<path d="M123.794 103.704C122.344 103.168 104.728 103.892 98.5917 107.88C93.1435 111.395 83.5842 121.278 81.1878 125.392C80.7906 126.088 85.1598 133.368 86.5764 133.994C87.4172 134.363 98.3137 124.208 104.391 120.032C109.574 116.469 122.927 115.16 126.31 114.966C126.826 114.91 124.655 104.01 123.794 103.704Z" fill="#04C269"/>
<path opacity="0.2" d="M123.794 103.704C122.344 103.168 104.728 103.892 98.5917 107.88C93.1435 111.395 83.5842 121.278 81.1878 125.392C80.7906 126.088 85.1598 133.368 86.5764 133.994C87.4172 134.363 98.3137 124.208 104.391 120.032C109.574 116.469 122.927 115.16 126.31 114.966C126.826 114.91 124.655 104.01 123.794 103.704Z" fill="black"/>
<path d="M110.349 183.389C110.349 183.389 109.435 176.805 108.899 176.248C108.363 175.691 100.816 171.905 97.2411 165.94C96.3407 164.437 92.8057 169.761 92.8057 169.761C92.8057 169.761 95.4537 177.369 101.577 181.44C107.701 185.512 115.029 184.67 116.578 183.528C117.081 183.166 115.353 172.163 115.175 172.657C114.726 173.969 114.002 175.159 113.056 176.137C112.785 176.429 113.871 182.881 113.871 182.881L110.349 183.389Z" fill="#04C269"/>
<path d="M84.8949 173.93C72.1183 185.011 33.3648 229.68 35.7943 244.296C37.6016 255.147 48.988 258.39 58.7988 253.824C67.3453 249.85 87.2251 201.868 92.6668 188.4C97.8436 175.552 97.453 163.052 84.8949 173.93Z" fill="#EB9481"/>
<path d="M84.8949 173.93C72.1183 185.011 33.3648 229.68 35.7943 244.296C37.6016 255.147 48.988 258.39 58.7988 253.824C67.3453 249.85 87.2251 201.868 92.6668 188.4C97.8436 175.552 97.453 163.052 84.8949 173.93Z" fill="#04C269"/>
<path d="M91.5812 192.166C91.5891 192.146 91.5893 192.124 91.5819 192.105C91.5744 192.085 91.5599 192.069 91.5415 192.061C91.523 192.053 91.5022 192.053 91.4836 192.06C91.465 192.068 91.4501 192.083 91.4422 192.103C90.0453 195.506 88.6154 198.896 87.1259 202.258C85.6364 205.619 84.2065 209.016 82.7104 212.377C79.7314 219.078 76.5626 225.678 73.2041 232.179C72.264 234.002 71.2975 235.805 70.3376 237.614C69.3777 239.424 68.3516 241.234 67.4248 243.085C67.4248 243.141 67.4711 243.189 67.5042 243.141C68.5436 241.637 69.4902 240.043 70.417 238.47C71.3438 236.897 72.2574 235.338 73.1445 233.745C74.9186 230.564 76.6663 227.355 78.3147 224.098C79.9631 220.841 81.6247 217.465 83.1407 214.096C84.3919 211.368 85.6166 208.605 86.7353 205.807C86.9869 205.431 87.2385 205.048 87.4834 204.659C87.9733 203.872 88.4499 203.072 88.9266 202.271C89.8666 200.705 90.6941 199.077 91.5746 197.49C91.6275 197.392 91.4686 197.281 91.4091 197.386C90.4624 198.945 89.4231 200.455 88.5426 202.042L87.4106 204.032C88.9332 200.107 90.3035 196.147 91.5812 192.166Z" fill="#263238"/>
<path d="M38.8328 250.518C30.4122 240.948 41.4808 230.738 50.1266 230.453C70.4433 229.791 99.9619 235.526 116.24 241.505C121.821 243.551 123.178 277.203 116.856 277.001C105.642 276.695 55.9191 269.93 38.8328 250.518Z" fill="#EB9481"/>
<path d="M108.25 239.104C108.25 239.104 110.382 239.424 121.907 239.159C129.851 238.978 149.387 243.892 158 265.607C161.31 273.959 157.185 280.007 152.293 271.996C148.851 266.352 146.924 262.127 145.309 260.617C145.309 260.617 144.316 270.827 139.397 273.764C135.096 276.338 130.625 278.584 126.018 280.488C125.497 279.68 125.023 278.838 124.602 277.968C122.558 278.946 120.293 279.297 118.067 278.981C115.842 278.665 113.747 277.693 112.024 276.179L108.25 239.104Z" fill="#EB9481"/>
<path d="M129.534 240.266C132.738 243.05 139.464 249.167 143.27 256.148C147.527 263.909 153.736 280.056 148.255 283.292C144.243 285.673 141.357 279.722 141.357 279.722C141.357 279.722 142.582 286.967 138.51 288.283C134.79 289.48 132.824 284.74 132.824 284.74C132.824 284.74 132.824 289.264 129.057 289.696C124.502 290.211 125.191 280.648 120.146 276.966C119.014 276.151 129.534 240.266 129.534 240.266Z" fill="#EB9481"/>
<path d="M134.724 259.51C137.325 262.677 141.476 271.468 141.449 279.569C141.449 279.757 141.31 279.854 141.277 279.687C139.855 272.718 137.632 265.957 134.657 259.552C134.631 259.51 134.697 259.476 134.724 259.51Z" fill="#263238"/>
<path d="M127.402 264.257C129.388 267.229 133.274 276.493 132.976 284.706C132.976 284.887 132.83 284.977 132.804 284.803C131.723 277.77 129.887 270.889 127.329 264.292C127.309 264.25 127.375 264.215 127.402 264.257Z" fill="#263238"/>
<path d="M106.059 234.461L99.9288 257.429L99.0086 279.096C99.0086 279.096 34.1326 261.981 35.7148 243.078C36.2576 236.702 42.0435 228.211 55.5748 227.724C69.106 227.237 106.059 234.461 106.059 234.461Z" fill="#04C269"/>
<path d="M106.238 235.011C104.834 234.594 103.457 234.113 102.041 233.731C100.624 233.348 99.2803 232.993 97.8901 232.659C95.0964 231.963 92.2564 231.434 89.4297 230.94C83.8348 229.956 78.1962 229.271 72.5355 228.886C70.4634 228.19 68.3185 227.696 66.2134 227.098C66.1538 227.098 66.1405 227.181 66.2134 227.202C67.9346 227.717 69.6425 228.323 71.3703 228.817C70.0463 228.733 68.7223 228.657 67.4381 228.608C65.8493 228.538 64.2538 228.608 62.665 228.608C62.6121 228.608 62.6055 228.712 62.665 228.712C64.0751 228.789 65.4918 228.97 66.8952 229.109C68.2987 229.248 69.7815 229.36 71.2181 229.506C74.0779 229.798 76.9311 230.125 79.7711 230.515C85.4378 231.301 91.1046 232.206 96.7051 233.389C98.274 233.724 99.8496 234.016 101.419 234.35C102.987 234.684 104.616 234.969 106.198 235.338C106.37 235.345 106.41 235.06 106.238 235.011Z" fill="#263238"/>
<path d="M97.3736 278.553C94.666 277.718 91.9915 276.778 89.2906 275.915C86.5896 275.052 83.8555 274.147 81.1678 273.18C75.7593 271.245 70.4368 269.08 65.0878 266.972C61.9897 265.747 58.8518 264.647 55.7536 263.429C55.6742 263.394 55.6146 263.519 55.7007 263.554C57.0247 264.153 58.4083 264.793 59.7587 265.419C61.1092 266.046 62.4067 266.603 63.7307 267.208C66.3787 268.426 69.1062 269.561 71.8071 270.688C77.1225 272.919 82.5424 274.863 88.046 276.514C91.1177 277.432 94.2225 278.121 97.3471 278.776C97.4729 278.804 97.4994 278.588 97.3736 278.553Z" fill="#263238"/>
<path d="M109.382 234.552C109.276 234.315 97.625 232.589 97.625 232.589C97.625 232.589 88.357 253.886 88.4894 256.371C88.6218 258.856 89.4096 277.836 89.595 278.059C89.7803 278.281 103.854 281.754 104.119 281.302C104.384 280.85 104.212 260.387 104.179 258.814C104.146 257.241 109.382 234.552 109.382 234.552Z" fill="#04C269"/>
<path opacity="0.2" d="M109.316 234.552C109.21 234.315 97.5524 232.631 97.5524 232.631C97.5524 232.631 88.3307 253.956 88.4896 256.448C88.6485 258.94 89.4693 277.906 89.6547 278.128C89.8401 278.351 103.927 281.775 104.219 281.323C104.51 280.871 104.252 260.408 104.219 258.835C104.186 257.262 109.316 234.552 109.316 234.552Z" fill="black"/>
<path d="M296.622 267.911V297.651C296.622 299.739 295.868 301.514 294.948 301.514H284.064H273.168C272.248 301.514 271.506 299.795 271.506 297.672V267.911C271.506 265.788 272.248 264.069 273.168 264.069H274.174V261.285H284.064H293.941V264.069H294.948C295.868 264.069 296.622 265.788 296.622 267.911Z" fill="#04C269"/>
<path d="M294.63 256.713H273.466V261.717H294.63V256.713Z" fill="#37474F"/>
<path d="M296.622 274.217H271.506V293.002H296.622V274.217Z" fill="#EBEBEB"/>
<path d="M268.712 296.273C268.712 300.171 267.322 301.514 266.614 301.514H260.384H254.539C253.831 301.514 252.434 300.178 252.427 296.273C252.427 291.652 255.572 288.881 255.572 286.348C255.572 284.705 254.056 279.59 254.705 279.59H266.389C267.051 279.59 265.541 284.698 265.541 286.348C265.548 288.888 268.706 291.624 268.712 296.273Z" fill="#C7C7C7"/>
<path d="M255.601 276.194L265.445 276.18C265.822 276.179 266.184 276.336 266.452 276.617C266.719 276.897 266.869 277.277 266.87 277.674L266.874 280.716C266.874 280.743 266.864 280.77 266.845 280.789C266.826 280.809 266.801 280.82 266.775 280.82L254.283 280.838C254.256 280.838 254.231 280.828 254.213 280.808C254.194 280.788 254.183 280.762 254.183 280.734L254.179 277.693C254.179 277.296 254.328 276.915 254.595 276.634C254.861 276.353 255.223 276.195 255.601 276.194Z" fill="#37474F"/>
<path d="M74.0777 270.306L71.251 267.912C73.4091 265.086 75.885 261.474 76.2756 260.339C75.8519 257.479 73.3098 248.034 71.6945 246.718H61.1025V242.904H71.8799C77.0236 242.904 79.8702 259.935 79.8901 260.109C79.9894 260.771 80.1748 262.337 74.0777 270.306Z" fill="#EBEBEB"/>
<path d="M55.6875 295.564C37.3699 295.564 32.9411 283.036 34.7484 274.266C36.5557 265.496 49.3455 257.959 49.4978 255.091C49.65 252.224 49.4978 239.348 48.8358 238.471C48.1738 237.594 43.9833 235.895 42.8778 235.895C41.7722 235.895 41.7391 234.42 42.8778 234.42H63.9956C65.1342 234.42 65.1342 235.895 63.9956 235.895C62.8569 235.895 62.142 237.364 61.9434 238.916C61.7977 240.009 61.5925 252.704 61.897 255.091C62.2611 257.931 74.8259 265.482 76.6464 274.266C78.4669 283.049 73.9984 295.564 55.6875 295.564Z" fill="#EBEBEB"/>
<path d="M55.2372 292.598C39.8325 292.598 36.112 282.075 37.628 274.697C39.144 267.32 52.0993 259.058 51.8478 256.664C51.8014 256.198 51.7683 246.802 51.7485 245.82H59.421C59.421 246.843 59.474 256.26 59.527 256.664C59.8381 259.051 71.3039 267.306 72.8398 274.697C74.3756 282.089 70.6353 292.598 55.2372 292.598Z" fill="#04C269"/>
<path d="M126.164 294.673C126.136 295.75 125.896 296.809 125.458 297.783C125.021 298.757 124.395 299.625 123.622 300.331C120.312 303.637 114.539 305.482 108.482 305.162C104.378 304.939 99.075 303.074 93.9577 301.236C88.8405 299.399 83.849 297.652 80.4794 297.687L40.6138 298.076V295.508H41.5472V297.095L80.4794 296.712C84.0079 296.677 88.9861 298.445 94.2622 300.317C99.3265 302.113 104.556 303.971 108.535 304.187C114.347 304.5 119.882 302.753 122.98 299.628C123.662 299.015 124.215 298.258 124.604 297.408C124.992 296.557 125.208 295.63 125.237 294.687L126.164 294.673Z" fill="#A6A6A6"/>
<path d="M125.78 292.403C126.043 293.128 126.182 293.896 126.19 294.672H125.257C125.207 293.734 124.972 292.817 124.569 291.979C124.166 291.141 123.602 290.399 122.913 289.8C119.762 286.745 114.195 285.102 108.389 285.534C104.417 285.819 99.2139 287.782 94.1827 289.71C88.9462 291.686 84.0011 293.552 80.466 293.579L41.5404 293.962V295.549H40.5938V292.988L80.4528 292.598C83.8223 292.598 88.7013 290.726 93.8649 288.777C99.0285 286.828 104.219 284.873 108.316 284.601C114.374 284.156 120.232 285.896 123.542 289.132C124.517 290.028 125.282 291.147 125.78 292.403Z" fill="#A6A6A6"/>
<path d="M126.164 294.673C126.15 295.204 126.03 295.726 125.812 296.206C125.594 296.685 125.284 297.111 124.9 297.457C122.185 300.241 115.572 301.988 108.456 301.765C104.378 301.633 99.0949 300.429 93.9909 299.259C88.8868 298.09 83.8689 296.942 80.4728 296.977L40.6072 297.366V295.522H41.5406V296.385L80.4728 296.002C83.9748 295.967 88.9398 297.102 94.1961 298.306C99.2604 299.468 104.497 300.665 108.495 300.791C115.268 301.006 121.735 299.35 124.257 296.761C124.549 296.502 124.786 296.184 124.955 295.824C125.123 295.465 125.219 295.073 125.237 294.673H126.164Z" fill="#A6A6A6"/>
<path d="M125.972 293.594C126.098 293.938 126.163 294.304 126.164 294.673V295.16L40.5938 296.002V293.663L80.4594 293.274C83.8554 293.239 88.7476 292.021 93.9311 290.733C99.0153 289.46 104.278 288.151 108.356 287.949C115.466 287.587 122.106 289.181 124.873 291.93C125.353 292.392 125.728 292.96 125.972 293.594ZM125.171 294.192C124.995 293.589 124.662 293.049 124.211 292.633C121.656 290.1 115.148 288.576 108.383 288.924C104.411 289.126 99.1741 290.427 94.1231 291.708C88.8933 293.009 83.9547 294.241 80.4461 294.276L41.5206 294.659V295.028L125.171 294.192Z" fill="#A6A6A6"/>
<path d="M38.8131 299.74L70.2846 299.433L70.2052 291.005L38.5549 291.318L38.8131 299.74Z" fill="#37474F"/>
</svg>
