<svg width="721" height="658" viewBox="0 0 721 658" fill="none" xmlns="http://www.w3.org/2000/svg">
<g clip-path="url(#clip0_450_2)">
<path d="M116.706 448.667C129.662 448.667 140.165 439.031 140.165 427.145C140.165 415.258 129.662 405.623 116.706 405.623C103.751 405.623 93.248 415.258 93.248 427.145C93.248 439.031 103.751 448.667 116.706 448.667Z" fill="#E0E0E0"/>
<path d="M179.058 442.006C188.219 433.601 188.219 419.974 179.058 411.569C169.897 403.164 155.044 403.164 145.883 411.569C136.721 419.974 136.721 433.601 145.883 442.006C155.044 450.411 169.897 450.411 179.058 442.006Z" fill="#EBEBEB"/>
<path d="M87.5338 442.01C96.6948 433.605 96.6948 419.978 87.5338 411.573C78.3727 403.168 63.5197 403.168 54.3586 411.573C45.1975 419.978 45.1975 433.605 54.3586 442.01C63.5197 450.415 78.3727 450.415 87.5338 442.01Z" fill="#EBEBEB"/>
<path d="M39.7729 431.417H192.996C192.996 431.417 191.463 489.377 150.292 496.462L149.634 508.734H80.6834V496.209C80.6834 496.209 39.7729 486.649 39.7729 431.417Z" fill="#E0E0E0"/>
<path d="M150.278 496.462C150.278 496.673 134.634 496.828 115.343 496.828C96.0522 496.828 80.4082 496.673 80.4082 496.462C80.4082 496.251 96.0522 496.097 115.343 496.097C134.634 496.097 150.278 496.265 150.278 496.462Z" fill="white"/>
<path d="M187.051 461.276C187.051 461.276 186.714 461.276 186.071 461.388L183.175 461.613C179.46 461.945 175.713 461.779 172.051 461.121C169.394 460.629 166.856 459.7 164.558 458.38C161.807 456.789 159.606 454.512 158.215 451.815C157.48 450.289 157.114 448.634 157.142 446.965C157.207 445.171 157.882 443.441 159.073 442.017C159.71 441.269 160.528 440.667 161.463 440.26C162.429 439.885 163.487 439.754 164.528 439.88C165.608 440.074 166.628 440.485 167.515 441.083C168.403 441.681 169.135 442.451 169.661 443.338C170.719 445.216 171.034 447.373 170.549 449.439C170.076 451.558 169.183 453.578 167.914 455.4C165.208 459.274 161.201 462.235 156.499 463.834C151.461 465.548 145.916 465.518 140.901 463.75C138.287 462.832 135.877 461.484 133.791 459.772C131.561 458.061 129.891 455.818 128.965 453.291C128.536 451.956 128.536 450.536 128.965 449.2C129.395 447.81 130.409 446.632 131.784 445.925C133.222 445.339 134.829 445.195 136.364 445.514C137.899 445.834 139.28 446.599 140.303 447.696C142.29 449.904 143.53 452.596 143.873 455.442C144.348 458.287 144.255 461.188 143.597 464.003C142.298 469.835 138.785 475.056 133.684 478.735C131.067 480.575 128.077 481.918 124.889 482.685C121.65 483.427 118.293 483.632 114.975 483.29C108.315 482.679 102.16 479.757 97.7685 475.122C95.6207 472.849 94.1669 470.094 93.5548 467.138C92.9687 464.177 93.673 461.123 95.5161 458.633C96.3692 457.375 97.5593 456.339 98.9728 455.623C100.386 454.907 101.976 454.535 103.591 454.542C105.18 454.623 106.716 455.092 108.042 455.9C109.367 456.708 110.433 457.826 111.129 459.139C111.775 460.467 111.883 461.962 111.436 463.356C110.983 464.716 110.148 465.943 109.015 466.913C106.812 468.743 104.139 470.029 101.247 470.652C95.9394 471.987 90.3465 472.041 85.0097 470.809C79.673 469.578 74.7735 467.103 70.7859 463.623C68.9589 461.985 67.5465 459.998 66.6489 457.804C65.7893 455.665 65.6452 453.34 66.2352 451.126C66.7584 448.968 68.0927 447.047 70.0045 445.7C71.8887 444.475 74.2188 443.971 76.5011 444.294C78.6879 444.543 80.6884 445.549 82.0938 447.106C83.4027 448.587 84.1312 450.429 84.1623 452.335C84.17 454.133 83.5409 455.884 82.3696 457.326C81.2806 458.655 79.9099 459.77 78.3398 460.601C75.5375 462.061 72.5102 463.123 69.361 463.75C66.7445 464.324 64.0872 464.728 61.4087 464.959C57.7 465.303 53.9628 465.303 50.2541 464.959C47.7259 464.692 46.4082 464.425 46.4082 464.425C46.4082 464.425 46.7453 464.425 47.4042 464.523C48.063 464.621 49.013 464.706 50.2694 464.804C53.9663 465.105 57.686 465.081 61.3781 464.734C64.0363 464.475 66.6726 464.052 69.269 463.469C72.3722 462.848 75.3536 461.796 78.11 460.348C79.6267 459.54 80.9504 458.459 82.0018 457.171C83.1014 455.804 83.6875 454.147 83.672 452.448C83.6284 450.647 82.933 448.911 81.6954 447.514C80.3683 446.06 78.4907 445.121 76.4399 444.885C74.2755 444.606 72.0779 445.11 70.3109 446.29C68.5302 447.571 67.2899 449.38 66.8021 451.407C66.2428 453.516 66.3869 455.729 67.2158 457.761C68.0884 459.88 69.453 461.799 71.215 463.384C75.1359 466.763 79.938 469.159 85.1597 470.343C90.3813 471.527 95.8472 471.459 101.032 470.146C103.799 469.545 106.356 468.312 108.463 466.561C109.5 465.675 110.265 464.556 110.685 463.314C111.082 462.067 110.978 460.73 110.394 459.547C109.767 458.344 108.799 457.317 107.591 456.576C106.384 455.834 104.981 455.403 103.53 455.329C102.06 455.275 100.606 455.618 99.3466 456.313C98.0551 457.014 96.9546 457.976 96.129 459.125C94.4033 461.464 93.7484 464.332 94.3056 467.11C94.9029 469.935 96.2977 472.567 98.3507 474.743C102.612 479.233 108.58 482.064 115.037 482.657C118.257 482.983 121.515 482.784 124.659 482.067C127.746 481.313 130.641 480.009 133.178 478.229C138.185 474.619 141.616 469.482 142.847 463.75C143.488 461.019 143.582 458.204 143.122 455.442C142.795 452.738 141.631 450.177 139.767 448.062C138.854 447.066 137.615 446.368 136.234 446.072C134.853 445.775 133.405 445.896 132.106 446.417C130.918 447.023 130.038 448.033 129.654 449.229C129.263 450.44 129.263 451.729 129.654 452.94C130.549 455.345 132.137 457.482 134.251 459.125C136.28 460.776 138.615 462.081 141.146 462.977C146.007 464.735 151.401 464.805 156.315 463.174C160.89 461.614 164.792 458.739 167.439 454.978C168.678 453.224 169.55 451.275 170.013 449.229C170.478 447.285 170.196 445.254 169.216 443.479C168.737 442.656 168.065 441.941 167.249 441.385C166.434 440.828 165.494 440.444 164.497 440.26C163.538 440.125 162.556 440.237 161.662 440.583C160.805 440.958 160.051 441.506 159.456 442.186C158.317 443.529 157.669 445.166 157.602 446.867C157.56 448.47 157.9 450.063 158.598 451.534C159.934 454.17 162.06 456.402 164.727 457.972C166.969 459.317 169.462 460.27 172.081 460.784C175.714 461.468 179.432 461.681 183.129 461.416L186.009 461.262C186.714 461.276 187.051 461.276 187.051 461.276Z" fill="white"/>
<path d="M647.945 183.331C647.347 185.172 637.143 199.932 622.418 204.951C607.693 209.97 596.753 215.522 600.844 222.129C604.935 228.736 623.016 225.138 623.016 225.138C623.016 225.138 586.319 261.687 620.871 282.647C662.992 308.161 707.058 216.872 707.058 216.872L647.945 183.331Z" fill="#EBEBEB"/>
<path d="M700.071 229.397C699.964 229.566 686.082 221.975 669.059 212.444C652.036 202.913 638.338 195.026 638.414 194.858C638.491 194.689 652.419 202.28 669.427 211.811C686.434 221.342 700.194 229.228 700.071 229.397Z" fill="#E0E0E0"/>
<path d="M693.559 240.348C693.437 240.517 678.436 232.434 660.049 222.313C641.663 212.191 626.846 203.813 626.953 203.644C627.06 203.476 642.076 211.545 660.463 221.68C678.85 231.815 693.666 240.236 693.559 240.348Z" fill="#E0E0E0"/>
<path d="M685.684 250.722C685.577 250.891 668.722 241.796 648.068 230.409C627.414 219.022 610.743 209.646 610.85 209.477C610.957 209.309 627.812 218.39 648.482 229.776C669.151 241.163 685.791 250.539 685.684 250.722Z" fill="#E0E0E0"/>
<path d="M675.862 263.557C675.739 263.726 662.685 256.416 646.75 247.236C630.814 238.056 617.898 230.479 618.02 230.367C618.143 230.255 631.182 237.508 647.133 246.688C663.083 255.867 675.969 263.388 675.862 263.557Z" fill="#E0E0E0"/>
<path d="M664.309 275.941C664.186 276.11 652.051 268.913 637.158 259.874C622.265 250.835 610.329 243.356 610.528 243.187C610.727 243.019 622.786 250.216 637.679 259.269C652.572 268.322 664.432 275.773 664.309 275.941Z" fill="#E0E0E0"/>
<path d="M649.569 284.544C648.93 284.339 648.314 284.075 647.731 283.757C646.566 283.195 644.911 282.351 642.874 281.311C638.798 279.217 633.251 276.194 627.245 272.666C621.239 269.137 615.922 265.764 612.137 263.247C610.252 261.982 608.736 260.942 607.709 260.211C607.151 259.861 606.638 259.455 606.177 259.002C606.787 259.272 607.367 259.597 607.908 259.972L612.505 262.783C616.366 265.187 621.698 268.491 627.72 272.019C633.742 275.548 639.212 278.626 643.211 280.847L647.93 283.476C648.512 283.784 649.061 284.142 649.569 284.544Z" fill="#E0E0E0"/>
<path d="M615.017 225.981C612.103 225.295 609.347 224.133 606.881 222.551C604.275 221.174 601.965 219.374 600.062 217.237C600.216 217.068 603.127 219.543 607.31 221.932C611.493 224.322 615.124 225.77 615.017 225.981Z" fill="#E0E0E0"/>
<path d="M704.269 214.932C704.138 215.221 703.963 215.491 703.748 215.733L702.109 217.912C700.684 219.81 698.569 222.523 695.98 225.841C690.694 232.504 683.232 241.599 674.712 251.44C666.193 261.28 658.21 270.009 652.342 276.251C649.415 279.372 647.01 281.874 645.324 283.575C644.528 284.376 643.884 284.981 643.378 285.529C643.164 285.772 642.923 285.993 642.658 286.19C642.828 285.923 643.028 285.673 643.256 285.445L645.094 283.392L651.898 275.942C657.659 269.63 665.55 260.844 674.069 251.018C682.588 241.192 690.111 232.139 695.52 225.56L701.925 217.772L703.671 215.677C703.849 215.415 704.049 215.166 704.269 214.932Z" fill="#E0E0E0"/>
<path d="M692.334 207.158C692.502 207.284 677.869 224.8 659.651 246.28C641.433 267.76 626.524 285.079 626.341 284.952C626.157 284.826 640.805 267.324 659.023 245.83C677.241 224.336 692.165 207.031 692.334 207.158Z" fill="#E0E0E0"/>
<path d="M675.678 198.499C675.548 198.801 675.389 199.093 675.203 199.37L673.671 201.788C672.353 203.883 670.361 206.877 667.803 210.504C662.685 217.771 655.085 227.485 646.122 237.817C637.158 248.15 628.685 257.217 622.571 263.796L615.293 271.541L613.271 273.636C613.048 273.885 612.802 274.115 612.535 274.325C612.719 274.05 612.924 273.787 613.148 273.538L615.048 271.359L622.142 263.458C628.149 256.795 636.545 247.672 645.493 237.354C654.442 227.035 662.103 217.392 667.328 210.208C669.948 206.624 672.001 203.686 673.457 201.633L675.081 199.286C675.247 199.003 675.447 198.739 675.678 198.499Z" fill="#E0E0E0"/>
<path d="M662.011 191.315C662.179 191.442 649.753 206.582 634.155 225.138C618.557 243.694 605.931 258.637 605.67 258.51C605.41 258.384 617.928 243.244 633.526 224.674C649.124 206.104 661.827 191.189 662.011 191.315Z" fill="#E0E0E0"/>
<path d="M651.729 185.172C651.349 185.878 650.908 186.555 650.412 187.197C649.983 187.829 649.416 188.602 648.726 189.474C648.037 190.346 647.271 191.358 646.321 192.398C644.16 194.865 641.843 197.212 639.38 199.427C633.328 204.901 626.443 209.541 618.94 213.203C615.882 214.691 612.73 216.01 609.501 217.153C608.138 217.673 606.85 218.025 605.747 218.376C604.803 218.688 603.841 218.956 602.867 219.178C602.05 219.415 601.215 219.598 600.369 219.726C601.143 219.39 601.948 219.117 602.775 218.91C603.556 218.671 604.506 218.39 605.594 217.997C606.682 217.603 607.954 217.224 609.287 216.675C612.461 215.469 615.566 214.113 618.587 212.613C622.273 210.744 625.829 208.669 629.236 206.399C632.615 204.098 635.834 201.605 638.874 198.935C641.347 196.746 643.685 194.432 645.876 192.004C646.857 190.992 647.638 190.008 648.359 189.193C649.079 188.377 649.692 187.604 650.167 186.986C650.628 186.34 651.151 185.733 651.729 185.172Z" fill="#E0E0E0"/>
<path d="M723.192 165H527.267V183.978H723.192V165Z" fill="#E0E0E0"/>
<path d="M589.383 183.331C588.785 185.172 578.581 199.932 563.856 204.951C549.131 209.97 538.191 215.522 542.282 222.129C546.373 228.736 564.454 225.138 564.454 225.138C564.454 225.138 527.757 261.687 562.309 282.647C604.43 308.161 648.45 216.872 648.45 216.872L589.383 183.331Z" fill="#F5F5F5"/>
<path d="M641.51 229.397C641.402 229.566 627.52 221.975 610.497 212.444C593.474 202.913 579.776 195.026 579.853 194.858C579.929 194.689 593.857 202.28 610.865 211.811C627.873 221.342 641.632 229.228 641.51 229.397Z" fill="#E0E0E0"/>
<path d="M635.043 240.348C634.921 240.517 619.92 232.434 601.533 222.312C583.147 212.191 568.284 203.813 568.391 203.686C568.498 203.56 583.514 211.586 601.901 221.722C620.288 231.857 635.043 240.236 635.043 240.348Z" fill="#E0E0E0"/>
<path d="M627.122 250.722C627.014 250.891 610.16 241.796 589.505 230.409C568.851 219.022 552.18 209.646 552.303 209.477C552.425 209.309 569.265 218.39 589.934 229.776C610.604 241.163 627.229 250.539 627.122 250.722Z" fill="#E0E0E0"/>
<path d="M617.3 263.557C617.178 263.726 604.123 256.416 588.188 247.236C572.253 238.056 559.336 230.479 559.459 230.367C559.581 230.255 572.621 237.508 588.571 246.688C604.522 255.867 617.408 263.388 617.3 263.557Z" fill="#E0E0E0"/>
<path d="M605.747 275.941C605.625 276.11 593.49 268.913 578.596 259.874C563.703 250.835 551.767 243.356 551.89 243.187C552.012 243.019 564.147 250.216 579.041 259.269C593.934 268.322 605.931 275.773 605.747 275.941Z" fill="#E0E0E0"/>
<path d="M591.007 284.544C590.368 284.339 589.752 284.075 589.169 283.757C588.004 283.195 586.349 282.351 584.312 281.311C580.236 279.217 574.689 276.194 568.683 272.666C562.677 269.137 557.36 265.764 553.575 263.247C551.69 261.982 550.174 260.942 549.147 260.211C548.589 259.861 548.076 259.455 547.615 259.002C548.225 259.272 548.805 259.597 549.346 259.972L553.943 262.783C557.804 265.187 563.136 268.491 569.158 272.019C575.18 275.548 580.65 278.626 584.633 280.847L589.368 283.476C589.95 283.784 590.499 284.142 591.007 284.544Z" fill="#E0E0E0"/>
<path d="M556.455 225.981C553.541 225.295 550.785 224.133 548.319 222.551C545.714 221.174 543.403 219.374 541.501 217.237C541.654 217.068 544.565 219.543 548.748 221.932C552.931 224.322 556.547 225.77 556.455 225.981Z" fill="#E0E0E0"/>
<path d="M645.769 214.932C645.638 215.221 645.463 215.491 645.248 215.733L643.609 217.912C642.184 219.81 640.069 222.523 637.48 225.841C632.194 232.504 624.732 241.599 616.212 251.44C607.693 261.28 599.588 270.038 593.673 276.279C590.747 279.4 588.341 281.902 586.656 283.603C585.859 284.404 585.216 285.009 584.71 285.557C584.496 285.8 584.254 286.021 583.99 286.218C584.16 285.951 584.36 285.701 584.587 285.473L586.426 283.42L593.244 275.942C599.006 269.63 606.897 260.844 615.416 251.018C623.935 241.192 631.458 232.139 636.867 225.56L643.272 217.772L645.018 215.677C645.245 215.41 645.496 215.16 645.769 214.932Z" fill="#E0E0E0"/>
<path d="M633.772 207.158C633.94 207.284 619.307 224.8 601.089 246.28C582.871 267.76 567.962 285.079 567.779 284.952C567.595 284.826 582.243 267.324 600.461 245.83C618.679 224.336 633.603 207.031 633.772 207.158Z" fill="#E0E0E0"/>
<path d="M617.117 198.499C616.987 198.801 616.828 199.093 616.642 199.37L615.109 201.788C613.792 203.883 611.8 206.877 609.241 210.504C604.123 217.771 596.524 227.485 587.56 237.817C578.597 248.15 570.123 257.217 564.01 263.796L556.732 271.541L554.709 273.636C554.486 273.885 554.24 274.115 553.974 274.325C554.151 274.045 554.356 273.782 554.587 273.538L556.487 271.359L563.581 263.458C569.587 256.795 577.984 247.672 586.932 237.354C595.88 227.035 603.541 217.392 608.766 210.208C611.386 206.624 613.439 203.686 614.895 201.633C615.554 200.663 616.105 199.89 616.519 199.286C616.685 199.003 616.886 198.739 617.117 198.499Z" fill="#E0E0E0"/>
<path d="M603.449 191.315C603.618 191.442 591.191 206.582 575.593 225.138C559.995 243.694 547.293 258.637 547.109 258.51C546.925 258.384 559.367 243.244 574.965 224.674C590.563 206.104 603.265 191.189 603.449 191.315Z" fill="#E0E0E0"/>
<path d="M593.167 185.172C592.787 185.878 592.346 186.555 591.85 187.197C591.421 187.829 590.854 188.602 590.164 189.474C589.475 190.346 588.709 191.358 587.759 192.398C585.598 194.865 583.281 197.212 580.818 199.427C574.766 204.901 567.881 209.541 560.378 213.203C557.319 214.688 554.167 216.007 550.939 217.153C549.576 217.673 548.288 218.025 547.185 218.376C546.241 218.688 545.279 218.956 544.305 219.178C543.488 219.415 542.653 219.598 541.807 219.726C542.581 219.39 543.386 219.117 544.213 218.91C544.994 218.671 545.944 218.39 547.032 217.997C548.12 217.603 549.392 217.224 550.725 216.675C553.899 215.469 557.004 214.113 560.025 212.613C563.713 210.777 567.275 208.735 570.69 206.498C574.069 204.196 577.288 201.703 580.327 199.033C582.801 196.845 585.138 194.531 587.33 192.103C588.31 191.091 589.092 190.107 589.812 189.291C590.532 188.476 591.13 187.703 591.605 187.084C592.063 186.406 592.586 185.766 593.167 185.172Z" fill="#E0E0E0"/>
<path d="M631.612 70.0273H619.078V81.5264H631.612V70.0273Z" fill="#E0E0E0"/>
<path d="M684.029 96.8208H567.243V164.437H684.029V96.8208Z" fill="#F5F5F5"/>
<path d="M567.243 96.8489C567.243 96.8489 585.124 79.7128 629.957 80.4016C674.79 81.0904 684.075 96.8489 684.075 96.8489H567.243Z" fill="#F5F5F5"/>
<path d="M683.585 97.9308C683.585 98.1276 657.322 98.2963 624.946 98.2963C592.57 98.2963 566.308 98.1276 566.308 97.9308C566.308 97.734 592.555 97.5513 624.946 97.5513C657.338 97.5513 683.585 97.72 683.585 97.9308Z" fill="#E0E0E0"/>
<path d="M683.584 97.931H709.969C711.091 97.931 712.167 98.3398 712.96 99.0674C713.753 99.7951 714.198 100.782 714.198 101.811V103.301C714.198 104.33 713.753 105.317 712.96 106.045C712.167 106.772 711.091 107.181 709.969 107.181H683.584V97.917V97.931Z" fill="#E0E0E0"/>
<path d="M567.671 107.181H541.286C540.165 107.181 539.089 106.772 538.296 106.045C537.503 105.317 537.057 104.33 537.057 103.301V101.811C537.057 100.782 537.503 99.7954 538.296 99.0678C539.089 98.3402 540.165 97.9314 541.286 97.9314H567.671V107.195V107.181Z" fill="#E0E0E0"/>
<path d="M638.414 66.7095H612.872C611.197 66.7095 609.838 67.9556 609.838 69.4929V70.5612C609.838 72.0985 611.197 73.3446 612.872 73.3446H638.414C640.09 73.3446 641.448 72.0985 641.448 70.5612V69.4929C641.448 67.9556 640.09 66.7095 638.414 66.7095Z" fill="#E0E0E0"/>
<path d="M718.549 508.411C718.549 508.608 567.273 508.776 380.709 508.776C194.145 508.776 42.8374 508.608 42.8374 508.411C42.8374 508.214 194.084 508.045 380.709 508.045C567.334 508.045 718.549 508.214 718.549 508.411Z" fill="#263238"/>
<path d="M493.956 302.876C493.343 305.28 480.304 414.197 480.304 414.197L468.506 429.59L465.303 453.151L489.819 508.776H308.434C308.434 508.776 305.569 479.382 305.814 471.524C306.059 463.666 310.41 434.834 310.41 434.834L309.997 405.552L303.132 277.924L364.575 259.733C401.7 253.871 456.34 279.414 456.34 279.414L493.956 302.876Z" fill="#04C269"/>
<path d="M470.39 221.694C478.465 221.23 484.655 215.045 489.098 208.845C493.266 203.054 496.759 196.559 496.851 189.629C496.851 183.612 494.277 177.877 491.703 172.338C489.129 166.799 486.356 160.867 482.203 155.989C478.051 151.111 472.167 147.147 465.456 146.388" fill="#263238"/>
<path d="M376.005 250.722L376.097 248.881L380.832 142.536L383.452 136.505L441.432 129.181C445.927 128.86 450.446 129.377 454.717 130.703C458.988 132.028 462.922 134.134 466.281 136.893C469.641 139.652 472.356 143.007 474.263 146.755C476.17 150.503 477.23 154.567 477.378 158.702C478.113 178.059 478.205 201.718 475.263 216.07C469.379 244.86 445.048 247.939 445.048 247.939C445.048 247.939 444.634 255.488 444.174 266.41C443.837 274.648 435.9 298.419 426.906 298.658C423.045 298.757 412.503 295.678 407.477 295.003C375.776 290.758 376.005 250.722 376.005 250.722Z" fill="#FFBE9D"/>
<path d="M466.667 175.486C466.651 176.456 466.222 177.381 465.472 178.064C464.722 178.748 463.71 179.134 462.653 179.141C462.136 179.166 461.619 179.095 461.133 178.934C460.646 178.772 460.2 178.523 459.82 178.201C459.44 177.878 459.135 177.49 458.921 177.057C458.708 176.625 458.591 176.158 458.577 175.683C458.593 174.714 459.022 173.788 459.772 173.105C460.523 172.422 461.535 172.035 462.592 172.028C463.108 172.004 463.625 172.074 464.112 172.236C464.598 172.397 465.044 172.647 465.424 172.969C465.804 173.291 466.11 173.68 466.323 174.112C466.537 174.545 466.654 175.012 466.667 175.486Z" fill="#263238"/>
<path d="M471.417 170.777C470.896 171.255 467.893 169.091 463.526 168.992C459.159 168.894 455.865 170.806 455.451 170.299C455.221 170.089 455.758 169.217 457.183 168.331C459.103 167.174 461.368 166.594 463.664 166.673C465.934 166.722 468.128 167.431 469.931 168.697C471.233 169.681 471.662 170.567 471.417 170.777Z" fill="#263238"/>
<path d="M423.994 175.107C423.978 176.077 423.549 177.002 422.799 177.685C422.049 178.368 421.037 178.755 419.98 178.762C419.463 178.786 418.947 178.716 418.46 178.554C417.974 178.393 417.527 178.143 417.147 177.821C416.768 177.499 416.462 177.11 416.248 176.678C416.035 176.245 415.918 175.778 415.904 175.304C415.92 174.334 416.349 173.409 417.1 172.726C417.85 172.043 418.862 171.656 419.919 171.649C420.435 171.624 420.952 171.695 421.439 171.856C421.925 172.018 422.371 172.267 422.751 172.589C423.131 172.912 423.437 173.301 423.65 173.733C423.864 174.165 423.981 174.632 423.994 175.107Z" fill="#263238"/>
<path d="M428.529 170.44C428.008 170.918 424.99 168.753 420.638 168.655C416.287 168.556 412.977 170.468 412.564 169.962C412.334 169.751 412.87 168.879 414.295 167.994C416.214 166.834 418.48 166.254 420.776 166.335C423.046 166.384 425.24 167.093 427.043 168.359C428.345 169.343 428.774 170.229 428.529 170.44Z" fill="#263238"/>
<path d="M443.515 200.509C443.515 200.284 446.227 199.918 450.64 199.525C451.758 199.44 452.816 199.258 453.03 198.569C453.149 197.514 452.919 196.451 452.371 195.518L449.307 187.66C445.078 176.414 442.029 167.277 442.534 167.122C443.04 166.967 446.855 175.922 451.1 187.112C452.111 189.923 453.091 192.496 454.011 195.012C454.68 196.265 454.843 197.694 454.47 199.047C454.293 199.394 454.033 199.701 453.709 199.944C453.386 200.187 453.007 200.361 452.601 200.452C451.979 200.589 451.34 200.65 450.701 200.635C446.212 200.79 443.515 200.734 443.515 200.509Z" fill="#263238"/>
<path d="M445.047 247.939C430.16 247.768 415.616 243.812 403.034 236.51C403.034 236.51 412.702 256.683 444.404 254.785L445.047 247.939Z" fill="#EB996E"/>
<path d="M441.324 210.11C440.519 209.139 439.458 208.372 438.242 207.88C437.025 207.388 435.692 207.188 434.367 207.299C433.402 207.354 432.458 207.587 431.592 207.983C430.726 208.379 429.956 208.93 429.326 209.604C428.73 210.261 428.366 211.068 428.281 211.919C428.196 212.77 428.395 213.625 428.851 214.37C429.537 215.095 430.442 215.616 431.452 215.867C432.462 216.117 433.53 216.085 434.521 215.775C436.603 215.162 438.531 214.173 440.19 212.865C440.69 212.559 441.122 212.168 441.462 211.713C441.625 211.493 441.712 211.234 441.712 210.968C441.712 210.702 441.625 210.442 441.462 210.223" fill="#EB996E"/>
<path d="M430.537 202.955C431.257 202.955 431.135 207.27 435.134 210.461C439.133 213.652 444.143 213.273 444.174 213.905C444.174 214.173 443.025 214.721 440.88 214.721C438.107 214.689 435.437 213.758 433.341 212.092C431.325 210.496 430.067 208.242 429.832 205.808C429.725 203.981 430.215 202.927 430.537 202.955Z" fill="#263238"/>
<path d="M430.123 154.794C429.664 155.862 425.328 155.244 420.195 155.679C415.062 156.115 410.879 157.282 410.235 156.298C409.944 155.82 410.695 154.892 412.396 153.81C414.661 152.575 417.202 151.83 419.827 151.63C422.453 151.43 425.094 151.782 427.549 152.657C429.403 153.402 430.323 154.274 430.123 154.794Z" fill="#263238"/>
<path d="M470.16 159.152C469.363 160.051 466.391 159.025 462.775 158.899C459.159 158.772 456.079 159.334 455.405 158.364C455.114 157.9 455.619 156.959 456.937 156.171C458.765 155.187 460.87 154.722 462.987 154.834C465.103 154.947 467.135 155.632 468.827 156.804C470.114 157.774 470.513 158.702 470.16 159.152Z" fill="#263238"/>
<path d="M375.698 175.036C369.545 178.497 364.146 182.978 359.778 188.25C354.753 194.028 351.489 201.506 352.745 208.816C354.477 218.952 364.053 226.149 372.956 232.363C378.073 233.037 381.888 227.85 382.685 223.155C383.482 218.46 382.777 213.385 385.198 209.182C387.374 205.414 391.664 203.109 394.529 199.749C399.861 193.508 399.509 184.722 398.207 176.878C396.904 169.034 398.207 157.197 409.193 145.951C409.193 146.05 382.471 155.623 375.698 175.036Z" fill="#263238"/>
<path d="M366.229 201.141C370.826 195.054 369.662 186.128 364.345 180.491C359.028 174.854 350.448 172.408 342.357 173.04C336.474 173.504 330.513 175.627 326.713 179.774C322.913 183.921 321.764 190.317 324.921 194.9C326.667 197.43 329.701 199.82 329.012 202.758C328.322 205.696 324.691 206.638 322.117 208.296C319.905 209.82 318.272 211.943 317.447 214.364C316.622 216.786 316.648 219.384 317.52 221.792C318.473 224.168 320.064 226.285 322.144 227.949C324.225 229.612 326.729 230.768 329.425 231.309C334.877 232.317 340.542 231.382 345.269 228.694C345.269 233.206 350.555 236.651 355.443 236.271C360.33 235.891 364.483 232.616 367.103 228.806C370.623 223.279 372.296 216.924 371.914 210.532C371.53 204.173 370.468 197.863 368.742 191.695" fill="#263238"/>
<path d="M374.32 233.741C374.06 233.63 373.818 233.488 373.6 233.319L371.608 231.997C369.907 230.831 367.44 229.186 364.575 226.824C361.163 224.153 358.149 221.081 355.611 217.687C352.469 213.483 350.65 208.565 350.356 203.475C350.224 200.832 350.677 198.192 351.689 195.715C352.674 193.42 354.13 191.32 355.979 189.53C359.181 186.658 362.716 184.117 366.521 181.953C369.018 180.447 371.399 178.784 373.646 176.976C374.427 176.316 375.009 175.781 375.392 175.402C375.575 175.204 375.78 175.025 376.005 174.868C376.005 174.868 375.852 175.107 375.5 175.5C374.997 176.093 374.45 176.652 373.86 177.173C371.682 179.086 369.335 180.831 366.843 182.388C363.124 184.595 359.663 187.149 356.515 190.008C354.745 191.739 353.356 193.768 352.424 195.982C351.461 198.372 351.029 200.915 351.153 203.461C351.43 208.413 353.167 213.204 356.178 217.321C358.66 220.687 361.594 223.752 364.912 226.445C367.716 228.778 370.122 230.535 371.761 231.773L373.646 233.178C373.892 233.343 374.118 233.531 374.32 233.741Z" fill="#455A64"/>
<path d="M351.796 197.051C351.658 197.121 350.861 195.561 348.839 193.593C346.249 190.987 342.873 189.147 339.14 188.309C335.407 187.47 331.486 187.67 327.878 188.883C325.104 189.783 323.603 190.809 323.526 190.697C323.45 190.584 323.833 190.374 324.522 189.924C325.514 189.314 326.572 188.801 327.679 188.391C331.375 187.009 335.453 186.734 339.33 187.605C343.207 188.476 346.685 190.449 349.268 193.241C350.048 194.07 350.727 194.975 351.29 195.94C351.528 196.281 351.699 196.657 351.796 197.051Z" fill="#455A64"/>
<path d="M327.203 204.754C327.111 204.754 327.678 203.349 329.747 202.168C330.953 201.512 332.284 201.073 333.669 200.875C335.336 200.639 337.024 200.549 338.71 200.607C341.762 200.683 344.791 201.123 347.72 201.915C348.952 202.173 350.131 202.609 351.213 203.208C349.983 203.003 348.765 202.735 347.567 202.407C344.65 201.78 341.673 201.422 338.68 201.338C335.722 201.079 332.742 201.519 330.022 202.618C328.968 203.192 328.017 203.912 327.203 204.754Z" fill="#455A64"/>
<path d="M321.933 227.724C321.933 227.598 324.124 227.64 327.572 227.022C332.042 226.226 336.283 224.589 340.029 222.214C343.736 219.794 346.865 216.704 349.222 213.133C351.03 210.391 351.75 208.48 351.888 208.536C351.822 209.02 351.683 209.493 351.474 209.942C350.985 211.148 350.396 212.318 349.712 213.442C347.447 217.179 344.285 220.395 340.465 222.845C336.645 225.295 332.267 226.916 327.664 227.584C326.28 227.782 324.881 227.881 323.481 227.879C322.959 227.911 322.435 227.859 321.933 227.724Z" fill="#455A64"/>
<path d="M353.328 196.657C353.328 196.586 354.263 197.416 356.193 198.386C358.959 199.708 362.058 200.329 365.172 200.185C367.305 200.116 369.414 199.746 371.424 199.089C373.728 198.296 375.88 197.172 377.798 195.757C382.13 192.41 385.577 188.204 387.88 183.457C390.149 178.675 392.093 173.769 393.702 168.767C395.064 164.662 396.764 160.658 398.789 156.79C400.167 154.18 401.88 151.73 403.892 149.494C404.612 148.721 405.209 148.088 405.638 147.765C405.844 147.567 406.07 147.389 406.313 147.23C406.313 147.23 405.485 148.074 404.137 149.676C402.241 151.957 400.618 154.417 399.295 157.015C397.353 160.889 395.72 164.887 394.407 168.977C392.829 174.019 390.889 178.959 388.6 183.766C386.253 188.622 382.707 192.91 378.242 196.291C376.259 197.732 374.034 198.866 371.654 199.651C369.573 200.315 367.39 200.671 365.188 200.705C361.971 200.817 358.785 200.096 355.994 198.625C355.555 198.409 355.139 198.155 354.753 197.866C354.452 197.678 354.17 197.466 353.91 197.233C353.697 197.058 353.502 196.865 353.328 196.657Z" fill="#455A64"/>
<path d="M398.299 170.538C398.376 170.538 397.748 171.382 397.043 173.026C396.136 175.374 395.619 177.833 395.511 180.322C395.43 184.064 394.973 187.791 394.147 191.456C392.786 195.944 389.989 199.954 386.118 202.969C382.287 206.042 377.501 207.935 372.435 208.381C368.325 208.708 364.19 208.124 360.377 206.68C357.817 205.723 355.454 204.373 353.39 202.688C352.846 202.25 352.334 201.781 351.857 201.282C351.671 201.112 351.507 200.923 351.367 200.72C351.444 200.72 352.133 201.422 353.635 202.519C355.736 204.101 358.1 205.363 360.637 206.258C364.382 207.598 368.418 208.114 372.42 207.762C377.32 207.296 381.941 205.444 385.643 202.463C389.4 199.545 392.13 195.67 393.488 191.329C394.343 187.712 394.855 184.034 395.02 180.336C395.19 177.808 395.8 175.321 396.828 172.97C397.135 172.341 397.494 171.735 397.901 171.157C398.007 170.937 398.141 170.73 398.299 170.538Z" fill="#455A64"/>
<path d="M489.099 206.961C489.099 206.961 489.62 206.525 490.432 205.668C491.598 204.455 492.508 203.054 493.113 201.535C494.015 199.289 494.386 196.893 494.201 194.506C493.928 191.566 493.038 188.702 491.581 186.072C488.516 180.449 484.379 176.133 481.637 172.843C480.547 171.538 479.554 170.166 478.664 168.739C478.305 168.23 478.017 167.682 477.806 167.108C478.231 167.57 478.606 168.069 478.925 168.598C479.614 169.554 480.671 170.918 482.081 172.52C484.9 175.711 489.206 179.999 492.301 185.748C493.799 188.445 494.695 191.389 494.936 194.408C495.097 196.883 494.658 199.36 493.649 201.661C492.943 203.215 491.901 204.621 490.585 205.794C490.236 206.105 489.862 206.392 489.466 206.652C489.267 206.905 489.114 206.989 489.099 206.961Z" fill="#455A64"/>
<path d="M484.564 215.199C486.084 213.698 487.359 212.003 488.348 210.166C489.338 208.15 489.86 205.967 489.88 203.756C489.879 201.043 489.275 198.36 488.103 195.87C486.883 193.369 485.502 190.937 483.966 188.588C482.633 186.367 481.484 184.37 480.549 182.613C479.614 180.856 478.91 179.493 478.45 178.509C478.167 178.011 477.956 177.482 477.822 176.934C478.169 177.377 478.472 177.847 478.726 178.34L481.055 182.332C482.051 184.019 483.246 186.015 484.61 188.222C486.198 190.573 487.611 193.02 488.838 195.546C490.051 198.128 490.657 200.916 490.616 203.728C490.556 206.022 489.966 208.279 488.884 210.349C488.142 211.729 487.164 212.991 485.989 214.088C485.668 214.381 485.33 214.658 484.977 214.918C484.717 215.128 484.579 215.213 484.564 215.199Z" fill="#455A64"/>
<path d="M374.197 178.762C384.693 162.329 399.371 147.048 419.566 142.62C429.423 140.386 439.675 140.027 449.689 141.567C459.703 143.108 469.266 146.513 477.791 151.575V119.172L452.586 44.5266L432.958 34.9956L386.562 59.3432L374.565 149.129L374.197 178.762Z" fill="#04C269"/>
<g opacity="0.7">
<path d="M374.197 178.762C384.693 162.329 399.371 147.048 419.566 142.62C429.423 140.386 439.675 140.027 449.689 141.567C459.703 143.108 469.266 146.513 477.791 151.575V119.172L452.586 44.5266L432.958 34.9956L386.562 59.3432L374.565 149.129L374.197 178.762Z" fill="white"/>
</g>
<path d="M476.826 120.353C476.436 120.228 476.062 120.068 475.707 119.875C474.987 119.551 473.976 118.989 472.643 118.469C468.781 116.742 464.748 115.359 460.599 114.336C454.45 112.809 448.122 111.974 441.753 111.848C437.994 111.769 434.234 111.896 430.491 112.227C426.478 112.502 422.508 113.167 418.647 114.21C411.24 116.447 404.23 119.668 397.839 123.769C392.587 127.066 387.832 130.984 383.697 135.422C380.923 138.444 378.533 141.746 376.572 145.263C375.99 146.486 375.515 147.456 375.147 148.187C375.008 148.541 374.828 148.88 374.611 149.199C374.707 148.836 374.84 148.483 375.009 148.144C375.3 147.456 375.699 146.429 376.296 145.136C378.166 141.55 380.502 138.185 383.253 135.113C387.377 130.59 392.143 126.595 397.426 123.235C403.857 119.059 410.932 115.79 418.417 113.535C422.334 112.484 426.36 111.815 430.43 111.539C434.198 111.213 437.985 111.1 441.768 111.201C448.192 111.361 454.569 112.254 460.753 113.858C464.916 114.936 468.947 116.406 472.781 118.244C474.16 118.849 475.156 119.453 475.845 119.819C476.187 119.973 476.514 120.151 476.826 120.353Z" fill="#263238"/>
<path d="M446.166 111.679C445.951 111.679 442.657 94.6556 438.826 73.5834C434.996 52.5111 432.054 35.4031 432.268 35.375C432.483 35.3469 435.777 52.3987 439.608 73.4709C443.438 94.5431 446.38 111.651 446.166 111.679Z" fill="#263238"/>
<path d="M415.413 114.758C415.199 114.758 415.536 98.5778 416.195 78.6161C416.854 58.6544 417.543 42.4883 417.727 42.4883C417.911 42.4883 417.589 58.6825 416.946 78.6442C416.302 98.6059 415.643 114.772 415.413 114.758Z" fill="#263238"/>
<path d="M389.243 128.211C389.207 127.954 389.207 127.694 389.243 127.437C389.243 126.847 389.243 126.116 389.335 125.23C389.443 123.319 389.642 120.535 389.933 117.119C390.515 110.287 391.465 100.841 392.997 90.41C394.53 79.9793 396.062 70.7295 397.272 63.8975C397.916 60.5096 398.467 57.7825 398.896 55.8988C399.096 55.0272 399.264 54.3243 399.387 53.748C399.424 53.4907 399.501 53.2398 399.617 53.0029C399.651 53.2597 399.651 53.5193 399.617 53.7761C399.509 54.3525 399.402 55.0694 399.264 55.955C398.927 57.9512 398.452 60.6643 397.9 63.9819C396.751 70.7576 395.28 80.1339 393.855 90.5084C392.43 100.883 391.327 110.301 390.607 117.119C390.255 120.465 389.964 123.192 389.764 125.202C389.657 126.102 389.58 126.819 389.504 127.409C389.46 127.687 389.372 127.957 389.243 128.211Z" fill="#263238"/>
<path d="M450.64 117.148C450.765 118.232 450.765 119.325 450.64 120.409C450.456 122.687 450.241 125.315 450.012 128.225C449.782 131.135 449.552 133.764 449.368 136.041C449.347 137.131 449.198 138.214 448.924 139.274C448.738 138.196 448.697 137.101 448.801 136.013C448.801 134.003 448.97 131.234 449.215 128.169C449.46 125.104 449.782 122.349 450.073 120.353C450.126 119.268 450.317 118.193 450.64 117.148Z" fill="#263238"/>
<path d="M304.419 436.83C302.489 434.243 297.294 431.938 293.893 431.6C282.125 430.419 271.4 435.073 262.115 441.82L260.291 444.871C255.296 448.441 250.087 452.518 248.539 458.155C247.124 464.027 246.41 470.022 246.409 476.036C246.555 479.229 247.966 482.263 250.378 484.569C252.598 486.824 255.685 488.2 258.989 488.407C265.236 488.852 271.486 487.569 276.931 484.724C282.34 481.868 287.113 478.1 290.997 473.618C298.249 465.485 303.177 455.822 305.339 445.503C305.952 442.664 306.258 439.318 304.419 436.83Z" fill="#04C269"/>
<g opacity="0.4">
<path d="M304.419 436.83C302.489 434.243 297.294 431.938 293.893 431.6C282.125 430.419 271.4 435.073 262.115 441.82L260.291 444.871C255.296 448.441 250.087 452.518 248.539 458.155C247.124 464.027 246.41 470.022 246.409 476.036C246.555 479.229 247.966 482.263 250.378 484.569C252.598 486.824 255.685 488.2 258.989 488.407C265.236 488.852 271.486 487.569 276.931 484.724C282.34 481.868 287.113 478.1 290.997 473.618C298.249 465.485 303.177 455.822 305.339 445.503C305.952 442.664 306.258 439.318 304.419 436.83Z" fill="black"/>
</g>
<path d="M303.148 277.923C301.294 278.486 209.467 397.89 207 405.847C204.533 413.803 191.096 432.711 210.065 450.465C221.829 461.397 234.37 471.601 247.604 481.012C243.345 450.915 275.629 426.652 298.168 432.95L280.93 422.224L320.324 374.217" fill="#04C269"/>
<path d="M493.956 302.876C493.956 302.876 508.404 319.45 512.005 330.176C515.07 339.341 531.464 381.753 531.464 381.753L561.297 449.58C561.297 449.58 556.7 455.569 555.674 460.644C555.245 462.668 551.46 493.833 542.42 507.033L494.568 487.353L488.531 448.062L480.288 414.197L488.807 323.034L493.956 302.876Z" fill="#04C269"/>
<path d="M359.656 260.689C359.656 260.689 371.914 250.315 375.316 248.853C375.316 248.853 379.207 261.04 390.638 266.804C402.068 272.568 409.438 278.781 409.438 279.61V294.722C409.438 294.722 362.598 282.984 359.656 260.689Z" fill="#04C269"/>
<path d="M367.486 337.57L458.5 332.523L454.241 284.826L450.333 276.785L444.204 266.636C443.889 270.067 442.38 273.315 439.899 275.9C434.887 280.564 428.429 283.696 421.405 284.868L419.612 294.709L373.492 277.235C373.492 277.235 367.486 334.871 367.486 336.192" fill="#04C269"/>
<path d="M421.374 284.826C421.398 285.041 421.398 285.257 421.374 285.472C421.298 285.936 421.191 286.569 421.068 287.37C420.772 289.085 420.353 291.545 419.812 294.75V294.877H419.658L382.226 295.931L376.097 296.086L372.895 296.17C371.859 296.144 370.825 296.267 369.83 296.536C368.825 296.857 367.913 297.383 367.162 298.074C366.411 298.766 365.841 299.605 365.494 300.528C365.158 301.494 365.038 302.512 365.142 303.522C365.142 304.591 365.142 305.659 365.142 306.727C365.341 315.33 365.555 324.44 365.77 333.858C366.475 360.258 366.919 384.17 366.781 401.475C366.781 410.134 366.628 417.135 366.505 421.971C366.429 424.347 366.383 426.188 366.337 427.594C366.337 428.198 366.337 428.676 366.337 429C366.357 429.163 366.357 429.328 366.337 429.492C366.314 429.328 366.314 429.163 366.337 429C366.337 428.634 366.337 428.156 366.337 427.594C366.337 426.272 366.337 424.403 366.337 421.971C366.337 417.093 366.337 410.106 366.337 401.489C366.337 384.184 365.801 360.286 365.096 333.886C364.897 324.468 364.697 315.359 364.498 306.755V303.55C364.408 302.463 364.548 301.37 364.912 300.331C365.294 299.31 365.924 298.381 366.755 297.617C367.586 296.852 368.596 296.271 369.708 295.917C370.787 295.628 371.909 295.5 373.033 295.538L376.22 295.467L382.349 295.327L419.796 294.568L419.628 294.708C420.241 291.512 420.711 289.062 421.037 287.356L421.436 285.472C421.399 285.258 421.378 285.042 421.374 284.826Z" fill="#263238"/>
<path d="M375.714 316.709C377.864 316.709 379.606 315.11 379.606 313.138C379.606 311.166 377.864 309.567 375.714 309.567C373.565 309.567 371.822 311.166 371.822 313.138C371.822 315.11 373.565 316.709 375.714 316.709Z" fill="#263238"/>
<path d="M397.548 309.3C397.548 309.525 393.166 310.045 387.834 311.184C382.502 312.322 378.288 313.616 378.211 313.419C381.189 312.029 384.367 311.035 387.65 310.467C390.875 309.663 394.206 309.27 397.548 309.3Z" fill="#263238"/>
<path d="M390.944 316.399C388.652 316.076 386.381 315.64 384.141 315.092C381.849 314.772 379.577 314.336 377.338 313.784C382.032 313.688 386.687 314.583 390.944 316.399Z" fill="#263238"/>
<path d="M375.714 357.081C377.864 357.081 379.606 355.483 379.606 353.511C379.606 351.539 377.864 349.94 375.714 349.94C373.565 349.94 371.822 351.539 371.822 353.511C371.822 355.483 373.565 357.081 375.714 357.081Z" fill="#263238"/>
<path d="M397.548 349.687C397.548 349.898 393.166 350.418 387.834 351.557C382.502 352.695 378.288 353.989 378.211 353.792C381.188 352.403 384.367 351.414 387.65 350.854C390.874 350.042 394.205 349.649 397.548 349.687Z" fill="#263238"/>
<path d="M390.944 356.773C388.652 356.45 386.381 356.013 384.141 355.465C381.849 355.146 379.577 354.709 377.338 354.158C382.032 354.062 386.687 354.956 390.944 356.773Z" fill="#263238"/>
<path d="M375.714 397.469C377.864 397.469 379.606 395.87 379.606 393.898C379.606 391.926 377.864 390.328 375.714 390.328C373.565 390.328 371.822 391.926 371.822 393.898C371.822 395.87 373.565 397.469 375.714 397.469Z" fill="#263238"/>
<path d="M397.548 390.061C397.548 390.271 393.166 390.792 387.834 391.93C382.502 393.069 378.288 394.362 378.211 394.165C381.188 392.777 384.367 391.787 387.65 391.227C390.874 390.416 394.205 390.023 397.548 390.061Z" fill="#263238"/>
<path d="M390.944 397.145C388.652 396.822 386.381 396.386 384.141 395.838C381.849 395.518 379.577 395.082 377.338 394.531C379.681 394.363 382.039 394.563 384.31 395.121C386.632 395.439 388.877 396.124 390.944 397.145Z" fill="#263238"/>
<path d="M314.808 385.028C314.839 384.68 314.911 384.336 315.022 384.002C315.206 383.271 315.467 382.315 315.788 381.12C316.463 378.604 317.474 374.991 318.623 370.507C319.772 366.022 321.044 360.666 322.04 354.622C323.153 348.114 323.624 341.527 323.45 334.941C323.201 328.348 321.974 321.817 319.803 315.528C318.044 310.391 315.495 305.511 312.234 301.034C310.038 298.016 307.467 295.242 304.573 292.769C303.592 291.855 302.688 291.278 302.152 290.815C301.847 290.605 301.57 290.365 301.324 290.098C301.646 290.273 301.954 290.47 302.244 290.688C302.826 291.124 303.776 291.672 304.787 292.558C307.785 294.975 310.446 297.723 312.709 300.739C316.067 305.227 318.699 310.137 320.523 315.317C322.749 321.659 324.007 328.254 324.262 334.913C324.433 341.559 323.92 348.205 322.729 354.762C321.703 360.807 320.354 366.177 319.144 370.661C317.934 375.146 316.83 378.744 316.08 381.233C315.712 382.413 315.405 383.369 315.176 384.044C315.078 384.379 314.955 384.708 314.808 385.028Z" fill="#263238"/>
<path d="M313.276 383.819C313.044 383.21 312.87 382.585 312.755 381.949C312.464 380.74 312.126 378.969 311.774 376.762C310.886 371.021 310.482 365.226 310.564 359.429C310.655 353.628 311.239 347.842 312.31 342.124C312.724 339.945 313.122 338.174 313.459 336.979C313.584 336.339 313.779 335.713 314.042 335.109C314.015 335.758 313.923 336.403 313.766 337.035C313.521 338.244 313.214 340.015 312.877 342.208C311.962 347.917 311.45 353.674 311.345 359.443C311.272 365.206 311.6 370.967 312.326 376.692C312.601 378.899 312.847 380.67 313.046 381.893C313.202 382.525 313.279 383.171 313.276 383.819Z" fill="#263238"/>
<path d="M226.169 420.453C226.945 420.218 227.739 420.034 228.544 419.905C230.665 419.335 232.718 418.572 234.673 417.627C237.17 416.446 240.005 414.816 243.238 413.03C246.693 410.978 250.524 409.516 254.546 408.715C258.668 408.103 262.896 408.74 266.589 410.528C269.548 411.974 272.279 413.78 274.71 415.898C276.347 417.294 277.883 418.787 279.307 420.369C279.876 420.929 280.389 421.536 280.839 422.182C280.227 421.68 279.653 421.14 279.123 420.565C277.608 419.086 276.012 417.679 274.342 416.348C271.899 414.322 269.186 412.588 266.267 411.189C262.704 409.5 258.642 408.909 254.684 409.502C250.748 410.295 246.997 411.723 243.606 413.719C240.373 415.434 237.477 417.051 234.918 418.19C232.901 419.112 230.772 419.811 228.575 420.27C227.972 420.385 227.364 420.47 226.751 420.523C226.555 420.521 226.359 420.498 226.169 420.453Z" fill="#263238"/>
<path d="M257.901 391.199C258.409 391.313 258.898 391.488 259.356 391.719C259.925 391.924 260.474 392.174 260.996 392.464C261.711 392.816 262.407 393.201 263.08 393.617C264.849 394.682 266.506 395.896 268.029 397.244C271.776 400.552 274.689 404.573 276.563 409.024C277.333 410.844 277.912 412.727 278.295 414.647C278.454 415.377 278.571 416.113 278.647 416.854C278.727 417.409 278.768 417.968 278.77 418.527C278.846 418.993 278.846 419.467 278.77 419.933C278.616 419.933 278.555 417.894 277.789 414.717C277.333 412.861 276.713 411.042 275.935 409.277C274.943 407.133 273.749 405.073 272.365 403.12C270.945 401.193 269.335 399.391 267.554 397.736C266.084 396.39 264.495 395.158 262.804 394.053C259.862 392.155 257.839 391.326 257.901 391.199Z" fill="#263238"/>
<g opacity="0.4">
<path d="M278.034 418.176C275.255 412.368 270.777 407.38 265.098 403.762C259.419 400.145 252.76 398.04 245.858 397.68C243.997 397.516 242.122 397.782 240.403 398.453C239.553 398.806 238.835 399.381 238.339 400.106C237.843 400.831 237.591 401.674 237.614 402.53C237.846 403.335 237.99 404.159 238.043 404.99C237.813 406.86 235.285 407.534 233.309 408.055C229.453 409.064 226.02 411.116 223.456 413.945C222.123 415.35 221.051 417.614 222.323 419.132C223.38 420.369 225.387 420.369 227.088 420.088C233.401 419.076 239.024 415.955 244.785 413.396C250.546 410.838 257.043 408.771 263.294 410.065C270.205 411.471 275.338 416.672 279.98 421.578" fill="black"/>
</g>
<path d="M480.289 414.197C480.119 414.418 479.93 414.625 479.722 414.816L477.96 416.475C477.209 417.192 476.259 418.049 475.11 419.005C473.961 419.961 472.689 421.1 471.187 422.238C467.71 424.963 464.084 427.525 460.324 429.914C451.095 435.784 441.104 440.577 430.583 444.182C425.726 445.813 421.283 447.092 417.498 447.977C415.613 448.455 413.882 448.779 412.365 449.088C410.848 449.397 409.546 449.636 408.458 449.791L405.991 450.156C405.706 450.222 405.412 450.25 405.118 450.241C405.386 450.131 405.67 450.055 405.96 450.016L408.412 449.51C409.469 449.313 410.772 449.046 412.273 448.694C413.775 448.343 415.491 447.992 417.345 447.471C421.099 446.53 425.512 445.208 430.323 443.549C440.752 439.9 450.677 435.14 459.895 429.365C464.139 426.694 467.832 424.122 470.82 421.83C472.352 420.734 473.639 419.638 474.803 418.71C475.968 417.782 476.964 416.953 477.745 416.264L479.599 414.703C479.807 414.511 480.038 414.341 480.289 414.197Z" fill="#263238"/>
<path d="M494.569 321.769C494.567 322.085 494.531 322.401 494.461 322.711C494.354 323.4 494.201 324.299 494.017 325.41L492.331 335.25C490.922 343.586 489.068 355.142 487.168 367.906C485.268 380.67 483.613 392.183 482.372 400.632L480.932 410.542C480.748 411.653 480.61 412.553 480.503 413.241C480.47 413.556 480.403 413.867 480.303 414.169C480.263 413.852 480.263 413.531 480.303 413.213C480.365 412.52 480.457 411.62 480.579 410.514C480.87 408.068 481.269 404.694 481.774 400.561C482.832 392.127 484.41 380.586 486.371 367.807C488.332 355.029 490.217 343.488 491.765 335.166C492.561 330.949 493.205 327.631 493.726 325.326C493.956 324.229 494.155 323.343 494.308 322.655C494.354 322.351 494.442 322.053 494.569 321.769Z" fill="#263238"/>
<path d="M442.718 460.741C442.924 460.241 443.202 459.768 443.545 459.336C444.127 458.506 444.985 457.311 446.073 455.835C448.264 452.911 451.375 448.919 454.945 444.589C458.515 440.26 461.886 436.464 464.399 433.765C465.64 432.359 466.666 431.333 467.463 430.588C468.26 429.843 468.612 429.463 468.658 429.506C468.395 429.959 468.077 430.384 467.708 430.771L464.828 434.229C462.453 437.04 459.159 440.864 455.634 445.166C452.11 449.467 448.893 453.403 446.594 456.257L443.806 459.532C443.499 459.975 443.133 460.381 442.718 460.741Z" fill="#263238"/>
<path d="M541.348 431.418C540.511 431.155 539.692 430.845 538.897 430.49C537.364 429.871 535.066 428.986 532.201 428.072C524.751 425.605 516.877 424.391 508.957 424.487C506.733 424.532 504.538 424.946 502.475 425.71C500.575 426.464 498.845 427.537 497.373 428.873C494.881 431.215 492.927 433.992 491.627 437.041C490.706 439.078 489.898 441.156 489.206 443.268C488.979 444.056 488.687 444.827 488.333 445.574C488.458 444.765 488.648 443.967 488.9 443.184C489.497 441.032 490.233 438.915 491.106 436.844C492.38 433.727 494.342 430.884 496.868 428.494C498.389 427.082 500.188 425.947 502.169 425.148C504.312 424.345 506.597 423.907 508.911 423.855C516.928 423.718 524.898 425.001 532.385 427.636C534.652 428.411 536.872 429.298 539.034 430.293C539.801 430.63 540.383 430.94 540.781 431.136C540.983 431.206 541.174 431.3 541.348 431.418Z" fill="#263238"/>
<path d="M529.887 409.404C529.887 409.558 527.481 409.488 523.758 410.092C521.548 410.449 519.375 410.976 517.261 411.667C512.082 413.382 507.339 416.046 503.318 419.497C501.682 420.909 500.18 422.447 498.828 424.094C496.53 426.905 495.503 428.901 495.35 428.831C495.509 428.341 495.73 427.869 496.009 427.425C496.289 426.874 496.607 426.339 496.959 425.823C497.391 425.126 497.861 424.451 498.369 423.799C499.686 422.083 501.173 420.483 502.812 419.019C506.845 415.43 511.696 412.707 517.016 411.048C519.179 410.389 521.406 409.918 523.666 409.643C524.631 409.488 525.52 409.46 526.286 409.404C526.944 409.371 527.604 409.371 528.262 409.404C528.802 409.352 529.347 409.352 529.887 409.404Z" fill="#263238"/>
<path d="M542.206 498.486C541.461 493.891 539.469 489.542 536.415 485.838C533.36 482.134 529.339 479.194 524.723 477.287C517.414 474.293 507.332 473.604 500.391 477.287C493.45 480.97 484.165 490.023 486.05 497.15L501.969 521.681C506.069 524.407 510.966 525.943 516.027 526.091C521.088 526.239 526.081 524.991 530.362 522.51C534.552 519.891 537.874 516.263 539.964 512.025C542.053 507.787 542.829 503.102 542.206 498.486Z" fill="#04C269"/>
<g opacity="0.4">
<path d="M542.206 498.486C541.461 493.891 539.469 489.542 536.415 485.838C533.36 482.134 529.339 479.194 524.723 477.287C517.414 474.293 507.332 473.604 500.391 477.287C493.45 480.97 484.165 490.023 486.05 497.15L501.969 521.681C506.069 524.407 510.966 525.943 516.027 526.091C521.088 526.239 526.081 524.991 530.362 522.51C534.552 519.891 537.874 516.263 539.964 512.025C542.053 507.787 542.829 503.102 542.206 498.486Z" fill="black"/>
</g>
<path d="M537.241 516.367C537.241 516.367 537.808 515.383 538.773 513.64C540.108 511.125 541.032 508.445 541.516 505.683C542.212 501.585 541.812 497.393 540.351 493.467C539.914 492.339 539.402 491.236 538.819 490.164C538.209 489.054 537.518 487.983 536.751 486.959C533.569 482.588 529.04 479.187 523.742 477.189C516.974 474.838 509.503 474.838 502.735 477.189C499.868 478.137 497.165 479.458 494.706 481.111C492.975 482.306 492.086 483.051 492.025 482.994C492.21 482.786 492.415 482.593 492.638 482.418C493.226 481.872 493.85 481.36 494.507 480.886C496.929 479.107 499.638 477.684 502.536 476.669C509.42 474.18 517.069 474.134 523.987 476.542C526.706 477.542 529.243 478.916 531.51 480.619C533.773 482.327 535.75 484.33 537.379 486.565C538.151 487.626 538.852 488.729 539.478 489.869C540.068 490.971 540.58 492.107 541.01 493.271C542.485 497.297 542.838 501.598 542.037 505.782C541.49 508.582 540.455 511.282 538.972 513.78C538.451 514.652 537.946 515.299 537.639 515.734C537.539 515.961 537.405 516.174 537.241 516.367Z" fill="#263238"/>
<path d="M493.466 481.87C493.236 481.87 491.382 472.283 489.298 460.376C487.214 448.47 485.713 438.798 485.927 438.756C486.142 438.714 488.011 448.357 490.095 460.264C492.179 472.171 493.68 481.842 493.466 481.87Z" fill="#263238"/>
<g opacity="0.4">
<path d="M483.077 425.682L491.213 425.162C496.604 417.569 505.047 412.238 514.702 410.331C516.922 409.798 519.248 409.755 521.49 410.205C522.607 410.442 523.637 410.941 524.481 411.653C525.324 412.365 525.951 413.266 526.301 414.267C526.584 415.284 526.421 416.363 525.849 417.272C525.276 418.181 524.339 418.848 523.237 419.131C525.498 419.675 527.611 420.645 529.441 421.978C531.272 423.311 532.78 424.98 533.87 426.877C534.33 427.678 534.667 428.774 533.978 429.421C533.452 429.785 532.792 429.946 532.139 429.871C528.385 429.871 524.662 429.098 520.908 428.943C517.15 428.592 513.373 429.409 510.182 431.263C507.118 433.273 505.463 436.548 504.053 439.697C498.884 451.054 495.062 462.888 492.654 474.996C490.769 468.15 490.6 460.938 489.237 454.444C487.291 445.236 485.406 435.817 483.108 425.71" fill="black"/>
</g>
<g opacity="0.4">
<path d="M306.611 487.76C316.739 497.671 330.406 502.31 345.039 504.503C359.672 506.696 374.611 505.908 389.474 505.149C393.12 504.952 397.441 504.376 399.035 501.354C400.169 499.203 399.387 496.658 398.483 494.437C391.956 478.595 379.055 465.788 366.444 453.432C361.848 448.905 356.914 444.21 350.463 442.382C343.369 440.386 335.309 442.143 328.583 439.276C320.493 435.832 317.199 427.088 314.701 419.23L309.553 403.063C310.687 420.678 310.487 434.833 310.487 434.833C310.487 434.833 305.186 467.391 305.891 474.771C306.596 482.151 306.611 487.76 306.611 487.76Z" fill="black"/>
</g>
<path d="M407.477 286.794C406.793 286.726 406.12 286.59 405.469 286.386C404.182 286.091 402.405 285.571 400.107 284.84C394.281 282.922 388.693 280.443 383.436 277.445C378.175 274.447 373.271 270.951 368.803 267.015C367.102 265.497 365.739 264.203 364.927 263.289C364.436 262.845 364.004 262.35 363.64 261.813C364.189 262.199 364.701 262.627 365.172 263.093C366.091 263.964 367.47 265.173 369.217 266.635C378.294 274.266 388.842 280.278 400.321 284.362C402.512 285.149 404.32 285.767 405.577 286.119C406.23 286.293 406.866 286.518 407.477 286.794Z" fill="#263238"/>
<path d="M450.196 278.992C450.069 279.367 449.872 279.719 449.613 280.032C449.027 280.948 448.367 281.822 447.637 282.647C442.806 288.16 436.172 292.102 428.714 293.893C427.598 294.173 426.461 294.375 425.312 294.497C424.895 294.582 424.466 294.606 424.041 294.568C424.041 294.441 425.803 294.174 428.561 293.401C432.152 292.372 435.574 290.901 438.735 289.029C441.878 287.14 444.723 284.865 447.192 282.267C449.092 280.313 450.073 278.922 450.196 278.992Z" fill="#263238"/>
<path d="M457.305 287.666C454.96 293.175 450.526 297.723 444.817 300.472C447.232 298.631 449.539 296.675 451.728 294.61C453.718 292.386 455.579 290.068 457.305 287.666Z" fill="#263238"/>
<path d="M376.924 454.823L377.874 454.64C381.276 454.036 392.553 452.152 394.376 453.825C396.506 455.793 411.783 469.555 411.783 469.555C411.783 469.555 408.841 473.984 399.188 469.555C389.535 465.127 376.924 454.823 376.924 454.823Z" fill="#FFBE9D"/>
<path d="M355.258 426.863C356.919 425.85 358.94 425.464 360.904 425.783C362.867 426.102 364.62 427.103 365.8 428.578L412.364 485.244L400.428 493.271L353.404 437.153C352.751 436.379 352.278 435.49 352.017 434.541C351.755 433.591 351.71 432.603 351.884 431.637C352.058 430.671 352.448 429.748 353.028 428.927C353.609 428.106 354.368 427.403 355.258 426.863Z" fill="#263238"/>
<path d="M248.784 464.804C248.784 464.804 304.082 473.042 311.743 473.59C319.404 474.138 340.38 494.55 346.463 496.504C352.546 498.458 369.018 498.177 369.018 498.177C369.018 498.177 398.865 499.582 399.785 498.177C400.704 496.771 402.527 497.052 399.785 491.738C398.085 488.483 396.032 485.394 393.656 482.517C393.656 482.517 401.317 491.176 403.416 491.457C405.515 491.738 410.112 492.244 409.805 488.505C409.499 484.766 401.577 469.387 401.577 469.387C401.577 469.387 398.237 462.204 392.139 460.615C386.041 459.027 359.533 447.303 359.533 447.303H331.187L298.121 432.88C298.121 432.88 278.111 426.975 259.065 446.248C255.355 450.077 252.535 454.558 250.776 459.42L248.784 464.804Z" fill="#FFBE9D"/>
<path d="M406.895 480.97C406.55 480.513 406.272 480.017 406.067 479.494C405.531 478.37 404.872 476.992 404.106 475.361C403.34 473.731 402.313 471.481 401.271 469.204C400.41 466.652 398.727 464.398 396.445 462.738C395.199 461.951 393.87 461.282 392.477 460.741L388.569 459.139C386.056 458.127 383.789 457.255 381.889 456.524L377.292 454.795C376.725 454.614 376.181 454.378 375.668 454.092C376.265 454.18 376.851 454.327 377.415 454.528C378.503 454.865 380.096 455.372 382.011 456.032C383.927 456.693 386.256 457.536 388.784 458.52L392.722 460.095C394.174 460.638 395.556 461.326 396.843 462.147C399.249 463.895 401.009 466.281 401.884 468.979C402.88 471.271 403.769 473.365 404.55 475.179C405.332 476.992 405.807 478.243 406.282 479.396C406.545 479.9 406.75 480.427 406.895 480.97Z" fill="#EB996E"/>
<path d="M379.162 466.885C380.229 467.462 381.212 468.161 382.088 468.965C384.281 470.792 386.33 472.761 388.217 474.855C390.139 476.946 391.89 479.164 393.457 481.491C394.171 482.415 394.748 483.422 395.173 484.485C394.359 483.64 393.626 482.732 392.982 481.772C391.68 480.071 389.826 477.751 387.604 475.319C385.382 472.887 383.237 470.821 381.629 469.345C380.728 468.593 379.903 467.77 379.162 466.885Z" fill="#EB996E"/>
<path d="M394.897 498.598C394.485 498.523 394.09 498.38 393.733 498.176C392.717 497.705 391.743 497.16 390.822 496.546C387.848 494.455 385.139 492.064 382.747 489.419C379.882 486.396 377.323 483.641 375.515 481.617C374.472 480.569 373.524 479.446 372.68 478.257C373.859 479.173 374.947 480.185 375.928 481.279C377.859 483.219 380.525 485.918 383.344 488.926C385.712 491.533 388.327 493.941 391.159 496.124C393.381 497.755 394.959 498.5 394.897 498.598Z" fill="#EB996E"/>
<path d="M378.472 498.571C377.46 498.259 376.501 497.819 375.622 497.263C373.416 496.065 371.288 494.751 369.248 493.327C367.213 491.907 365.259 490.391 363.395 488.787C362.57 488.161 361.834 487.443 361.204 486.65C361.372 486.481 365.004 489.461 369.738 492.751C374.473 496.04 378.594 498.388 378.472 498.571Z" fill="#EB996E"/>
<path d="M469.195 519.657C469.195 519.657 464.338 512.769 463.664 510.309C462.99 507.849 463.664 496.139 454.716 497.98V498.894C454.946 499.892 454.716 523.705 454.716 523.705L469.195 519.657Z" fill="#FFBE9D"/>
<path d="M354.538 532.125C354.538 532.125 346.28 602.048 435.517 600.009C508.267 598.35 506.995 533.292 506.995 533.292L354.538 532.125Z" fill="#04C269"/>
<path d="M429.434 551.23C475.359 551.23 512.588 542.972 512.588 532.786C512.588 522.6 475.359 514.343 429.434 514.343C383.51 514.343 346.28 522.6 346.28 532.786C346.28 542.972 383.51 551.23 429.434 551.23Z" fill="#04C269"/>
<path opacity="0.4" d="M430.675 543.78C472.826 543.78 506.995 538.562 506.995 532.126C506.995 525.69 472.826 520.472 430.675 520.472C388.525 520.472 354.355 525.69 354.355 532.126C354.355 538.562 388.525 543.78 430.675 543.78Z" fill="black"/>
<path d="M509.769 538.058L509.401 538.255L508.374 538.845C507.47 539.365 506.091 540.082 504.283 540.926C499.137 543.289 493.734 545.15 488.164 546.478C479.904 548.392 471.522 549.828 463.066 550.78C452.7 551.852 442.27 552.321 431.839 552.186C420.761 552.101 410.189 551.764 400.613 550.991C392.118 550.347 383.684 549.144 375.377 547.392C369.78 546.21 364.289 544.641 358.951 542.697C357.051 542.036 355.626 541.39 354.646 540.996L353.558 540.518C353.297 540.42 353.175 540.349 353.19 540.335C353.326 540.368 353.46 540.41 353.589 540.462L354.722 540.869C355.718 541.221 357.143 541.811 359.059 542.43C364.425 544.264 369.923 545.753 375.515 546.886C383.805 548.561 392.211 549.707 400.674 550.316C410.235 551.047 420.777 551.37 431.855 551.455C442.25 551.575 452.643 551.105 462.974 550.049C471.404 549.14 479.765 547.76 488.011 545.916C493.567 544.644 498.972 542.869 504.145 540.616C505.953 539.801 507.363 539.14 508.282 538.662L509.355 538.128C509.631 538.1 509.753 538.044 509.769 538.058Z" fill="#263238"/>
<path d="M458.837 530.551C458.837 530.551 467.939 502.563 471.095 498.837C473.685 495.759 492.025 483.023 498.323 478.707C499.875 477.633 501.639 476.845 503.517 476.388C509.753 474.883 515.989 473.871 526.255 477.948C529.494 479.263 532.407 481.171 534.815 483.554C537.223 485.937 539.075 488.746 540.26 491.809L506.015 511.335L504.682 524.549L477.102 518.096C477.235 516.768 476.953 515.432 476.289 514.244C476.289 514.244 467.525 533.728 458.837 530.551Z" fill="#FFBE9D"/>
<path d="M425.772 510.674C422.293 506.457 419.398 502.394 417.099 498.95C414.801 495.506 413.161 492.61 412.073 490.515C411.574 489.43 410.974 488.386 410.281 487.395C410.636 488.528 411.092 489.633 411.644 490.698C413.044 493.638 414.62 496.506 416.364 499.287C418.979 503.392 421.823 507.371 424.883 511.208C428.315 515.552 432.345 520.163 436.62 524.928C442.595 531.507 448.111 537.65 452.601 543.034H453.842C449.353 537.411 443.699 531.043 437.554 524.267C433.279 519.53 429.25 514.961 425.772 510.674Z" fill="#F5F5F5"/>
<path d="M403.891 490.628C404.276 491.744 404.758 492.83 405.331 493.875C406.327 495.956 407.768 498.95 409.468 502.675C413.887 512.386 417.738 522.306 421.006 532.393C422.201 536.343 423.473 540.181 424.975 543.737H426.2C424.668 540.124 423.412 536.216 422.155 532.098C418.902 521.963 414.925 512.035 410.25 502.38C408.442 498.683 406.879 495.731 405.76 493.707C405.228 492.636 404.603 491.606 403.891 490.628Z" fill="#F5F5F5"/>
<path d="M406.895 487.269C407.348 488.375 407.896 489.447 408.535 490.474C409.668 492.512 411.338 495.436 413.438 499.035C417.651 506.218 423.55 516.129 430.736 526.714C434.904 532.871 439.087 538.508 442.994 543.442H444.281C440.389 538.368 436.099 532.534 431.809 526.166C424.638 515.608 418.632 505.782 414.234 498.697L408.994 490.263C408.385 489.213 407.683 488.212 406.895 487.269Z" fill="#F5F5F5"/>
<path d="M473.899 535.317C470.872 528.753 466.244 522.915 460.369 518.251C455.11 514.07 449.471 510.307 443.515 507.005C438.014 503.814 432.789 500.918 428.346 497.98C421.225 493.351 414.751 487.936 409.07 481.856C407.063 479.705 405.577 477.962 404.596 476.781L403.463 475.376C403.349 475.212 403.21 475.066 403.049 474.94C403.132 475.121 403.24 475.291 403.371 475.446L404.397 476.852C405.332 478.089 406.742 479.874 408.718 482.081C414.297 488.307 420.729 493.844 427.856 498.557C432.345 501.551 437.509 504.503 442.979 507.722C448.866 511.033 454.438 514.795 459.634 518.968C465.377 523.544 469.901 529.267 472.857 535.697C473.738 537.611 474.42 539.597 474.895 541.629L476.09 541.516C475.569 539.393 474.835 537.317 473.899 535.317Z" fill="#F5F5F5"/>
<path d="M471.095 539.956C469.097 535.324 466.338 531 462.913 527.135C458.695 522.442 453.915 518.198 448.663 514.483C443.163 510.477 437.662 507.019 432.759 503.772C427.856 500.524 423.565 497.488 420.072 494.761C417.336 492.608 414.737 490.313 412.288 487.887C411.442 486.944 410.536 486.047 409.576 485.202C409.713 485.498 409.899 485.773 410.128 486.017C410.511 486.523 411.124 487.254 411.936 488.168C414.265 490.724 416.795 493.12 419.505 495.337C423.532 498.611 427.736 501.699 432.1 504.587C436.988 507.89 442.458 511.377 447.912 515.341C453.093 519.002 457.834 523.158 462.055 527.74C465.454 531.498 468.231 535.695 470.298 540.195C470.574 540.799 470.804 541.39 471.034 541.966L471.831 541.896C471.647 541.291 471.432 540.644 471.095 539.956Z" fill="#F5F5F5"/>
<path d="M430.966 533.447C425.082 523.607 420.133 514.441 416.624 507.792L412.487 499.92C412.034 498.942 411.49 498.002 410.863 497.108C411.164 498.146 411.564 499.158 412.058 500.131C412.916 502.043 414.188 504.784 415.843 508.158C419.168 514.891 424.01 524.099 429.894 534.009C431.901 537.369 433.877 540.588 435.793 543.625H437.11C435.134 540.377 433.065 536.99 430.966 533.447Z" fill="#F5F5F5"/>
<path d="M443.208 520.824C434.954 513.37 427.149 505.51 419.827 497.277C417.023 494.114 414.816 491.514 413.269 489.714C412.529 488.719 411.704 487.779 410.802 486.903C411.41 487.952 412.112 488.954 412.901 489.897C414.326 491.781 416.425 494.466 419.168 497.699C426.311 506.131 434.061 514.114 442.366 521.597C447.207 525.997 452.126 529.877 456.248 533.686C459.232 536.375 461.926 539.322 464.292 542.486H465.303C462.94 539.062 460.17 535.889 457.044 533.026C452.907 529.089 448.02 525.196 443.208 520.824Z" fill="#F5F5F5"/>
<path d="M418.049 540.18C416.011 534.557 414.632 529.103 413.345 524.169C410.863 514.328 408.549 506.273 406.083 501.03C404.93 498.273 403.455 495.638 401.685 493.172C401.685 493.172 401.685 493.369 401.93 493.706L402.788 495.224C403.508 496.56 404.55 498.542 405.654 501.185C407.967 506.456 410.143 514.427 412.503 524.351C413.759 529.3 415.092 534.74 417.099 540.461C417.498 541.544 417.942 542.64 418.386 543.751H419.49C418.999 542.556 418.494 541.347 418.049 540.18Z" fill="#F5F5F5"/>
<path d="M479.798 523.199C479.92 523.183 480.044 523.183 480.166 523.199C480.523 523.182 480.881 523.182 481.239 523.199C482.173 523.269 483.552 523.41 485.314 523.635C490.303 524.265 495.227 525.266 500.039 526.629C501.622 527.142 503.159 527.767 504.636 528.498C505.464 528.897 506.182 529.465 506.735 530.157C507.011 530.548 507.192 530.989 507.266 531.45C507.34 531.911 507.305 532.381 507.164 532.828C506.996 533.276 506.734 533.689 506.392 534.043C506.05 534.398 505.636 534.687 505.172 534.895C504.334 535.4 503.446 535.833 502.521 536.188C500.624 536.933 498.674 537.557 496.683 538.058C487.859 540.26 478.864 541.844 469.778 542.795C453.276 544.408 436.661 544.831 420.087 544.06C413.729 543.835 408.596 543.554 405.041 543.357L400.95 543.09L399.893 543.006C399.771 543.029 399.646 543.029 399.525 543.006H400.965L405.056 543.132L420.103 543.596C436.646 544.229 453.217 543.759 469.686 542.19C478.73 541.234 487.687 539.675 496.484 537.523C498.445 537.034 500.37 536.428 502.245 535.71C503.139 535.379 503.996 534.969 504.804 534.487C505.597 534.144 506.216 533.535 506.536 532.786C506.655 532.42 506.686 532.034 506.628 531.656C506.57 531.277 506.423 530.915 506.199 530.593C505.704 529.972 505.065 529.458 504.329 529.089C502.885 528.369 501.385 527.748 499.84 527.233C495.066 525.834 490.185 524.763 485.238 524.028C483.491 523.761 482.173 523.564 481.208 523.452C480.243 523.339 479.798 523.227 479.798 523.199Z" fill="#263238"/>
<path d="M487.23 505.922C487.367 506.091 484.518 508.129 481.254 510.899C477.99 513.668 475.554 516.114 475.37 515.973C478.498 511.887 482.542 508.46 487.23 505.922Z" fill="#EB996E"/>
<path d="M486.555 517C484.979 516.453 483.319 516.135 481.636 516.058C479.954 516.202 478.306 516.581 476.749 517.183C476.749 517.113 477.086 516.691 477.944 516.241C479.061 515.659 480.321 515.345 481.606 515.327C482.897 515.299 484.176 515.565 485.329 516.1C486.202 516.522 486.616 516.93 486.555 517Z" fill="#EB996E"/>
<path d="M161.592 284.239C160.704 284.885 112.117 304.903 112.117 304.903C112.117 304.903 125.493 330.966 151.449 319.354C175.153 308.755 161.592 284.239 161.592 284.239Z" fill="#455A64"/>
<path d="M161.056 140.276C162.144 140.276 163.048 174.886 163.048 217.592C163.048 260.299 162.144 294.909 161.056 294.909C159.968 294.909 159.049 260.313 159.049 217.592C159.049 174.871 159.953 140.276 161.056 140.276Z" fill="#455A64"/>
<path d="M126.474 244.681C125.585 245.327 76.9985 265.345 76.9985 265.345C76.9985 265.345 90.3749 291.408 116.346 279.796C140.05 269.197 126.474 244.681 126.474 244.681Z" fill="#455A64"/>
<path d="M125.938 137.661C127.041 137.661 127.93 164.005 127.93 196.492C127.93 228.979 127.041 255.323 125.938 255.323C124.834 255.323 123.946 228.979 123.946 196.492C123.946 164.005 124.834 137.661 125.938 137.661Z" fill="#455A64"/>
<path d="M83.924 205.671C83.02 206.303 34.4331 226.321 34.4331 226.321C34.4331 226.321 47.8248 252.384 73.7807 240.773C97.5149 230.145 83.924 205.671 83.924 205.671Z" fill="#455A64"/>
<path d="M83.4035 141.583C84.5067 141.583 85.3954 158.297 85.3954 178.906C85.3954 199.514 84.5067 216.242 83.4035 216.242C82.3003 216.242 81.4116 199.528 81.4116 178.906C81.4116 158.283 82.3003 141.583 83.4035 141.583Z" fill="#455A64"/>
<path d="M218.852 291.337C246.27 291.337 268.496 270.946 268.496 245.791C268.496 220.636 246.27 200.245 218.852 200.245C191.434 200.245 169.208 220.636 169.208 245.791C169.208 270.946 191.434 291.337 218.852 291.337Z" fill="#455A64"/>
<path d="M216.998 205.348L213.106 146.77H231.401L226.33 205.348H216.998Z" fill="#455A64"/>
<path d="M239.736 277.744L239.415 277.955L238.403 278.489C237.959 278.714 237.423 279.037 236.748 279.333L234.389 280.302C229.272 282.203 223.789 283.131 218.27 283.03C210.057 282.902 202.066 280.565 195.286 276.31C191.297 273.768 187.888 270.535 185.25 266.793C179.535 258.708 177.281 248.969 178.922 239.451C179.664 235.05 181.334 230.824 183.841 227.01C188.159 220.575 194.44 215.443 201.906 212.25C206.903 210.096 212.323 208.891 217.841 208.708H220.292C221.043 208.708 221.671 208.82 222.177 208.848L223.326 208.975C223.458 208.96 223.592 208.96 223.725 208.975H223.357H222.192C221.687 208.975 221.058 208.89 220.308 208.89H217.749C212.301 209.191 206.968 210.456 202.043 212.616C194.733 215.848 188.606 220.962 184.408 227.334C181.96 231.082 180.331 235.231 179.612 239.55C178.034 248.894 180.253 258.444 185.848 266.386C188.419 270.059 191.744 273.239 195.639 275.748C201.23 279.26 207.661 281.484 214.388 282.231C221.115 282.977 227.939 282.224 234.282 280.035L236.641 279.122C237.331 278.84 237.867 278.559 238.327 278.348L239.369 277.871L239.736 277.744Z" fill="#263238"/>
<path d="M19.8159 71L37.3906 129.339H111.841L129.431 71H19.8159Z" fill="#455A64"/>
<path d="M125.938 82.5413C125.938 82.7521 102.955 82.9208 74.6239 82.9208C46.293 82.9208 23.3096 82.7662 23.3096 82.5413C23.3096 82.3164 46.293 82.1758 74.6239 82.1758C102.955 82.1758 125.938 82.3585 125.938 82.5413Z" fill="#263238"/>
<path d="M139.59 86.0414H124.268L126.719 79.9404H139.513C140.395 79.9404 141.241 80.2618 141.864 80.8339C142.488 81.406 142.838 82.1819 142.838 82.9909C142.838 83.7879 142.499 84.5533 141.892 85.1234C141.284 85.6935 140.458 86.023 139.59 86.0414Z" fill="#263238"/>
<path d="M9.53441 86.0414H24.7801L22.3438 79.9404H9.53441C8.65258 79.9404 7.80687 80.2618 7.18332 80.8339C6.55978 81.406 6.20947 82.1819 6.20947 82.9909C6.20947 83.7999 6.55978 84.5759 7.18332 85.1479C7.80687 85.72 8.65258 86.0414 9.53441 86.0414Z" fill="#263238"/>
<path d="M279.053 128.551H1V146.784H279.053V128.551Z" fill="#02A85A"/>
<path d="M685.79 330.794C683.746 330.063 681.469 330.105 679.459 330.911C677.448 331.717 675.868 333.222 675.065 335.096L662.73 365.418L678.053 370.591L690.494 340.564C691.271 338.695 691.213 336.621 690.332 334.792C689.451 332.962 687.819 331.526 685.79 330.794Z" fill="#02A85A"/>
<path d="M685.453 340.381C685.453 341.021 685.246 341.647 684.858 342.179C684.47 342.711 683.919 343.125 683.274 343.37C682.629 343.614 681.92 343.677 681.236 343.551C680.552 343.425 679.924 343.116 679.432 342.662C678.939 342.209 678.605 341.631 678.471 341.003C678.336 340.375 678.408 339.725 678.677 339.134C678.947 338.544 679.401 338.04 679.982 337.686C680.564 337.332 681.247 337.145 681.944 337.148C682.407 337.146 682.865 337.229 683.293 337.391C683.721 337.553 684.109 337.791 684.435 338.092C684.762 338.392 685.02 338.75 685.195 339.143C685.369 339.536 685.457 339.957 685.453 340.381Z" fill="#FAFAFA"/>
<path d="M676.72 360.259C676.723 360.899 676.519 361.525 676.133 362.059C675.748 362.592 675.198 363.009 674.555 363.256C673.911 363.503 673.202 363.569 672.517 363.446C671.833 363.322 671.203 363.016 670.709 362.564C670.215 362.112 669.877 361.536 669.74 360.909C669.603 360.281 669.672 359.63 669.938 359.039C670.204 358.447 670.656 357.941 671.236 357.585C671.816 357.23 672.498 357.04 673.195 357.04C674.127 357.04 675.022 357.378 675.682 357.982C676.342 358.585 676.716 359.404 676.72 360.259Z" fill="#FAFAFA"/>
<path d="M662.761 365.417L638.996 422.294L668.246 421.957L692.103 374.963L662.761 365.417Z" fill="#E0E0E0"/>
<path d="M684.855 422.294H602.881V508.79H684.855V422.294Z" fill="#02A85A"/>
<path d="M684.856 443.831C684.856 444.042 666.469 444.21 643.869 444.21C621.268 444.21 602.866 444.07 602.866 443.831C602.866 443.592 621.253 443.465 643.853 443.465C666.454 443.465 684.856 443.634 684.856 443.831Z" fill="white"/>
<path d="M684.856 453.151C684.856 453.347 666.469 453.516 643.869 453.516C621.268 453.516 602.866 453.347 602.866 453.151C602.866 452.954 621.253 452.785 643.853 452.785C666.454 452.785 684.856 452.94 684.856 453.151Z" fill="white"/>
<path d="M684.856 462.457C684.856 462.668 666.469 462.822 643.868 462.822C621.268 462.822 602.881 462.668 602.881 462.457C602.881 462.246 621.268 462.091 643.868 462.091C666.469 462.091 684.856 462.26 684.856 462.457Z" fill="white"/>
<path d="M684.856 471.777C684.856 471.973 666.469 472.142 643.868 472.142C621.268 472.142 602.881 471.973 602.881 471.777C602.881 471.58 621.268 471.411 643.868 471.411C666.469 471.411 684.856 471.566 684.856 471.777Z" fill="white"/>
<path d="M684.856 481.083C684.856 481.28 666.469 481.449 643.868 481.449C621.268 481.449 602.881 481.28 602.881 481.083C602.881 480.886 621.268 480.718 643.868 480.718C666.469 480.718 684.856 480.886 684.856 481.083Z" fill="white"/>
<path d="M684.856 490.459C684.856 490.67 666.469 490.825 643.869 490.825C621.268 490.825 602.866 490.6 602.866 490.459C602.866 490.319 621.253 490.094 643.853 490.094C666.454 490.094 684.856 490.192 684.856 490.459Z" fill="white"/>
<path d="M554.708 374.682L609.516 378.702C609.516 378.702 611.048 354.284 585.399 351.697C559.75 349.111 554.708 374.682 554.708 374.682Z" fill="#455A64"/>
<path d="M624.548 422.294C623.506 422.618 617.806 410.092 611.83 394.306C605.854 378.519 601.84 365.431 602.882 365.108C603.924 364.785 609.608 377.31 615.599 393.097C621.59 408.883 625.589 421.957 624.548 422.294Z" fill="#455A64"/>
<path d="M627.827 587.934C627.473 588.04 627.108 588.116 626.739 588.159L623.598 588.637L621.33 588.96C620.487 589.059 619.583 589.115 618.603 589.213C616.641 589.368 614.42 589.635 611.953 589.663L608.076 589.776C606.728 589.776 605.318 589.776 603.863 589.776C600.951 589.776 597.856 589.509 594.669 589.27C580.482 588.013 566.632 584.547 553.713 579.022C550.786 577.7 547.967 576.477 545.454 575.114C544.198 574.453 542.957 573.848 541.807 573.188L538.513 571.206C536.399 570.025 534.637 568.746 533.043 567.705C532.246 567.171 531.511 566.693 530.837 566.215L529.059 564.809L526.623 562.94C526.332 562.732 526.06 562.501 525.811 562.251C526.143 562.406 526.452 562.6 526.73 562.827L529.259 564.585L531.067 565.878C531.741 566.342 532.492 566.806 533.304 567.284C534.912 568.296 536.69 569.533 538.82 570.685L542.099 572.555C543.248 573.202 544.489 573.778 545.745 574.425C548.258 575.76 551.062 576.955 553.989 578.262C560.439 580.926 567.097 583.144 573.908 584.898C580.726 586.565 587.671 587.759 594.685 588.468C597.918 588.721 600.997 589.016 603.878 589.031C605.334 589.031 606.728 589.157 608.061 589.129L611.938 589.059C614.389 589.059 616.611 588.834 618.572 588.721C619.537 588.721 620.457 588.609 621.284 588.524L623.552 588.271L626.708 587.92C627.081 587.899 627.455 587.904 627.827 587.934Z" fill="#455A64"/>
<path d="M562.585 582.396C551.093 580.99 536.077 585.067 527.466 592.236C539.678 590.731 551.54 587.407 562.585 582.396Z" fill="#455A64"/>
<path d="M563.167 582.522C567.381 572.597 561.16 558.624 561.16 558.624C559.949 556.74 560.486 571.515 563.167 582.522Z" fill="#455A64"/>
<path d="M545.025 574.649C548.089 567.367 543.631 557.134 543.631 557.134C542.773 555.728 543.125 566.594 545.025 574.649Z" fill="#455A64"/>
<path d="M579.408 586.05C582.472 578.768 578.014 568.534 578.014 568.534C577.14 567.129 577.493 577.995 579.408 586.05Z" fill="#455A64"/>
<path d="M545.377 574.805C536.812 573.764 525.642 576.801 519.253 582.114C528.337 581 537.162 578.531 545.377 574.805Z" fill="#455A64"/>
<path d="M581.155 587.161C569.005 587.315 554.142 593.641 546.404 602.23C558.805 598.977 570.544 593.887 581.155 587.161Z" fill="#455A64"/>
<path d="M627.459 533.925C624.982 530.512 621.544 527.777 617.509 526.011C613.474 524.246 608.994 523.515 604.543 523.897C600.092 524.279 595.837 525.759 592.23 528.181C588.622 530.602 585.796 533.875 584.051 537.651C581.269 544.116 581.395 551.331 584.404 557.711C587.456 564.02 592.424 569.388 598.715 573.174C614.911 583.295 638.4 582.831 653.446 571.318C659.039 567.101 663.528 561.211 664.555 554.604C665.15 550.76 664.563 546.84 662.858 543.287C661.153 539.733 658.399 536.688 654.907 534.495C651.416 532.301 647.325 531.048 643.097 530.875C638.87 530.702 634.674 531.618 630.984 533.518" fill="#02A85A"/>
<path d="M627.521 533.897C626.984 532.089 625.765 530.515 624.081 529.455C622.398 528.394 620.359 527.916 618.327 528.105L623.752 534.023C622.277 534.209 620.883 534.75 619.712 535.592C618.541 536.435 617.635 537.548 617.086 538.817C616.841 539.421 616.765 540.222 617.393 540.588C617.615 540.655 617.851 540.677 618.084 540.653C618.316 540.629 618.541 540.559 618.741 540.447L625.33 537.945C625.782 541.318 627.129 544.537 629.252 547.322C630.76 544.361 631.604 541.154 631.734 537.889L639.013 540.841C638.438 538.92 637.247 537.201 635.596 535.907C637.766 535.529 639.843 534.791 641.725 533.728C642.291 533.405 642.904 532.856 642.659 532.322C642.414 531.788 641.862 531.774 641.357 531.732C636.55 531.313 631.718 532.234 627.49 534.375" fill="#455A64"/>
<path d="M627.045 536.399C628.174 529.642 627.555 522.737 625.237 516.24C626.969 515.889 629.098 515.65 630.232 516.915C630.793 517.711 631.052 518.655 630.968 519.6C631.051 525.995 629.728 532.34 627.076 538.254" fill="#455A64"/>
<path d="M591.712 560.592C591.282 560.297 590.9 559.947 590.578 559.552C589.636 558.516 588.819 557.39 588.142 556.192C585.839 552.207 585.026 547.639 585.829 543.189C586.632 538.739 589.006 534.654 592.586 531.563C593.64 530.625 594.807 529.8 596.064 529.103C596.512 528.829 596.996 528.607 597.504 528.442C595.921 529.518 594.411 530.682 592.984 531.929C589.616 535.016 587.387 538.993 586.609 543.302C585.831 547.611 586.544 552.035 588.648 555.953C589.562 557.557 590.585 559.107 591.712 560.592Z" fill="white"/>
<path d="M599.021 565.653C598.944 565.835 597.795 565.653 596.631 564.851C595.466 564.05 594.869 563.164 595.098 563.038C595.328 562.911 596.094 563.558 597.152 564.261C598.209 564.964 599.098 565.456 599.021 565.653Z" fill="white"/>
<path d="M291.105 456.791C290.43 456.932 295.38 479.733 295.38 479.733H308.036L313.628 457.705C306.372 455.422 298.552 455.105 291.105 456.791Z" fill="#455A64"/>
<path d="M283.474 585.151C283.474 585.151 264.842 537.271 267.446 524.282C270.051 511.293 275.644 508.551 280.118 504.447C284.592 500.342 288.315 496.926 289.434 492.821C290.552 488.716 289.434 472.311 289.434 472.311C289.434 472.311 286.078 467.517 287.197 465.817C288.315 464.116 315.896 465.817 315.896 465.817C315.739 467.902 314.966 469.91 313.658 471.622C313.658 471.622 312.923 490.769 314.042 492.821C315.16 494.873 332.306 512.319 334.91 521.203C337.515 530.087 324.614 585.151 324.614 585.151H283.474Z" fill="#F5F5F5"/>
<path d="M283.474 585.15H284.194H286.293H294.384L324.614 585.024L324.369 585.207C325.901 578.248 327.663 570.362 329.41 561.688C331.157 553.015 332.98 543.54 334.252 533.376C334.543 530.832 334.804 528.26 334.865 525.631C335.129 523 334.515 520.357 333.103 518.054C330.253 513.184 326.925 508.563 323.159 504.249C321.289 502 319.328 499.765 317.352 497.516C316.371 496.377 315.375 495.252 314.41 494.072C314.15 493.766 313.91 493.447 313.69 493.116C313.535 492.74 313.432 492.348 313.383 491.949C313.267 491.208 313.195 490.462 313.169 489.714C312.877 483.796 313.077 477.807 313.261 471.72V471.622V471.537C313.536 471.116 313.843 470.666 314.103 470.132C314.849 468.822 315.297 467.387 315.421 465.914L315.789 466.266C309.507 465.9 303.286 465.619 297.203 465.521C294.221 465.422 291.234 465.53 288.27 465.844C287.991 465.886 287.721 465.972 287.473 466.097C287.338 466.325 287.274 466.583 287.289 466.842C287.334 467.479 287.489 468.106 287.749 468.698C288.275 469.921 288.921 471.097 289.68 472.212V472.297V472.381C289.955 476.753 290.155 481.054 290.17 485.286C290.206 487.392 290.119 489.499 289.909 491.598C289.622 493.695 288.763 495.692 287.412 497.403C286.143 499.057 284.723 500.609 283.168 502.042C281.635 503.448 280.103 504.854 278.571 506.189C277.01 507.439 275.536 508.777 274.158 510.196C272.861 511.597 271.76 513.141 270.879 514.792C269.24 517.997 268.11 521.401 267.524 524.9C267.332 526.573 267.332 528.259 267.524 529.932C267.646 531.577 267.891 533.208 268.136 534.796C269.217 540.649 270.618 546.448 272.335 552.171C275.399 562.63 278.28 570.868 280.256 576.533C281.268 579.345 282.049 581.495 282.585 582.999C282.846 583.716 283.03 584.279 283.183 584.672C283.336 585.066 283.367 585.249 283.367 585.249C283.271 585.072 283.189 584.888 283.122 584.7L282.447 583.042C281.881 581.636 281.053 579.415 280.011 576.603C277.943 570.98 274.97 562.757 271.844 552.284C270.312 547.054 268.703 541.263 267.554 534.881C267.294 533.278 267.049 531.647 266.911 529.96C266.704 528.251 266.704 526.525 266.911 524.815C267.496 521.254 268.637 517.789 270.297 514.525C271.197 512.825 272.324 511.233 273.652 509.788C275.042 508.347 276.531 506.99 278.111 505.725C279.644 504.418 281.176 503.012 282.631 501.592C284.159 500.181 285.553 498.652 286.799 497.024C288.079 495.398 288.89 493.503 289.159 491.513C289.357 489.443 289.439 487.364 289.404 485.286C289.404 481.068 289.174 476.781 288.898 472.423V472.592C288.094 471.438 287.417 470.213 286.876 468.937C286.593 468.266 286.422 467.56 286.37 466.842C286.343 466.424 286.467 466.009 286.722 465.661C287.068 465.375 287.501 465.194 287.963 465.141C290.988 464.811 294.036 464.698 297.08 464.804C303.209 464.888 309.338 465.169 315.712 465.549H316.34V465.9C316.223 467.5 315.749 469.059 314.946 470.483C314.673 470.966 314.371 471.436 314.042 471.889V471.706C313.858 477.765 313.659 483.767 313.935 489.629C313.967 490.354 314.038 491.076 314.149 491.794C314.188 492.12 314.265 492.44 314.379 492.75C314.578 493.031 314.777 493.313 315.023 493.608C315.957 494.76 316.969 495.885 317.949 497.01C319.926 499.273 321.887 501.508 323.756 503.771C327.554 508.126 330.903 512.795 333.762 517.716C335.214 520.119 335.849 522.866 335.585 525.603C335.585 528.26 335.248 530.86 334.942 533.405C333.655 543.596 331.77 553.085 330.023 561.745C328.276 570.404 326.484 578.318 324.844 585.263V585.46H324.63L294.276 585.333H286.232H284.179L283.474 585.15Z" fill="#263238"/>
<path d="M321.044 580.188C325.766 564.189 328.894 547.829 330.391 531.31C330.559 529.427 330.559 527.248 328.997 525.997C327.097 524.479 324.201 525.294 321.795 525.997C314.725 528.055 307.199 528.423 299.93 527.065C292.867 525.659 285.849 522.764 278.74 523.846C277.835 523.916 276.955 524.152 276.152 524.541C275.349 524.93 274.64 525.463 274.066 526.109C272.917 527.684 273.193 529.75 273.515 531.62C276.319 547.702 282.034 566.173 286.677 580.188H321.044Z" fill="#02A85A"/>
<path d="M325.718 527.979C325.333 528.471 324.886 528.92 324.385 529.314C323.071 530.455 321.656 531.494 320.156 532.421C315.207 535.548 309.512 537.539 303.55 538.226C297.588 538.914 291.533 538.277 285.895 536.371C284.191 535.815 282.541 535.128 280.961 534.319C280.364 534.055 279.807 533.72 279.307 533.321C279.307 533.194 281.789 534.572 286.079 535.893C291.655 537.613 297.582 538.156 303.419 537.482C309.255 536.808 314.851 534.934 319.788 531.999C323.649 529.82 325.611 527.866 325.718 527.979Z" fill="white"/>
</g>
<defs>
<clipPath id="clip0_450_2">
<rect width="721" height="658" fill="white"/>
</clipPath>
</defs>
</svg>
