<svg width="55" height="52" viewBox="0 0 55 52" fill="none" xmlns="http://www.w3.org/2000/svg">
<g clip-path="url(#clip0_416_77)">
<path d="M40.022 20.9239C34.6751 14.3262 29.5998 9.87059 29.1468 1.13077C29.1468 0.87372 29.0562 0.702351 28.8749 0.530982C28.7843 0.102559 28.3312 -0.154494 27.878 0.102559C27.3343 0.102559 26.8813 0.445297 26.8813 1.04509C15.4622 12.6982 -3.84157 42.2593 20.4467 50.742C31.4127 54.5979 43.8287 49.3712 46.0038 38.0607C47.1818 31.9772 43.8284 25.551 40.022 20.9239ZM20.5372 45.2583C17.909 43.8017 16.2777 40.8885 15.462 38.3179C15.0995 37.0326 14.9183 35.7475 15.0089 34.4622C15.5527 32.2344 16.2777 30.0921 17.0933 27.9502C17.5465 29.8351 18.4527 31.7203 19.7215 33.0911C22.6216 36.0903 28.5124 37.8896 30.1437 41.6597C31.1406 43.973 27.2436 45.9439 25.6123 46.4579C23.8904 46.972 21.9871 46.1153 20.5372 45.2583Z" fill="black"/>
</g>
<defs>
<clipPath id="clip0_416_77">
<rect width="55" height="52" fill="white"/>
</clipPath>
</defs>
</svg>
