<svg width="101" height="93" viewBox="0 0 101 93" fill="none" xmlns="http://www.w3.org/2000/svg">
<path fill-rule="evenodd" clip-rule="evenodd" d="M47.4334 1.25145C49.1009 -0.41715 51.7203 -0.41715 53.3879 1.25145L87.9215 35.8159L98.7132 46.6175C100.439 48.345 100.506 51.2167 98.8617 53.0313C97.2179 54.8455 94.4854 54.9154 92.7588 53.1874L89.2609 49.6865V83.9268C89.2609 88.9379 85.3958 93 80.6275 93H59.044H41.7772H20.1937C15.4256 93 11.5603 88.9379 11.5603 83.9268V49.6865L8.06232 53.1874C6.3359 54.9154 3.60356 54.8455 1.95938 53.0313C0.315206 51.2167 0.381848 48.345 2.10823 46.6175L12.9 35.8159L47.4334 1.25145ZM20.1937 41.0452V83.9268H37.4605V61.2439C37.4605 53.7272 43.2583 47.6341 50.4106 47.6341C57.563 47.6341 63.3607 53.7272 63.3607 61.2439V83.9268H80.6275V41.0452L50.4106 10.8014L20.1937 41.0452ZM54.7273 83.9268V61.2439C54.7273 58.7383 52.7947 56.7073 50.4106 56.7073C48.0265 56.7073 46.0939 58.7383 46.0939 61.2439V83.9268H54.7273Z" fill="white"/>
</svg>
