<svg width="66" height="75" viewBox="0 0 66 75" fill="none" xmlns="http://www.w3.org/2000/svg">
<path d="M53.1666 12.4997H23.8333V32.9163H20.1666V12.4997C20.1666 11.3946 20.5529 10.3348 21.2405 9.5534C21.9282 8.77199 22.8608 8.33301 23.8333 8.33301L53.1666 8.33301C54.139 8.33301 55.0717 8.77199 55.7593 9.5534C56.4469 10.3348 56.8333 11.3946 56.8333 12.4997V62.4997C56.8333 63.6047 56.4469 64.6645 55.7593 65.4459C55.0717 66.2274 54.139 66.6663 53.1666 66.6663H23.8333C22.8608 66.6663 21.9282 66.2274 21.2405 65.4459C20.5529 64.6645 20.1666 63.6047 20.1666 62.4997H53.1666V12.4997Z" fill="white"/>
<path d="M14.3732 36C14.7239 35.6587 15.1751 35.4803 15.6365 35.5006C16.0979 35.5208 16.5356 35.7382 16.8621 36.1092C17.1886 36.4803 17.3799 36.9776 17.3977 37.5019C17.4155 38.0263 17.2586 38.5389 16.9582 38.9375L10.7616 45.8333H37.3449C37.8311 45.8333 38.2974 46.0528 38.6413 46.4435C38.9851 46.8342 39.1782 47.3641 39.1782 47.9166C39.1782 48.4692 38.9851 48.9991 38.6413 49.3898C38.2974 49.7805 37.8311 50 37.3449 50H10.7616L16.9582 57.2083C17.1501 57.3951 17.306 57.6249 17.4161 57.8834C17.5261 58.1418 17.5879 58.4234 17.5977 58.7103C17.6074 58.9972 17.5649 59.2833 17.4727 59.5506C17.3806 59.818 17.2408 60.0608 17.0621 60.2638C16.8834 60.4669 16.6697 60.6257 16.4345 60.7305C16.1992 60.8352 15.9474 60.8836 15.695 60.8725C15.4425 60.8614 15.1947 60.7911 14.9673 60.6661C14.7398 60.541 14.5376 60.3639 14.3732 60.1458L3.66656 48.0625L14.3732 36Z" fill="white"/>
</svg>
