<svg width="88" height="90" viewBox="0 0 88 90" fill="none" xmlns="http://www.w3.org/2000/svg">
<g clip-path="url(#clip0_446_10)">
<path d="M29.2422 39.1304H20.4971V48.075H29.2422V39.1304Z" fill="white"/>
<path d="M67.503 39.1304H58.7578V48.075H67.503V39.1304Z" fill="white"/>
<path d="M54.7491 39.1304H46.0039V48.075H54.7491V39.1304Z" fill="white"/>
<path d="M29.2422 53.1055H20.4971V62.0501H29.2422V53.1055Z" fill="white"/>
<path d="M54.7491 53.1055H46.0039V62.0501H54.7491V53.1055Z" fill="white"/>
<path d="M41.9961 53.1055H33.251V62.0501H41.9961V53.1055Z" fill="white"/>
<path d="M67.503 67.0801H58.7578V76.0247H67.503V67.0801Z" fill="white"/>
<path d="M54.7491 67.0801H46.0039V76.0247H54.7491V67.0801Z" fill="white"/>
<path d="M41.9961 67.0801H33.251V76.0247H41.9961V67.0801Z" fill="white"/>
<path d="M75.5006 9.67627H68.3891V16.6495C68.3891 19.2514 66.2931 21.3675 63.717 21.3675H54.4315C51.8554 21.3675 49.7596 19.2514 49.7596 16.6495V9.67627H38.2278V16.5839C38.2278 19.2221 36.1088 21.3675 33.504 21.3675H24.3217C21.717 21.3675 19.5979 19.2221 19.5979 16.5839V9.67627H12.4864C7.86195 9.67627 4.09961 13.4893 4.09961 18.176V81.5005C4.09961 86.187 7.86195 90.0002 12.4864 90.0002H75.5006C80.1321 90.0002 83.9001 86.1872 83.9001 81.5005V18.176C83.9001 13.4895 80.1321 9.67627 75.5006 9.67627ZM77.888 81.3354C77.888 82.8401 76.8995 83.8507 75.4283 83.8507H12.5715C11.1002 83.8507 10.1118 82.8401 10.1118 81.3354V31.3049H77.888V81.3354Z" fill="white"/>
<path d="M24.3248 18.0188H33.5015C34.2786 18.0188 34.9107 17.3767 34.9107 16.5872V3.60229C34.9107 1.61596 33.3174 0 31.3587 0L26.4674 0C24.5088 0 22.915 1.61578 22.915 3.60229V16.5872C22.9152 17.3767 23.5474 18.0188 24.3248 18.0188Z" fill="white"/>
<path d="M54.4319 18.0188H63.7174C64.4647 18.0188 65.0725 17.4013 65.0725 16.6431V3.54691C65.0725 1.59135 63.5036 0 61.5746 0L56.5746 0C54.646 0 53.0771 1.59135 53.0771 3.54691V16.6431C53.077 17.4013 53.6849 18.0188 54.4319 18.0188Z" fill="white"/>
</g>
<defs>
<clipPath id="clip0_446_10">
<rect width="88" height="90" fill="white"/>
</clipPath>
</defs>
</svg>
