<svg width="97" height="133" viewBox="0 0 97 133" fill="none" xmlns="http://www.w3.org/2000/svg">
<path d="M1 131V1H96V131L48.5 85.9756L1 131Z" fill="#008445" stroke="#008445"/>
<path fill-rule="evenodd" clip-rule="evenodd" d="M63.975 26.8212C54.6026 30.1217 42.1717 29.7751 38.1241 39.9159C36.4628 44.0806 36.4532 47.3518 37.5047 49.7051H25.6308C28.1467 60.1779 37.4327 67.9458 48.5 67.9458C59.5721 67.9458 68.8581 60.173 71.374 49.7051H56.2159C61.1662 45.3549 64.8825 37.7871 63.975 26.8212ZM41.3411 53.5085L40.3376 61.2715H37.3319L36.1795 53.5085H38.2729C38.5082 55.6519 38.6811 57.4633 38.7915 58.9426C38.8971 57.4437 39.0076 56.1157 39.118 54.9586L39.2476 53.5085H41.3411ZM45.9408 58.2005H43.4681V59.5822C43.4681 59.8703 43.4873 60.0558 43.5305 60.1388C43.5737 60.2218 43.6506 60.2609 43.7706 60.2609C43.9146 60.2609 44.0155 60.2072 44.0635 60.0949C44.1115 59.9826 44.1355 59.7678 44.1355 59.4504V58.6106H45.9408V59.0793C45.9408 59.4748 45.9168 59.7775 45.8688 59.9875C45.8208 60.1974 45.7056 60.422 45.5279 60.6661C45.3503 60.9054 45.1198 61.086 44.8461 61.2081C44.5724 61.3301 44.2267 61.3887 43.8138 61.3887C43.4105 61.3887 43.0552 61.3301 42.7479 61.213C42.4406 61.0958 42.2005 60.9347 42.0277 60.7247C41.8548 60.5197 41.7396 60.2902 41.6724 60.0412C41.6003 59.7971 41.5667 59.4406 41.5667 58.9622V57.1068C41.5667 56.5503 41.6388 56.1108 41.7876 55.7886C41.9364 55.4664 42.1765 55.2222 42.5126 55.0513C42.8487 54.8805 43.2376 54.7926 43.6746 54.7926C44.2075 54.7926 44.6493 54.8951 44.995 55.1002C45.3407 55.3052 45.5855 55.5786 45.7296 55.9204C45.8688 56.2573 45.9408 56.7358 45.9408 57.3558V58.2005ZM44.0395 57.1703V56.7065C44.0395 56.3745 44.0203 56.1645 43.9867 56.0669C43.953 55.9692 43.881 55.9253 43.7706 55.9253C43.6361 55.9253 43.5497 55.9644 43.5209 56.0474C43.4873 56.1304 43.4729 56.3501 43.4729 56.7065V57.1703H44.0395ZM50.8959 54.9146V59.8166C50.8959 60.4757 50.8815 60.9054 50.8527 61.1007C50.8239 61.296 50.7135 61.4961 50.5358 61.7158C50.3534 61.9307 50.0989 62.0967 49.7724 62.209C49.4459 62.3213 49.033 62.3798 48.5432 62.3798C47.9334 62.3798 47.4485 62.2773 47.0788 62.0674C46.7091 61.8574 46.5218 61.4473 46.5074 60.8321H48.3512C48.3512 61.1153 48.452 61.2569 48.6584 61.2569C48.8073 61.2569 48.9033 61.213 48.9513 61.13C48.9993 61.0421 49.0234 60.8614 49.0234 60.588V60.09C48.8601 60.2414 48.6873 60.3536 48.5048 60.4318C48.3223 60.5099 48.1351 60.5489 47.9334 60.5489C47.5877 60.5489 47.3044 60.4806 47.0836 60.339C46.8579 60.1974 46.7091 60.0119 46.6274 59.7873C46.5458 59.5578 46.5026 59.2307 46.5026 58.8108V56.5014C46.5026 55.896 46.6082 55.4615 46.8243 55.1978C47.0404 54.9342 47.3669 54.8023 47.8086 54.8023C48.0487 54.8023 48.2695 54.8512 48.4664 54.9537C48.6632 55.0562 48.8409 55.2027 48.9945 55.4029L49.129 54.9195H50.8959V54.9146ZM48.9945 56.5991C48.9945 56.3061 48.9753 56.1206 48.9417 56.0425C48.9081 55.9644 48.8313 55.9253 48.7161 55.9253C48.6008 55.9253 48.5192 55.9692 48.476 56.062C48.428 56.1548 48.404 56.3354 48.404 56.604V58.7425C48.404 59.0256 48.4232 59.2112 48.4568 59.2942C48.4904 59.3772 48.5672 59.4211 48.6825 59.4211C48.8121 59.4211 48.8985 59.3723 48.9369 59.2698C48.9753 59.1672 48.9945 58.9378 48.9945 58.5765V56.5991ZM53.2678 57.3754H51.4817V56.9457C51.4817 56.4526 51.5393 56.0718 51.6497 55.8032C51.7602 55.5347 51.9858 55.3004 52.3219 55.0953C52.658 54.8902 53.095 54.7877 53.6327 54.7877C54.2761 54.7877 54.7611 54.9049 55.0876 55.1343C55.4141 55.3638 55.6109 55.647 55.6781 55.9888C55.7454 56.3305 55.779 57.0238 55.779 58.0736V61.2667H53.9256V60.7003C53.8104 60.9298 53.6567 61.1007 53.4743 61.213C53.2918 61.3253 53.071 61.3838 52.8165 61.3838C52.4804 61.3838 52.1779 61.2911 51.8994 61.1007C51.6209 60.9102 51.4817 60.4952 51.4817 59.8508V59.3283C51.4817 58.8499 51.5537 58.5276 51.7026 58.3567C51.8514 58.1859 52.2163 57.9808 52.8021 57.7513C53.4263 57.5023 53.7624 57.3363 53.8104 57.2484C53.8536 57.1606 53.8776 56.9848 53.8776 56.7211C53.8776 56.3891 53.8536 56.1743 53.8056 56.0718C53.7576 55.9741 53.6759 55.9204 53.5607 55.9204C53.4311 55.9204 53.3494 55.9644 53.3206 56.0474C53.287 56.1304 53.2726 56.3501 53.2726 56.7065V57.3754H53.2678ZM53.8728 58.2493C53.5655 58.4788 53.3879 58.6643 53.3398 58.8206C53.287 58.9768 53.2678 59.1916 53.2678 59.4797C53.2678 59.8117 53.287 60.0216 53.3302 60.1193C53.3735 60.2169 53.4599 60.2609 53.5847 60.2609C53.7048 60.2609 53.7816 60.2218 53.82 60.1486C53.8584 60.0754 53.8728 59.8752 53.8728 59.5578V58.2493ZM58.3621 54.9146L58.3333 55.5054C58.4726 55.2711 58.6406 55.0953 58.8423 54.9732C59.0439 54.8561 59.2696 54.7975 59.5337 54.7975C59.8602 54.7975 60.1291 54.8756 60.3355 55.0318C60.542 55.1881 60.6764 55.3834 60.734 55.6226C60.7965 55.8618 60.8253 56.2573 60.8253 56.8139V61.2715H58.9239V56.8676C58.9239 56.4331 58.9095 56.1645 58.8807 56.0669C58.8519 55.9692 58.7751 55.9253 58.6454 55.9253C58.5062 55.9253 58.4246 55.979 58.3861 56.0913C58.3525 56.2036 58.3333 56.4965 58.3333 56.975V61.2764H56.432V54.9146H58.3621ZM48.5 14C56.648 14 64.023 17.3591 69.3574 22.7883C74.6918 28.2176 78 35.717 78 43.9976C78 52.283 74.6966 59.7824 69.3574 65.2117C64.0182 70.6409 56.6432 74 48.5 74C40.352 74 32.977 70.6409 27.6426 65.2117C22.3034 59.7824 19 52.283 19 43.9976C19 35.7121 22.3034 28.2127 27.6426 22.7883C32.977 17.3591 40.352 14 48.5 14ZM67.0287 25.1563C62.2897 20.3325 55.7358 17.3493 48.5 17.3493C41.2642 17.3493 34.7103 20.3325 29.9713 25.1563C25.2275 29.9753 22.2938 36.6398 22.2938 43.9976C22.2938 51.3554 25.2275 58.0199 29.9713 62.8388C34.7151 67.6626 41.2642 70.6458 48.5 70.6458C55.7358 70.6458 62.2897 67.6626 67.0287 62.8388C71.7725 58.015 74.7062 51.3554 74.7062 43.9976C74.7062 36.6398 71.7725 29.9753 67.0287 25.1563ZM41.3603 49.1143C45.2494 40.5945 55.2412 37.6699 60.2011 31.8452C54.8283 42.4987 50.4398 43.0162 41.3603 49.1143Z" fill="white"/>
<path d="M1 131V1H96V131L48.5 85.9756L1 131Z" fill="#008445" stroke="#008445"/>
<path fill-rule="evenodd" clip-rule="evenodd" d="M63.975 26.8212C54.6026 30.1217 42.1717 29.7751 38.1241 39.9159C36.4628 44.0806 36.4532 47.3518 37.5047 49.7051H25.6308C28.1467 60.1779 37.4327 67.9458 48.5 67.9458C59.5721 67.9458 68.8581 60.173 71.374 49.7051H56.2159C61.1662 45.3549 64.8825 37.7871 63.975 26.8212ZM41.3411 53.5085L40.3376 61.2715H37.3319L36.1795 53.5085H38.2729C38.5082 55.6519 38.6811 57.4633 38.7915 58.9426C38.8971 57.4437 39.0076 56.1157 39.118 54.9586L39.2476 53.5085H41.3411ZM45.9408 58.2005H43.4681V59.5822C43.4681 59.8703 43.4873 60.0558 43.5305 60.1388C43.5737 60.2218 43.6506 60.2609 43.7706 60.2609C43.9146 60.2609 44.0155 60.2072 44.0635 60.0949C44.1115 59.9826 44.1355 59.7678 44.1355 59.4504V58.6106H45.9408V59.0793C45.9408 59.4748 45.9168 59.7775 45.8688 59.9875C45.8208 60.1974 45.7056 60.422 45.5279 60.6661C45.3503 60.9054 45.1198 61.086 44.8461 61.2081C44.5724 61.3301 44.2267 61.3887 43.8138 61.3887C43.4105 61.3887 43.0552 61.3301 42.7479 61.213C42.4406 61.0958 42.2005 60.9347 42.0277 60.7247C41.8548 60.5197 41.7396 60.2902 41.6724 60.0412C41.6003 59.7971 41.5667 59.4406 41.5667 58.9622V57.1068C41.5667 56.5503 41.6388 56.1108 41.7876 55.7886C41.9364 55.4664 42.1765 55.2222 42.5126 55.0513C42.8487 54.8805 43.2376 54.7926 43.6746 54.7926C44.2075 54.7926 44.6493 54.8951 44.995 55.1002C45.3407 55.3052 45.5855 55.5786 45.7296 55.9204C45.8688 56.2573 45.9408 56.7358 45.9408 57.3558V58.2005ZM44.0395 57.1703V56.7065C44.0395 56.3745 44.0203 56.1645 43.9867 56.0669C43.953 55.9692 43.881 55.9253 43.7706 55.9253C43.6361 55.9253 43.5497 55.9644 43.5209 56.0474C43.4873 56.1304 43.4729 56.3501 43.4729 56.7065V57.1703H44.0395ZM50.8959 54.9146V59.8166C50.8959 60.4757 50.8815 60.9054 50.8527 61.1007C50.8239 61.296 50.7135 61.4961 50.5358 61.7158C50.3534 61.9307 50.0989 62.0967 49.7724 62.209C49.4459 62.3213 49.033 62.3798 48.5432 62.3798C47.9334 62.3798 47.4485 62.2773 47.0788 62.0674C46.7091 61.8574 46.5218 61.4473 46.5074 60.8321H48.3512C48.3512 61.1153 48.452 61.2569 48.6584 61.2569C48.8073 61.2569 48.9033 61.213 48.9513 61.13C48.9993 61.0421 49.0234 60.8614 49.0234 60.588V60.09C48.8601 60.2414 48.6873 60.3536 48.5048 60.4318C48.3223 60.5099 48.1351 60.5489 47.9334 60.5489C47.5877 60.5489 47.3044 60.4806 47.0836 60.339C46.8579 60.1974 46.7091 60.0119 46.6274 59.7873C46.5458 59.5578 46.5026 59.2307 46.5026 58.8108V56.5014C46.5026 55.896 46.6082 55.4615 46.8243 55.1978C47.0404 54.9342 47.3669 54.8023 47.8086 54.8023C48.0487 54.8023 48.2695 54.8512 48.4664 54.9537C48.6632 55.0562 48.8409 55.2027 48.9945 55.4029L49.129 54.9195H50.8959V54.9146ZM48.9945 56.5991C48.9945 56.3061 48.9753 56.1206 48.9417 56.0425C48.9081 55.9644 48.8313 55.9253 48.7161 55.9253C48.6008 55.9253 48.5192 55.9692 48.476 56.062C48.428 56.1548 48.404 56.3354 48.404 56.604V58.7425C48.404 59.0256 48.4232 59.2112 48.4568 59.2942C48.4904 59.3772 48.5672 59.4211 48.6825 59.4211C48.8121 59.4211 48.8985 59.3723 48.9369 59.2698C48.9753 59.1672 48.9945 58.9378 48.9945 58.5765V56.5991ZM53.2678 57.3754H51.4817V56.9457C51.4817 56.4526 51.5393 56.0718 51.6497 55.8032C51.7602 55.5347 51.9858 55.3004 52.3219 55.0953C52.658 54.8902 53.095 54.7877 53.6327 54.7877C54.2761 54.7877 54.7611 54.9049 55.0876 55.1343C55.4141 55.3638 55.6109 55.647 55.6781 55.9888C55.7454 56.3305 55.779 57.0238 55.779 58.0736V61.2667H53.9256V60.7003C53.8104 60.9298 53.6567 61.1007 53.4743 61.213C53.2918 61.3253 53.071 61.3838 52.8165 61.3838C52.4804 61.3838 52.1779 61.2911 51.8994 61.1007C51.6209 60.9102 51.4817 60.4952 51.4817 59.8508V59.3283C51.4817 58.8499 51.5537 58.5276 51.7026 58.3567C51.8514 58.1859 52.2163 57.9808 52.8021 57.7513C53.4263 57.5023 53.7624 57.3363 53.8104 57.2484C53.8536 57.1606 53.8776 56.9848 53.8776 56.7211C53.8776 56.3891 53.8536 56.1743 53.8056 56.0718C53.7576 55.9741 53.6759 55.9204 53.5607 55.9204C53.4311 55.9204 53.3494 55.9644 53.3206 56.0474C53.287 56.1304 53.2726 56.3501 53.2726 56.7065V57.3754H53.2678ZM53.8728 58.2493C53.5655 58.4788 53.3879 58.6643 53.3398 58.8206C53.287 58.9768 53.2678 59.1916 53.2678 59.4797C53.2678 59.8117 53.287 60.0216 53.3302 60.1193C53.3735 60.2169 53.4599 60.2609 53.5847 60.2609C53.7048 60.2609 53.7816 60.2218 53.82 60.1486C53.8584 60.0754 53.8728 59.8752 53.8728 59.5578V58.2493ZM58.3621 54.9146L58.3333 55.5054C58.4726 55.2711 58.6406 55.0953 58.8423 54.9732C59.0439 54.8561 59.2696 54.7975 59.5337 54.7975C59.8602 54.7975 60.1291 54.8756 60.3355 55.0318C60.542 55.1881 60.6764 55.3834 60.734 55.6226C60.7965 55.8618 60.8253 56.2573 60.8253 56.8139V61.2715H58.9239V56.8676C58.9239 56.4331 58.9095 56.1645 58.8807 56.0669C58.8519 55.9692 58.7751 55.9253 58.6454 55.9253C58.5062 55.9253 58.4246 55.979 58.3861 56.0913C58.3525 56.2036 58.3333 56.4965 58.3333 56.975V61.2764H56.432V54.9146H58.3621ZM48.5 14C56.648 14 64.023 17.3591 69.3574 22.7883C74.6918 28.2176 78 35.717 78 43.9976C78 52.283 74.6966 59.7824 69.3574 65.2117C64.0182 70.6409 56.6432 74 48.5 74C40.352 74 32.977 70.6409 27.6426 65.2117C22.3034 59.7824 19 52.283 19 43.9976C19 35.7121 22.3034 28.2127 27.6426 22.7883C32.977 17.3591 40.352 14 48.5 14ZM67.0287 25.1563C62.2897 20.3325 55.7358 17.3493 48.5 17.3493C41.2642 17.3493 34.7103 20.3325 29.9713 25.1563C25.2275 29.9753 22.2938 36.6398 22.2938 43.9976C22.2938 51.3554 25.2275 58.0199 29.9713 62.8388C34.7151 67.6626 41.2642 70.6458 48.5 70.6458C55.7358 70.6458 62.2897 67.6626 67.0287 62.8388C71.7725 58.015 74.7062 51.3554 74.7062 43.9976C74.7062 36.6398 71.7725 29.9753 67.0287 25.1563ZM41.3603 49.1143C45.2494 40.5945 55.2412 37.6699 60.2011 31.8452C54.8283 42.4987 50.4398 43.0162 41.3603 49.1143Z" fill="white"/>
</svg>
